<ttFont>
<head>
    <!-- Most of this table will be recalculated by the compiler -->
    <tableVersion value="1.0"/>
    <fontRevision value="1.0"/>
    <checkSumAdjustment value="0xd96a3f9"/>
    <magicNumber value="0x5f0f3cf5"/>
    <flags value="00000000 00001011"/>
    <unitsPerEm value="96"/>
    <created value="Mon Jul 11 17:02:11 2016"/>
    <modified value="Mon Jul 11 17:02:11 2016"/>
    <xMin value="-3"/>
    <yMin value="-15"/>
    <xMax value="99"/>
    <yMax value="87"/>
    <macStyle value="00000000 00000000"/>
    <lowestRecPPEM value="8"/>
    <fontDirectionHint value="2"/>
    <indexToLocFormat value="0"/>
    <glyphDataFormat value="0"/>
  </head>
    <TTGlyph name=".notdef" xMin="3" yMin="0" xMax="27" yMax="64">
      <contour>
        <pt x="3" y="0" on="1"/>
        <pt x="3" y="64" on="1"/>
        <pt x="27" y="64" on="1"/>
        <pt x="27" y="0" on="1"/>
      </contour>
      <contour>
        <pt x="6" y="3" on="1"/>
        <pt x="24" y="3" on="1"/>
        <pt x="24" y="61" on="1"/>
        <pt x="6" y="61" on="1"/>
      </contour>
    </TTGlyph>
    <TTGlyph name="alert" xMin="-1" yMin="-6" xMax="96" yMax="78">
      <contour>
        <pt x="53" y="75" on="1"/>
        <pt x="94" y="3" on="1"/>
        <pt x="96" y="0" on="0"/>
        <pt x="93" y="-6" on="0"/>
        <pt x="89" y="-6" on="1"/>
        <pt x="7" y="-6" on="1"/>
        <pt x="3" y="-6" on="0"/>
        <pt x="0" y="0" on="0"/>
        <pt x="2" y="3" on="1"/>
        <pt x="43" y="75" on="1"/>
        <pt x="44" y="78" on="0"/>
        <pt x="51" y="78" on="0"/>
      </contour>
      <contour>
        <pt x="54" y="6" on="1"/>
        <pt x="54" y="18" on="1"/>
        <pt x="42" y="18" on="1"/>
        <pt x="42" y="6" on="1"/>
      </contour>
      <contour>
        <pt x="54" y="24" on="1"/>
        <pt x="54" y="48" on="1"/>
        <pt x="42" y="48" on="1"/>
        <pt x="42" y="24" on="1"/>
      </contour>
    </TTGlyph>
    <TTGlyph name="arrow-down" xMin="0" yMin="6" xMax="60" yMax="66">
      <contour>
        <pt x="42" y="42" on="1"/>
        <pt x="60" y="42" on="1"/>
        <pt x="30" y="6" on="1"/>
        <pt x="0" y="42" on="1"/>
        <pt x="18" y="42" on="1"/>
        <pt x="18" y="66" on="1"/>
        <pt x="42" y="66" on="1"/>
      </contour>
    </TTGlyph>
    <TTGlyph name="arrow-left" xMin="0" yMin="6" xMax="60" yMax="66">
      <contour>
        <pt x="36" y="66" on="1"/>
        <pt x="36" y="48" on="1"/>
        <pt x="60" y="48" on="1"/>
        <pt x="60" y="24" on="1"/>
        <pt x="36" y="24" on="1"/>
        <pt x="36" y="6" on="1"/>
        <pt x="0" y="36" on="1"/>
      </contour>
    </TTGlyph>
    <TTGlyph name="arrow-right" xMin="0" yMin="6" xMax="60" yMax="66">
      <contour>
        <pt x="60" y="36" on="1"/>
        <pt x="24" y="6" on="1"/>
        <pt x="24" y="24" on="1"/>
        <pt x="0" y="24" on="1"/>
        <pt x="0" y="48" on="1"/>
        <pt x="24" y="48" on="1"/>
        <pt x="24" y="66" on="1"/>
      </contour>
    </TTGlyph>
    <TTGlyph name="arrow-small-down" xMin="0" yMin="18" xMax="36" yMax="54">
      <contour>
        <pt x="24" y="42" on="1"/>
        <pt x="36" y="42" on="1"/>
        <pt x="18" y="18" on="1"/>
        <pt x="0" y="42" on="1"/>
        <pt x="12" y="42" on="1"/>
        <pt x="12" y="54" on="1"/>
        <pt x="24" y="54" on="1"/>
      </contour>
    </TTGlyph>
    <TTGlyph name="arrow-small-left" xMin="0" yMin="18" xMax="36" yMax="54">
      <contour>
        <pt x="24" y="42" on="1"/>
        <pt x="36" y="42" on="1"/>
        <pt x="36" y="30" on="1"/>
        <pt x="24" y="30" on="1"/>
        <pt x="24" y="18" on="1"/>
        <pt x="0" y="36" on="1"/>
        <pt x="24" y="54" on="1"/>
      </contour>
    </TTGlyph>
    <TTGlyph name="arrow-small-right" xMin="0" yMin="18" xMax="36" yMax="54">
      <contour>
        <pt x="36" y="36" on="1"/>
        <pt x="12" y="18" on="1"/>
        <pt x="12" y="30" on="1"/>
        <pt x="0" y="30" on="1"/>
        <pt x="0" y="42" on="1"/>
        <pt x="12" y="42" on="1"/>
        <pt x="12" y="54" on="1"/>
      </contour>
    </TTGlyph>
    <TTGlyph name="arrow-small-up" xMin="0" yMin="18" xMax="36" yMax="54">
      <contour>
        <pt x="18" y="54" on="1"/>
        <pt x="36" y="30" on="1"/>
        <pt x="24" y="30" on="1"/>
        <pt x="24" y="18" on="1"/>
        <pt x="12" y="18" on="1"/>
        <pt x="12" y="30" on="1"/>
        <pt x="0" y="30" on="1"/>
      </contour>
    </TTGlyph>
    <TTGlyph name="arrow-up" xMin="0" yMin="6" xMax="60" yMax="66">
      <contour>
        <pt x="30" y="66" on="1"/>
        <pt x="60" y="30" on="1"/>
        <pt x="42" y="30" on="1"/>
        <pt x="42" y="6" on="1"/>
        <pt x="18" y="6" on="1"/>
        <pt x="18" y="30" on="1"/>
        <pt x="0" y="30" on="1"/>
      </contour>
    </TTGlyph>
    <TTGlyph name="beaker" xMin="2" yMin="-12" xMax="91" yMax="84">
      <contour>
        <pt x="86" y="-4" on="1"/>
        <pt x="90" y="-12" on="0"/>
        <pt x="81" y="-12" on="1"/>
        <pt x="9" y="-12" on="1"/>
        <pt x="6" y="-12" on="0"/>
        <pt x="2" y="-7" on="0"/>
        <pt x="4" y="-4" on="1"/>
        <pt x="24" y="42" on="1"/>
        <pt x="24" y="66" on="1"/>
        <pt x="18" y="66" on="1"/>
        <pt x="18" y="72" on="1"/>
        <pt x="72" y="72" on="1"/>
        <pt x="72" y="66" on="1"/>
        <pt x="66" y="66" on="1"/>
        <pt x="66" y="42" on="1"/>
      </contour>
      <contour>
        <pt x="22" y="24" on="1"/>
        <pt x="67" y="24" on="1"/>
        <pt x="60" y="42" on="1"/>
        <pt x="60" y="66" on="1"/>
        <pt x="30" y="66" on="1"/>
        <pt x="30" y="42" on="1"/>
      </contour>
      <contour>
        <pt x="48" y="36" on="1"/>
        <pt x="54" y="36" on="1"/>
        <pt x="54" y="30" on="1"/>
        <pt x="48" y="30" on="1"/>
      </contour>
      <contour>
        <pt x="42" y="42" on="1"/>
        <pt x="36" y="42" on="1"/>
        <pt x="36" y="48" on="1"/>
        <pt x="42" y="48" on="1"/>
      </contour>
      <contour>
        <pt x="42" y="60" on="1"/>
        <pt x="48" y="60" on="1"/>
        <pt x="48" y="54" on="1"/>
        <pt x="42" y="54" on="1"/>
      </contour>
      <contour>
        <pt x="42" y="78" on="1"/>
        <pt x="36" y="78" on="1"/>
        <pt x="36" y="84" on="1"/>
        <pt x="42" y="84" on="1"/>
      </contour>
    </TTGlyph>
    <TTGlyph name="bell" xMin="0" yMin="-12" xMax="84" yMax="78">
      <contour>
        <pt x="84" y="12" on="1"/>
        <pt x="84" y="6" on="1"/>
        <pt x="0" y="6" on="1"/>
        <pt x="0" y="12" on="1"/>
        <pt x="4" y="15" on="1"/>
        <pt x="7" y="18" on="0"/>
        <pt x="12" y="42" on="1"/>
        <pt x="14" y="52" on="0"/>
        <pt x="26" y="67" on="0"/>
        <pt x="31" y="70" on="1"/>
        <pt x="36" y="72" on="1"/>
        <pt x="36" y="78" on="0"/>
        <pt x="48" y="78" on="0"/>
        <pt x="48" y="72" on="1"/>
        <pt x="68" y="65" on="0"/>
        <pt x="73" y="42" on="1"/>
        <pt x="78" y="18" on="0"/>
        <pt x="80" y="15" on="1"/>
      </contour>
      <contour>
        <pt x="54" y="-12" on="0"/>
        <pt x="30" y="-12" on="0"/>
        <pt x="30" y="0" on="1"/>
        <pt x="54" y="0" on="1"/>
      </contour>
    </TTGlyph>
    <TTGlyph name="bold" xMin="6" yMin="0" xMax="59" yMax="72">
      <contour>
        <pt x="6" y="72" on="1"/>
        <pt x="29" y="72" on="1"/>
        <pt x="55" y="72" on="0"/>
        <pt x="55" y="54" on="1"/>
        <pt x="55" y="42" on="0"/>
        <pt x="45" y="39" on="1"/>
        <pt x="45" y="38" on="1"/>
        <pt x="59" y="35" on="0"/>
        <pt x="59" y="21" on="1"/>
        <pt x="59" y="0" on="0"/>
        <pt x="31" y="0" on="1"/>
        <pt x="6" y="0" on="1"/>
      </contour>
      <contour>
        <pt x="28" y="42" on="1"/>
        <pt x="42" y="42" on="0"/>
        <pt x="42" y="52" on="1"/>
        <pt x="42" y="62" on="0"/>
        <pt x="28" y="62" on="1"/>
        <pt x="19" y="62" on="1"/>
        <pt x="19" y="42" on="1"/>
      </contour>
      <contour>
        <pt x="30" y="10" on="1"/>
        <pt x="46" y="10" on="0"/>
        <pt x="46" y="22" on="1"/>
        <pt x="46" y="33" on="0"/>
        <pt x="30" y="33" on="1"/>
        <pt x="19" y="33" on="1"/>
        <pt x="19" y="10" on="1"/>
      </contour>
    </TTGlyph>
    <TTGlyph name="book" xMin="6" yMin="0" xMax="96" yMax="72">
      <contour>
        <pt x="18" y="54" on="1"/>
        <pt x="42" y="54" on="1"/>
        <pt x="42" y="48" on="1"/>
        <pt x="18" y="48" on="1"/>
      </contour>
      <contour>
        <pt x="18" y="36" on="1"/>
        <pt x="18" y="42" on="1"/>
        <pt x="42" y="42" on="1"/>
        <pt x="42" y="36" on="1"/>
      </contour>
      <contour>
        <pt x="18" y="24" on="1"/>
        <pt x="18" y="30" on="1"/>
        <pt x="42" y="30" on="1"/>
        <pt x="42" y="24" on="1"/>
      </contour>
      <contour>
        <pt x="84" y="54" on="1"/>
        <pt x="84" y="48" on="1"/>
        <pt x="60" y="48" on="1"/>
        <pt x="60" y="54" on="1"/>
      </contour>
      <contour>
        <pt x="84" y="42" on="1"/>
        <pt x="84" y="36" on="1"/>
        <pt x="60" y="36" on="1"/>
        <pt x="60" y="42" on="1"/>
      </contour>
      <contour>
        <pt x="84" y="30" on="1"/>
        <pt x="84" y="24" on="1"/>
        <pt x="60" y="24" on="1"/>
        <pt x="60" y="30" on="1"/>
      </contour>
      <contour>
        <pt x="96" y="66" on="1"/>
        <pt x="96" y="12" on="1"/>
        <pt x="96" y="6" on="0"/>
        <pt x="90" y="6" on="1"/>
        <pt x="57" y="6" on="1"/>
        <pt x="51" y="0" on="1"/>
        <pt x="45" y="6" on="1"/>
        <pt x="12" y="6" on="1"/>
        <pt x="6" y="6" on="0"/>
        <pt x="6" y="12" on="1"/>
        <pt x="6" y="66" on="1"/>
        <pt x="6" y="72" on="0"/>
        <pt x="12" y="72" on="1"/>
        <pt x="45" y="72" on="1"/>
        <pt x="51" y="66" on="1"/>
        <pt x="57" y="72" on="1"/>
        <pt x="90" y="72" on="1"/>
        <pt x="96" y="72" on="0"/>
      </contour>
      <contour>
        <pt x="48" y="63" on="1"/>
        <pt x="45" y="66" on="1"/>
        <pt x="12" y="66" on="1"/>
        <pt x="12" y="12" on="1"/>
        <pt x="48" y="12" on="1"/>
      </contour>
      <contour>
        <pt x="90" y="66" on="1"/>
        <pt x="57" y="66" on="1"/>
        <pt x="54" y="63" on="1"/>
        <pt x="54" y="12" on="1"/>
        <pt x="90" y="12" on="1"/>
      </contour>
    </TTGlyph>
    <TTGlyph name="bookmark" xMin="0" yMin="-12" xMax="60" yMax="84">
      <contour>
        <pt x="54" y="84" on="1"/>
        <pt x="60" y="84" on="0"/>
        <pt x="60" y="78" on="1"/>
        <pt x="60" y="-12" on="1"/>
        <pt x="30" y="7" on="1"/>
        <pt x="0" y="-12" on="1"/>
        <pt x="0" y="78" on="1"/>
        <pt x="0" y="84" on="0"/>
        <pt x="6" y="84" on="1"/>
      </contour>
      <contour>
        <pt x="49" y="58" on="1"/>
        <pt x="51" y="60" on="0"/>
        <pt x="49" y="60" on="1"/>
        <pt x="35" y="60" on="1"/>
        <pt x="31" y="73" on="1"/>
        <pt x="29" y="73" on="1"/>
        <pt x="25" y="60" on="1"/>
        <pt x="11" y="60" on="1"/>
        <pt x="9" y="60" on="0"/>
        <pt x="11" y="58" on="1"/>
        <pt x="22" y="50" on="1"/>
        <pt x="18" y="37" on="1"/>
        <pt x="17" y="35" on="0"/>
        <pt x="19" y="36" on="1"/>
        <pt x="30" y="44" on="1"/>
        <pt x="41" y="36" on="1"/>
        <pt x="42" y="36" on="0"/>
        <pt x="43" y="36" on="0"/>
        <pt x="42" y="37" on="1"/>
        <pt x="38" y="50" on="1"/>
      </contour>
    </TTGlyph>
    <TTGlyph name="briefcase" xMin="0" yMin="0" xMax="84" yMax="72">
      <contour>
        <pt x="54" y="60" on="1"/>
        <pt x="78" y="60" on="1"/>
        <pt x="84" y="60" on="0"/>
        <pt x="84" y="54" on="1"/>
        <pt x="84" y="6" on="1"/>
        <pt x="84" y="0" on="0"/>
        <pt x="78" y="0" on="1"/>
        <pt x="6" y="0" on="1"/>
        <pt x="0" y="0" on="0"/>
        <pt x="0" y="6" on="1"/>
        <pt x="0" y="54" on="1"/>
        <pt x="0" y="60" on="0"/>
        <pt x="6" y="60" on="1"/>
        <pt x="30" y="60" on="1"/>
        <pt x="30" y="66" on="1"/>
        <pt x="30" y="72" on="0"/>
        <pt x="36" y="72" on="1"/>
        <pt x="48" y="72" on="1"/>
        <pt x="54" y="72" on="0"/>
        <pt x="54" y="66" on="1"/>
      </contour>
      <contour>
        <pt x="36" y="66" on="1"/>
        <pt x="36" y="60" on="1"/>
        <pt x="48" y="60" on="1"/>
        <pt x="48" y="66" on="1"/>
      </contour>
      <contour>
        <pt x="78" y="30" on="1"/>
        <pt x="78" y="54" on="1"/>
        <pt x="72" y="54" on="1"/>
        <pt x="72" y="36" on="1"/>
        <pt x="12" y="36" on="1"/>
        <pt x="12" y="54" on="1"/>
        <pt x="6" y="54" on="1"/>
        <pt x="6" y="30" on="1"/>
        <pt x="36" y="30" on="1"/>
        <pt x="36" y="24" on="1"/>
        <pt x="48" y="24" on="1"/>
        <pt x="48" y="30" on="1"/>
      </contour>
    </TTGlyph>
    <TTGlyph name="broadcast" xMin="0" yMin="-12" xMax="90" yMax="84">
      <contour>
        <pt x="54" y="30" on="1"/>
        <pt x="60" y="30" on="0"/>
        <pt x="60" y="24" on="1"/>
        <pt x="60" y="12" on="1"/>
        <pt x="54" y="12" on="1"/>
        <pt x="54" y="-6" on="1"/>
        <pt x="54" y="-12" on="0"/>
        <pt x="48" y="-12" on="1"/>
        <pt x="42" y="-12" on="1"/>
        <pt x="36" y="-12" on="0"/>
        <pt x="36" y="-6" on="1"/>
        <pt x="36" y="12" on="1"/>
        <pt x="30" y="12" on="1"/>
        <pt x="30" y="24" on="1"/>
        <pt x="30" y="30" on="0"/>
        <pt x="36" y="30" on="1"/>
        <pt x="42" y="30" on="1"/>
        <pt x="36" y="30" on="0"/>
        <pt x="36" y="36" on="1"/>
        <pt x="36" y="42" on="1"/>
        <pt x="36" y="48" on="0"/>
        <pt x="42" y="48" on="1"/>
        <pt x="48" y="48" on="1"/>
        <pt x="54" y="48" on="0"/>
        <pt x="54" y="42" on="1"/>
        <pt x="54" y="36" on="1"/>
        <pt x="54" y="30" on="0"/>
        <pt x="48" y="30" on="1"/>
      </contour>
      <contour>
        <pt x="42" y="42" on="1"/>
        <pt x="42" y="36" on="1"/>
        <pt x="48" y="36" on="1"/>
        <pt x="48" y="42" on="1"/>
      </contour>
      <contour>
        <pt x="54" y="18" on="1"/>
        <pt x="54" y="24" on="1"/>
        <pt x="36" y="24" on="1"/>
        <pt x="36" y="18" on="1"/>
        <pt x="42" y="18" on="1"/>
        <pt x="42" y="-6" on="1"/>
        <pt x="48" y="-6" on="1"/>
        <pt x="48" y="18" on="1"/>
      </contour>
      <contour>
        <pt x="67" y="39" on="1"/>
        <pt x="67" y="48" on="0"/>
        <pt x="54" y="61" on="0"/>
        <pt x="36" y="61" on="0"/>
        <pt x="23" y="48" on="0"/>
        <pt x="23" y="39" on="1"/>
        <pt x="23" y="36" on="0"/>
        <pt x="24" y="34" on="1"/>
        <pt x="24" y="22" on="1"/>
        <pt x="18" y="30" on="0"/>
        <pt x="18" y="39" on="1"/>
        <pt x="18" y="50" on="0"/>
        <pt x="34" y="66" on="0"/>
        <pt x="45" y="66" on="1"/>
        <pt x="52" y="66" on="0"/>
        <pt x="65" y="59" on="0"/>
        <pt x="72" y="46" on="0"/>
        <pt x="72" y="39" on="1"/>
        <pt x="72" y="30" on="0"/>
        <pt x="66" y="22" on="1"/>
        <pt x="66" y="34" on="1"/>
        <pt x="67" y="37" on="0"/>
      </contour>
      <contour>
        <pt x="90" y="39" on="1"/>
        <pt x="90" y="12" on="0"/>
        <pt x="66" y="-1" on="1"/>
        <pt x="66" y="6" on="1"/>
        <pt x="85" y="17" on="0"/>
        <pt x="85" y="39" on="1"/>
        <pt x="85" y="55" on="0"/>
        <pt x="61" y="79" on="0"/>
        <pt x="29" y="79" on="0"/>
        <pt x="5" y="55" on="0"/>
        <pt x="5" y="39" on="1"/>
        <pt x="5" y="17" on="0"/>
        <pt x="24" y="6" on="1"/>
        <pt x="24" y="-1" on="1"/>
        <pt x="0" y="12" on="0"/>
        <pt x="0" y="39" on="1"/>
        <pt x="0" y="58" on="0"/>
        <pt x="26" y="84" on="0"/>
        <pt x="64" y="84" on="0"/>
        <pt x="90" y="58" on="0"/>
      </contour>
    </TTGlyph>
    <TTGlyph name="browser" xMin="0" yMin="0" xMax="84" yMax="72">
      <contour>
        <pt x="30" y="66" on="1"/>
        <pt x="30" y="60" on="1"/>
        <pt x="36" y="60" on="1"/>
        <pt x="36" y="66" on="1"/>
      </contour>
      <contour>
        <pt x="18" y="66" on="1"/>
        <pt x="18" y="60" on="1"/>
        <pt x="24" y="60" on="1"/>
        <pt x="24" y="66" on="1"/>
      </contour>
      <contour>
        <pt x="6" y="66" on="1"/>
        <pt x="6" y="60" on="1"/>
        <pt x="12" y="60" on="1"/>
        <pt x="12" y="66" on="1"/>
      </contour>
      <contour>
        <pt x="78" y="6" on="1"/>
        <pt x="78" y="54" on="1"/>
        <pt x="6" y="54" on="1"/>
        <pt x="6" y="6" on="1"/>
      </contour>
      <contour>
        <pt x="78" y="60" on="1"/>
        <pt x="78" y="66" on="1"/>
        <pt x="42" y="66" on="1"/>
        <pt x="42" y="60" on="1"/>
      </contour>
      <contour>
        <pt x="84" y="66" on="1"/>
        <pt x="84" y="6" on="1"/>
        <pt x="84" y="0" on="0"/>
        <pt x="78" y="0" on="1"/>
        <pt x="6" y="0" on="1"/>
        <pt x="0" y="0" on="0"/>
        <pt x="0" y="6" on="1"/>
        <pt x="0" y="66" on="1"/>
        <pt x="0" y="72" on="0"/>
        <pt x="6" y="72" on="1"/>
        <pt x="78" y="72" on="1"/>
        <pt x="84" y="72" on="0"/>
      </contour>
    </TTGlyph>
    <TTGlyph name="bug" xMin="4" yMin="0" xMax="86" yMax="78">
      <contour>
        <pt x="66" y="24" on="1"/>
        <pt x="66" y="18" on="1"/>
        <pt x="85" y="12" on="1"/>
        <pt x="83" y="6" on="1"/>
        <pt x="66" y="12" on="1"/>
        <pt x="66" y="6" on="1"/>
        <pt x="66" y="0" on="0"/>
        <pt x="60" y="0" on="1"/>
        <pt x="54" y="0" on="1"/>
        <pt x="48" y="6" on="1"/>
        <pt x="48" y="48" on="1"/>
        <pt x="42" y="48" on="1"/>
        <pt x="42" y="6" on="1"/>
        <pt x="36" y="0" on="1"/>
        <pt x="30" y="0" on="1"/>
        <pt x="24" y="0" on="0"/>
        <pt x="24" y="6" on="1"/>
        <pt x="24" y="12" on="1"/>
        <pt x="7" y="6" on="1"/>
        <pt x="5" y="12" on="1"/>
        <pt x="24" y="18" on="1"/>
        <pt x="24" y="24" on="1"/>
        <pt x="6" y="24" on="1"/>
        <pt x="6" y="30" on="1"/>
        <pt x="24" y="30" on="1"/>
        <pt x="24" y="36" on="1"/>
        <pt x="5" y="42" on="1"/>
        <pt x="7" y="48" on="1"/>
        <pt x="24" y="42" on="1"/>
        <pt x="24" y="48" on="1"/>
        <pt x="24" y="54" on="0"/>
        <pt x="30" y="54" on="1"/>
        <pt x="30" y="60" on="1"/>
        <pt x="30" y="65" on="0"/>
        <pt x="35" y="66" on="1"/>
        <pt x="29" y="72" on="1"/>
        <pt x="18" y="72" on="1"/>
        <pt x="18" y="78" on="1"/>
        <pt x="31" y="78" on="1"/>
        <pt x="43" y="66" on="1"/>
        <pt x="47" y="66" on="1"/>
        <pt x="59" y="78" on="1"/>
        <pt x="72" y="78" on="1"/>
        <pt x="72" y="72" on="1"/>
        <pt x="61" y="72" on="1"/>
        <pt x="55" y="66" on="1"/>
        <pt x="60" y="65" on="0"/>
        <pt x="60" y="60" on="1"/>
        <pt x="60" y="54" on="1"/>
        <pt x="66" y="54" on="0"/>
        <pt x="66" y="48" on="1"/>
        <pt x="66" y="42" on="1"/>
        <pt x="83" y="48" on="1"/>
        <pt x="85" y="42" on="1"/>
        <pt x="66" y="36" on="1"/>
        <pt x="66" y="30" on="1"/>
        <pt x="84" y="30" on="1"/>
        <pt x="84" y="24" on="1"/>
      </contour>
      <contour>
        <pt x="54" y="54" on="1"/>
        <pt x="54" y="60" on="1"/>
        <pt x="36" y="60" on="1"/>
        <pt x="36" y="54" on="1"/>
      </contour>
    </TTGlyph>
    <TTGlyph name="calendar" xMin="6" yMin="-6" xMax="84" yMax="78">
      <contour>
        <pt x="78" y="72" on="1"/>
        <pt x="84" y="72" on="0"/>
        <pt x="84" y="66" on="1"/>
        <pt x="84" y="0" on="1"/>
        <pt x="84" y="-6" on="0"/>
        <pt x="78" y="-6" on="1"/>
        <pt x="12" y="-6" on="1"/>
        <pt x="6" y="-6" on="0"/>
        <pt x="6" y="0" on="1"/>
        <pt x="6" y="66" on="1"/>
        <pt x="6" y="72" on="0"/>
        <pt x="12" y="72" on="1"/>
        <pt x="18" y="72" on="1"/>
        <pt x="18" y="63" on="1"/>
        <pt x="18" y="60" on="0"/>
        <pt x="21" y="60" on="1"/>
        <pt x="33" y="60" on="1"/>
        <pt x="36" y="60" on="0"/>
        <pt x="36" y="63" on="1"/>
        <pt x="36" y="72" on="1"/>
        <pt x="54" y="72" on="1"/>
        <pt x="54" y="63" on="1"/>
        <pt x="54" y="60" on="0"/>
        <pt x="57" y="60" on="1"/>
        <pt x="69" y="60" on="1"/>
        <pt x="72" y="60" on="0"/>
        <pt x="72" y="63" on="1"/>
        <pt x="72" y="72" on="1"/>
      </contour>
      <contour>
        <pt x="78" y="0" on="1"/>
        <pt x="78" y="54" on="1"/>
        <pt x="12" y="54" on="1"/>
        <pt x="12" y="0" on="1"/>
      </contour>
      <contour>
        <pt x="30" y="66" on="1"/>
        <pt x="24" y="66" on="1"/>
        <pt x="24" y="78" on="1"/>
        <pt x="30" y="78" on="1"/>
      </contour>
      <contour>
        <pt x="66" y="66" on="1"/>
        <pt x="60" y="66" on="1"/>
        <pt x="60" y="78" on="1"/>
        <pt x="66" y="78" on="1"/>
      </contour>
      <contour>
        <pt x="36" y="42" on="1"/>
        <pt x="30" y="42" on="1"/>
        <pt x="30" y="48" on="1"/>
        <pt x="36" y="48" on="1"/>
      </contour>
      <contour>
        <pt x="48" y="42" on="1"/>
        <pt x="42" y="42" on="1"/>
        <pt x="42" y="48" on="1"/>
        <pt x="48" y="48" on="1"/>
      </contour>
      <contour>
        <pt x="60" y="42" on="1"/>
        <pt x="54" y="42" on="1"/>
        <pt x="54" y="48" on="1"/>
        <pt x="60" y="48" on="1"/>
      </contour>
      <contour>
        <pt x="72" y="42" on="1"/>
        <pt x="66" y="42" on="1"/>
        <pt x="66" y="48" on="1"/>
        <pt x="72" y="48" on="1"/>
      </contour>
      <contour>
        <pt x="24" y="30" on="1"/>
        <pt x="18" y="30" on="1"/>
        <pt x="18" y="36" on="1"/>
        <pt x="24" y="36" on="1"/>
      </contour>
      <contour>
        <pt x="36" y="30" on="1"/>
        <pt x="30" y="30" on="1"/>
        <pt x="30" y="36" on="1"/>
        <pt x="36" y="36" on="1"/>
      </contour>
      <contour>
        <pt x="48" y="30" on="1"/>
        <pt x="42" y="30" on="1"/>
        <pt x="42" y="36" on="1"/>
        <pt x="48" y="36" on="1"/>
      </contour>
      <contour>
        <pt x="60" y="30" on="1"/>
        <pt x="54" y="30" on="1"/>
        <pt x="54" y="36" on="1"/>
        <pt x="60" y="36" on="1"/>
      </contour>
      <contour>
        <pt x="72" y="30" on="1"/>
        <pt x="66" y="30" on="1"/>
        <pt x="66" y="36" on="1"/>
        <pt x="72" y="36" on="1"/>
      </contour>
      <contour>
        <pt x="24" y="18" on="1"/>
        <pt x="18" y="18" on="1"/>
        <pt x="18" y="24" on="1"/>
        <pt x="24" y="24" on="1"/>
      </contour>
      <contour>
        <pt x="36" y="18" on="1"/>
        <pt x="30" y="18" on="1"/>
        <pt x="30" y="24" on="1"/>
        <pt x="36" y="24" on="1"/>
      </contour>
      <contour>
        <pt x="48" y="18" on="1"/>
        <pt x="42" y="18" on="1"/>
        <pt x="42" y="24" on="1"/>
        <pt x="48" y="24" on="1"/>
      </contour>
      <contour>
        <pt x="60" y="18" on="1"/>
        <pt x="54" y="18" on="1"/>
        <pt x="54" y="24" on="1"/>
        <pt x="60" y="24" on="1"/>
      </contour>
      <contour>
        <pt x="72" y="18" on="1"/>
        <pt x="66" y="18" on="1"/>
        <pt x="66" y="24" on="1"/>
        <pt x="72" y="24" on="1"/>
      </contour>
      <contour>
        <pt x="24" y="6" on="1"/>
        <pt x="18" y="6" on="1"/>
        <pt x="18" y="12" on="1"/>
        <pt x="24" y="12" on="1"/>
      </contour>
      <contour>
        <pt x="36" y="6" on="1"/>
        <pt x="30" y="6" on="1"/>
        <pt x="30" y="12" on="1"/>
        <pt x="36" y="12" on="1"/>
      </contour>
      <contour>
        <pt x="48" y="6" on="1"/>
        <pt x="42" y="6" on="1"/>
        <pt x="42" y="12" on="1"/>
        <pt x="48" y="12" on="1"/>
      </contour>
      <contour>
        <pt x="60" y="6" on="1"/>
        <pt x="54" y="6" on="1"/>
        <pt x="54" y="12" on="1"/>
        <pt x="60" y="12" on="1"/>
      </contour>
    </TTGlyph>
    <TTGlyph name="check" xMin="0" yMin="6" xMax="72" yMax="63">
      <contour>
        <pt x="72" y="54" on="1"/>
        <pt x="24" y="6" on="1"/>
        <pt x="0" y="30" on="1"/>
        <pt x="9" y="39" on="1"/>
        <pt x="24" y="24" on="1"/>
        <pt x="63" y="63" on="1"/>
      </contour>
    </TTGlyph>
    <TTGlyph name="checklist" xMin="6" yMin="-3" xMax="96" yMax="72">
      <contour>
        <pt x="96" y="33" on="1"/>
        <pt x="60" y="-3" on="1"/>
        <pt x="42" y="15" on="1"/>
        <pt x="51" y="24" on="1"/>
        <pt x="60" y="15" on="1"/>
        <pt x="87" y="42" on="1"/>
      </contour>
      <contour>
        <pt x="34" y="11" on="1"/>
        <pt x="39" y="6" on="1"/>
        <pt x="12" y="6" on="1"/>
        <pt x="6" y="6" on="0"/>
        <pt x="6" y="12" on="1"/>
        <pt x="6" y="66" on="1"/>
        <pt x="6" y="72" on="0"/>
        <pt x="12" y="72" on="1"/>
        <pt x="54" y="72" on="1"/>
        <pt x="60" y="72" on="0"/>
        <pt x="60" y="66" on="1"/>
        <pt x="60" y="27" on="1"/>
        <pt x="55" y="32" on="1"/>
        <pt x="51" y="36" on="0"/>
        <pt x="47" y="32" on="1"/>
        <pt x="34" y="19" on="1"/>
        <pt x="30" y="15" on="0"/>
      </contour>
      <contour>
        <pt x="24" y="60" on="1"/>
        <pt x="54" y="60" on="1"/>
        <pt x="54" y="66" on="1"/>
        <pt x="24" y="66" on="1"/>
      </contour>
      <contour>
        <pt x="24" y="48" on="1"/>
        <pt x="54" y="48" on="1"/>
        <pt x="54" y="54" on="1"/>
        <pt x="24" y="54" on="1"/>
      </contour>
      <contour>
        <pt x="24" y="36" on="1"/>
        <pt x="42" y="36" on="1"/>
        <pt x="42" y="42" on="1"/>
        <pt x="24" y="42" on="1"/>
      </contour>
      <contour>
        <pt x="18" y="30" on="1"/>
        <pt x="12" y="30" on="1"/>
        <pt x="12" y="24" on="1"/>
        <pt x="18" y="24" on="1"/>
      </contour>
      <contour>
        <pt x="18" y="42" on="1"/>
        <pt x="12" y="42" on="1"/>
        <pt x="12" y="36" on="1"/>
        <pt x="18" y="36" on="1"/>
      </contour>
      <contour>
        <pt x="18" y="54" on="1"/>
        <pt x="12" y="54" on="1"/>
        <pt x="12" y="48" on="1"/>
        <pt x="18" y="48" on="1"/>
      </contour>
      <contour>
        <pt x="18" y="66" on="1"/>
        <pt x="12" y="66" on="1"/>
        <pt x="12" y="60" on="1"/>
        <pt x="18" y="60" on="1"/>
      </contour>
    </TTGlyph>
    <TTGlyph name="chevron-down" xMin="0" yMin="18" xMax="60" yMax="57">
      <contour>
        <pt x="30" y="18" on="1"/>
        <pt x="0" y="48" on="1"/>
        <pt x="9" y="57" on="1"/>
        <pt x="30" y="34" on="1"/>
        <pt x="51" y="57" on="1"/>
        <pt x="60" y="48" on="1"/>
      </contour>
    </TTGlyph>
    <TTGlyph name="chevron-left" xMin="3" yMin="6" xMax="42" yMax="66">
      <contour>
        <pt x="33" y="66" on="1"/>
        <pt x="42" y="57" on="1"/>
        <pt x="20" y="36" on="1"/>
        <pt x="42" y="15" on="1"/>
        <pt x="33" y="6" on="1"/>
        <pt x="3" y="36" on="1"/>
      </contour>
    </TTGlyph>
    <TTGlyph name="chevron-right" xMin="6" yMin="6" xMax="45" yMax="66">
      <contour>
        <pt x="45" y="36" on="1"/>
        <pt x="15" y="6" on="1"/>
        <pt x="6" y="15" on="1"/>
        <pt x="28" y="36" on="1"/>
        <pt x="6" y="57" on="1"/>
        <pt x="15" y="66" on="1"/>
      </contour>
    </TTGlyph>
    <TTGlyph name="chevron-up" xMin="0" yMin="15" xMax="60" yMax="54">
      <contour>
        <pt x="60" y="24" on="1"/>
        <pt x="51" y="15" on="1"/>
        <pt x="30" y="38" on="1"/>
        <pt x="9" y="15" on="1"/>
        <pt x="0" y="24" on="1"/>
        <pt x="30" y="54" on="1"/>
      </contour>
    </TTGlyph>
    <TTGlyph name="circle-slash" xMin="0" yMin="-6" xMax="84" yMax="78">
      <contour>
        <pt x="25" y="78" on="0"/>
        <pt x="59" y="78" on="0"/>
        <pt x="84" y="53" on="0"/>
        <pt x="84" y="19" on="0"/>
        <pt x="59" y="-6" on="0"/>
        <pt x="25" y="-6" on="0"/>
        <pt x="0" y="19" on="0"/>
        <pt x="0" y="53" on="0"/>
      </contour>
      <contour>
        <pt x="42" y="70" on="1"/>
        <pt x="28" y="70" on="0"/>
        <pt x="8" y="50" on="0"/>
        <pt x="8" y="36" on="1"/>
        <pt x="8" y="25" on="0"/>
        <pt x="15" y="15" on="1"/>
        <pt x="63" y="63" on="1"/>
        <pt x="53" y="70" on="0"/>
      </contour>
      <contour>
        <pt x="42" y="2" on="1"/>
        <pt x="56" y="2" on="0"/>
        <pt x="76" y="22" on="0"/>
        <pt x="76" y="36" on="1"/>
        <pt x="76" y="47" on="0"/>
        <pt x="69" y="57" on="1"/>
        <pt x="21" y="9" on="1"/>
        <pt x="31" y="2" on="0"/>
      </contour>
    </TTGlyph>
    <TTGlyph name="circuit-board" xMin="0" yMin="-6" xMax="84" yMax="78">
      <contour>
        <pt x="18" y="48" on="0"/>
        <pt x="18" y="60" on="0"/>
        <pt x="30" y="60" on="0"/>
        <pt x="30" y="48" on="0"/>
      </contour>
      <contour>
        <pt x="66" y="60" on="0"/>
        <pt x="66" y="48" on="0"/>
        <pt x="54" y="48" on="0"/>
        <pt x="54" y="60" on="0"/>
      </contour>
      <contour>
        <pt x="66" y="24" on="0"/>
        <pt x="66" y="12" on="0"/>
        <pt x="54" y="12" on="0"/>
        <pt x="54" y="24" on="0"/>
      </contour>
      <contour>
        <pt x="78" y="78" on="1"/>
        <pt x="84" y="78" on="0"/>
        <pt x="84" y="72" on="1"/>
        <pt x="84" y="0" on="1"/>
        <pt x="84" y="-6" on="0"/>
        <pt x="78" y="-6" on="1"/>
        <pt x="24" y="-6" on="1"/>
        <pt x="42" y="12" on="1"/>
        <pt x="49" y="12" on="1"/>
        <pt x="52" y="5" on="0"/>
        <pt x="60" y="5" on="1"/>
        <pt x="66" y="5" on="0"/>
        <pt x="74" y="15" on="0"/>
        <pt x="72" y="21" on="1"/>
        <pt x="71" y="28" on="0"/>
        <pt x="63" y="30" on="1"/>
        <pt x="54" y="32" on="0"/>
        <pt x="49" y="24" on="1"/>
        <pt x="36" y="24" on="1"/>
        <pt x="6" y="-6" on="1"/>
        <pt x="0" y="-6" on="0"/>
        <pt x="0" y="0" on="1"/>
        <pt x="0" y="72" on="1"/>
        <pt x="0" y="78" on="0"/>
        <pt x="6" y="78" on="1"/>
        <pt x="18" y="78" on="1"/>
        <pt x="18" y="65" on="1"/>
        <pt x="9" y="61" on="0"/>
        <pt x="12" y="51" on="1"/>
        <pt x="14" y="44" on="0"/>
        <pt x="21" y="42" on="1"/>
        <pt x="30" y="39" on="0"/>
        <pt x="35" y="48" on="1"/>
        <pt x="49" y="48" on="1"/>
        <pt x="52" y="41" on="0"/>
        <pt x="60" y="41" on="1"/>
        <pt x="66" y="41" on="0"/>
        <pt x="74" y="51" on="0"/>
        <pt x="72" y="57" on="1"/>
        <pt x="71" y="64" on="0"/>
        <pt x="63" y="66" on="1"/>
        <pt x="54" y="68" on="0"/>
        <pt x="49" y="60" on="1"/>
        <pt x="35" y="60" on="1"/>
        <pt x="33" y="63" on="0"/>
        <pt x="30" y="65" on="1"/>
        <pt x="30" y="78" on="1"/>
      </contour>
    </TTGlyph>
    <TTGlyph name="clippy" xMin="0" yMin="-12" xMax="84" yMax="78">
      <contour>
        <pt x="12" y="6" on="1"/>
        <pt x="36" y="6" on="1"/>
        <pt x="36" y="0" on="1"/>
        <pt x="12" y="0" on="1"/>
      </contour>
      <contour>
        <pt x="42" y="42" on="1"/>
        <pt x="42" y="36" on="1"/>
        <pt x="12" y="36" on="1"/>
        <pt x="12" y="42" on="1"/>
      </contour>
      <contour>
        <pt x="54" y="24" on="1"/>
        <pt x="84" y="24" on="1"/>
        <pt x="84" y="12" on="1"/>
        <pt x="54" y="12" on="1"/>
        <pt x="54" y="0" on="1"/>
        <pt x="36" y="18" on="1"/>
        <pt x="54" y="36" on="1"/>
      </contour>
      <contour>
        <pt x="27" y="30" on="1"/>
        <pt x="27" y="24" on="1"/>
        <pt x="12" y="24" on="1"/>
        <pt x="12" y="30" on="1"/>
      </contour>
      <contour>
        <pt x="12" y="12" on="1"/>
        <pt x="12" y="18" on="1"/>
        <pt x="27" y="18" on="1"/>
        <pt x="27" y="12" on="1"/>
      </contour>
      <contour>
        <pt x="66" y="6" on="1"/>
        <pt x="72" y="6" on="1"/>
        <pt x="72" y="-6" on="1"/>
        <pt x="72" y="-9" on="0"/>
        <pt x="68" y="-12" on="0"/>
        <pt x="66" y="-12" on="1"/>
        <pt x="6" y="-12" on="1"/>
        <pt x="0" y="-12" on="0"/>
        <pt x="0" y="-6" on="1"/>
        <pt x="0" y="60" on="1"/>
        <pt x="0" y="66" on="0"/>
        <pt x="6" y="66" on="1"/>
        <pt x="24" y="66" on="1"/>
        <pt x="24" y="78" on="0"/>
        <pt x="48" y="78" on="0"/>
        <pt x="48" y="66" on="1"/>
        <pt x="66" y="66" on="1"/>
        <pt x="72" y="66" on="0"/>
        <pt x="72" y="60" on="1"/>
        <pt x="72" y="30" on="1"/>
        <pt x="66" y="30" on="1"/>
        <pt x="66" y="48" on="1"/>
        <pt x="6" y="48" on="1"/>
        <pt x="6" y="-6" on="1"/>
        <pt x="66" y="-6" on="1"/>
      </contour>
      <contour>
        <pt x="12" y="54" on="1"/>
        <pt x="60" y="54" on="1"/>
        <pt x="60" y="60" on="0"/>
        <pt x="54" y="60" on="1"/>
        <pt x="48" y="60" on="1"/>
        <pt x="42" y="60" on="0"/>
        <pt x="42" y="72" on="0"/>
        <pt x="30" y="72" on="0"/>
        <pt x="30" y="60" on="0"/>
        <pt x="24" y="60" on="1"/>
        <pt x="18" y="60" on="1"/>
        <pt x="12" y="60" on="0"/>
      </contour>
    </TTGlyph>
    <TTGlyph name="clock" xMin="0" yMin="-6" xMax="84" yMax="78">
      <contour>
        <pt x="48" y="36" on="1"/>
        <pt x="66" y="36" on="1"/>
        <pt x="66" y="24" on="1"/>
        <pt x="42" y="24" on="1"/>
        <pt x="36" y="24" on="0"/>
        <pt x="36" y="30" on="1"/>
        <pt x="36" y="60" on="1"/>
        <pt x="48" y="60" on="1"/>
      </contour>
      <contour>
        <pt x="56" y="70" on="0"/>
        <pt x="28" y="70" on="0"/>
        <pt x="8" y="50" on="0"/>
        <pt x="8" y="22" on="0"/>
        <pt x="28" y="2" on="0"/>
        <pt x="56" y="2" on="0"/>
        <pt x="76" y="22" on="0"/>
        <pt x="76" y="50" on="0"/>
      </contour>
      <contour>
        <pt x="25" y="78" on="0"/>
        <pt x="59" y="78" on="0"/>
        <pt x="84" y="53" on="0"/>
        <pt x="84" y="19" on="0"/>
        <pt x="59" y="-6" on="0"/>
        <pt x="25" y="-6" on="0"/>
        <pt x="0" y="19" on="0"/>
        <pt x="0" y="53" on="0"/>
      </contour>
    </TTGlyph>
    <TTGlyph name="cloud-download" xMin="0" yMin="-6" xMax="96" yMax="78">
      <contour>
        <pt x="54" y="12" on="1"/>
        <pt x="66" y="12" on="1"/>
        <pt x="48" y="-6" on="1"/>
        <pt x="30" y="12" on="1"/>
        <pt x="42" y="12" on="1"/>
        <pt x="42" y="42" on="1"/>
        <pt x="54" y="42" on="1"/>
      </contour>
      <contour>
        <pt x="72" y="60" on="1"/>
        <pt x="96" y="60" on="0"/>
        <pt x="96" y="18" on="0"/>
        <pt x="72" y="18" on="1"/>
        <pt x="60" y="18" on="1"/>
        <pt x="60" y="26" on="1"/>
        <pt x="72" y="26" on="1"/>
        <pt x="88" y="26" on="0"/>
        <pt x="88" y="52" on="0"/>
        <pt x="72" y="52" on="1"/>
        <pt x="64" y="52" on="1"/>
        <pt x="64" y="59" on="1"/>
        <pt x="61" y="70" on="0"/>
        <pt x="45" y="70" on="1"/>
        <pt x="38" y="70" on="0"/>
        <pt x="26" y="60" on="0"/>
        <pt x="26" y="54" on="1"/>
        <pt x="26" y="46" on="1"/>
        <pt x="18" y="46" on="1"/>
        <pt x="8" y="46" on="0"/>
        <pt x="8" y="26" on="0"/>
        <pt x="18" y="26" on="1"/>
        <pt x="36" y="26" on="1"/>
        <pt x="36" y="18" on="1"/>
        <pt x="18" y="18" on="1"/>
        <pt x="0" y="18" on="0"/>
        <pt x="0" y="54" on="0"/>
        <pt x="18" y="54" on="1"/>
        <pt x="18" y="63" on="0"/>
        <pt x="34" y="78" on="0"/>
        <pt x="45" y="78" on="1"/>
        <pt x="55" y="78" on="0"/>
        <pt x="68" y="70" on="0"/>
        <pt x="72" y="62" on="0"/>
      </contour>
    </TTGlyph>
    <TTGlyph name="cloud-upload" xMin="0" yMin="0" xMax="96" yMax="72">
      <contour>
        <pt x="42" y="30" on="1"/>
        <pt x="30" y="30" on="1"/>
        <pt x="48" y="48" on="1"/>
        <pt x="66" y="30" on="1"/>
        <pt x="54" y="30" on="1"/>
        <pt x="54" y="0" on="1"/>
        <pt x="42" y="0" on="1"/>
      </contour>
      <contour>
        <pt x="72" y="54" on="1"/>
        <pt x="96" y="54" on="0"/>
        <pt x="96" y="12" on="0"/>
        <pt x="72" y="12" on="1"/>
        <pt x="60" y="12" on="1"/>
        <pt x="60" y="20" on="1"/>
        <pt x="72" y="20" on="1"/>
        <pt x="88" y="20" on="0"/>
        <pt x="88" y="46" on="0"/>
        <pt x="72" y="46" on="1"/>
        <pt x="64" y="46" on="1"/>
        <pt x="64" y="53" on="1"/>
        <pt x="61" y="64" on="0"/>
        <pt x="45" y="64" on="1"/>
        <pt x="38" y="64" on="0"/>
        <pt x="26" y="54" on="0"/>
        <pt x="26" y="48" on="1"/>
        <pt x="26" y="40" on="1"/>
        <pt x="18" y="40" on="1"/>
        <pt x="8" y="40" on="0"/>
        <pt x="8" y="20" on="0"/>
        <pt x="18" y="20" on="1"/>
        <pt x="36" y="20" on="1"/>
        <pt x="36" y="12" on="1"/>
        <pt x="18" y="12" on="1"/>
        <pt x="0" y="12" on="0"/>
        <pt x="0" y="48" on="0"/>
        <pt x="18" y="48" on="1"/>
        <pt x="18" y="57" on="0"/>
        <pt x="34" y="72" on="0"/>
        <pt x="45" y="72" on="1"/>
        <pt x="55" y="72" on="0"/>
        <pt x="68" y="64" on="0"/>
        <pt x="72" y="56" on="0"/>
      </contour>
    </TTGlyph>
    <TTGlyph name="code" xMin="0" yMin="6" xMax="84" yMax="66">
      <contour>
        <pt x="57" y="66" on="1"/>
        <pt x="84" y="36" on="1"/>
        <pt x="57" y="6" on="1"/>
        <pt x="48" y="15" on="1"/>
        <pt x="69" y="36" on="1"/>
        <pt x="48" y="57" on="1"/>
      </contour>
      <contour>
        <pt x="27" y="66" on="1"/>
        <pt x="36" y="57" on="1"/>
        <pt x="15" y="36" on="1"/>
        <pt x="36" y="15" on="1"/>
        <pt x="27" y="6" on="1"/>
        <pt x="0" y="36" on="1"/>
      </contour>
    </TTGlyph>
    <TTGlyph name="comment" xMin="6" yMin="-3" xMax="90" yMax="78">
      <contour>
        <pt x="84" y="78" on="1"/>
        <pt x="90" y="78" on="0"/>
        <pt x="90" y="72" on="1"/>
        <pt x="90" y="24" on="1"/>
        <pt x="90" y="18" on="0"/>
        <pt x="84" y="18" on="1"/>
        <pt x="45" y="18" on="1"/>
        <pt x="24" y="-3" on="1"/>
        <pt x="24" y="18" on="1"/>
        <pt x="12" y="18" on="1"/>
        <pt x="6" y="18" on="0"/>
        <pt x="6" y="24" on="1"/>
        <pt x="6" y="72" on="1"/>
        <pt x="6" y="78" on="0"/>
        <pt x="12" y="78" on="1"/>
      </contour>
      <contour>
        <pt x="84" y="24" on="1"/>
        <pt x="84" y="72" on="1"/>
        <pt x="12" y="72" on="1"/>
        <pt x="12" y="24" on="1"/>
        <pt x="30" y="24" on="1"/>
        <pt x="30" y="12" on="1"/>
        <pt x="42" y="24" on="1"/>
      </contour>
    </TTGlyph>
    <TTGlyph name="comment-discussion" xMin="0" yMin="-6" xMax="96" yMax="78">
      <contour>
        <pt x="90" y="78" on="1"/>
        <pt x="96" y="78" on="0"/>
        <pt x="96" y="72" on="1"/>
        <pt x="96" y="36" on="1"/>
        <pt x="96" y="30" on="0"/>
        <pt x="90" y="30" on="1"/>
        <pt x="84" y="30" on="1"/>
        <pt x="84" y="12" on="1"/>
        <pt x="66" y="30" on="1"/>
        <pt x="60" y="30" on="1"/>
        <pt x="60" y="18" on="1"/>
        <pt x="60" y="12" on="0"/>
        <pt x="54" y="12" on="1"/>
        <pt x="30" y="12" on="1"/>
        <pt x="12" y="-6" on="1"/>
        <pt x="12" y="12" on="1"/>
        <pt x="6" y="12" on="1"/>
        <pt x="0" y="12" on="0"/>
        <pt x="0" y="18" on="1"/>
        <pt x="0" y="54" on="1"/>
        <pt x="0" y="60" on="0"/>
        <pt x="6" y="60" on="1"/>
        <pt x="30" y="60" on="1"/>
        <pt x="30" y="72" on="1"/>
        <pt x="30" y="78" on="0"/>
        <pt x="36" y="78" on="1"/>
      </contour>
      <contour>
        <pt x="54" y="18" on="1"/>
        <pt x="54" y="30" on="1"/>
        <pt x="36" y="30" on="1"/>
        <pt x="30" y="30" on="0"/>
        <pt x="30" y="36" on="1"/>
        <pt x="30" y="54" on="1"/>
        <pt x="6" y="54" on="1"/>
        <pt x="6" y="18" on="1"/>
        <pt x="18" y="18" on="1"/>
        <pt x="18" y="9" on="1"/>
        <pt x="27" y="18" on="1"/>
      </contour>
      <contour>
        <pt x="90" y="36" on="1"/>
        <pt x="90" y="72" on="1"/>
        <pt x="36" y="72" on="1"/>
        <pt x="36" y="36" on="1"/>
        <pt x="69" y="36" on="1"/>
        <pt x="78" y="27" on="1"/>
        <pt x="78" y="36" on="1"/>
      </contour>
    </TTGlyph>
    <TTGlyph name="credit-card" xMin="0" yMin="6" xMax="96" yMax="72">
      <contour>
        <pt x="72" y="30" on="1"/>
        <pt x="12" y="30" on="1"/>
        <pt x="12" y="36" on="1"/>
        <pt x="72" y="36" on="1"/>
      </contour>
      <contour>
        <pt x="96" y="66" on="1"/>
        <pt x="96" y="12" on="1"/>
        <pt x="96" y="6" on="0"/>
        <pt x="90" y="6" on="1"/>
        <pt x="6" y="6" on="1"/>
        <pt x="0" y="6" on="0"/>
        <pt x="0" y="12" on="1"/>
        <pt x="0" y="66" on="1"/>
        <pt x="0" y="72" on="0"/>
        <pt x="6" y="72" on="1"/>
        <pt x="90" y="72" on="1"/>
        <pt x="96" y="72" on="0"/>
      </contour>
      <contour>
        <pt x="90" y="48" on="1"/>
        <pt x="6" y="48" on="1"/>
        <pt x="6" y="12" on="1"/>
        <pt x="90" y="12" on="1"/>
      </contour>
      <contour>
        <pt x="90" y="66" on="1"/>
        <pt x="6" y="66" on="1"/>
        <pt x="6" y="60" on="1"/>
        <pt x="90" y="60" on="1"/>
      </contour>
      <contour>
        <pt x="36" y="24" on="1"/>
        <pt x="36" y="18" on="1"/>
        <pt x="12" y="18" on="1"/>
        <pt x="12" y="24" on="1"/>
      </contour>
    </TTGlyph>
    <TTGlyph name="dash" xMin="0" yMin="30" xMax="48" yMax="42">
      <contour>
        <pt x="0" y="42" on="1"/>
        <pt x="48" y="42" on="1"/>
        <pt x="48" y="30" on="1"/>
        <pt x="0" y="30" on="1"/>
      </contour>
    </TTGlyph>
    <TTGlyph name="dashboard" xMin="6" yMin="-12" xMax="96" yMax="78">
      <contour>
        <pt x="54" y="54" on="1"/>
        <pt x="48" y="54" on="1"/>
        <pt x="48" y="60" on="1"/>
        <pt x="54" y="60" on="1"/>
      </contour>
      <contour>
        <pt x="78" y="36" on="1"/>
        <pt x="78" y="30" on="1"/>
        <pt x="72" y="30" on="1"/>
        <pt x="72" y="36" on="1"/>
      </contour>
      <contour>
        <pt x="36" y="54" on="1"/>
        <pt x="36" y="48" on="1"/>
        <pt x="30" y="48" on="1"/>
        <pt x="30" y="54" on="1"/>
      </contour>
      <contour>
        <pt x="30" y="36" on="1"/>
        <pt x="30" y="30" on="1"/>
        <pt x="24" y="30" on="1"/>
        <pt x="24" y="36" on="1"/>
      </contour>
      <contour>
        <pt x="96" y="69" on="1"/>
        <pt x="60" y="36" on="1"/>
        <pt x="60" y="30" on="1"/>
        <pt x="60" y="24" on="0"/>
        <pt x="54" y="24" on="1"/>
        <pt x="48" y="24" on="1"/>
        <pt x="42" y="24" on="0"/>
        <pt x="42" y="30" on="1"/>
        <pt x="42" y="36" on="1"/>
        <pt x="42" y="42" on="0"/>
        <pt x="48" y="42" on="1"/>
        <pt x="54" y="42" on="1"/>
        <pt x="93" y="72" on="1"/>
      </contour>
      <contour>
        <pt x="86" y="44" on="1"/>
        <pt x="92" y="50" on="1"/>
        <pt x="96" y="42" on="0"/>
        <pt x="96" y="33" on="1"/>
        <pt x="96" y="14" on="0"/>
        <pt x="70" y="-12" on="0"/>
        <pt x="32" y="-12" on="0"/>
        <pt x="6" y="14" on="0"/>
        <pt x="6" y="33" on="1"/>
        <pt x="6" y="52" on="0"/>
        <pt x="32" y="78" on="0"/>
        <pt x="51" y="78" on="1"/>
        <pt x="65" y="78" on="0"/>
        <pt x="76" y="70" on="1"/>
        <pt x="71" y="65" on="1"/>
        <pt x="62" y="70" on="0"/>
        <pt x="51" y="70" on="1"/>
        <pt x="36" y="70" on="0"/>
        <pt x="14" y="48" on="0"/>
        <pt x="14" y="18" on="0"/>
        <pt x="36" y="-4" on="0"/>
        <pt x="51" y="-4" on="1"/>
        <pt x="61" y="-4" on="0"/>
        <pt x="78" y="6" on="0"/>
        <pt x="88" y="23" on="0"/>
        <pt x="88" y="33" on="1"/>
        <pt x="88" y="39" on="0"/>
      </contour>
    </TTGlyph>
    <TTGlyph name="database" xMin="0" yMin="-6" xMax="72" yMax="78">
      <contour>
        <pt x="72" y="-6" on="0"/>
        <pt x="0" y="-6" on="0"/>
        <pt x="0" y="6" on="1"/>
        <pt x="0" y="18" on="1"/>
        <pt x="0" y="19" on="0"/>
        <pt x="1" y="21" on="1"/>
        <pt x="8" y="12" on="0"/>
        <pt x="64" y="12" on="0"/>
        <pt x="71" y="21" on="1"/>
        <pt x="72" y="19" on="0"/>
        <pt x="72" y="18" on="1"/>
        <pt x="72" y="6" on="1"/>
      </contour>
      <contour>
        <pt x="72" y="18" on="0"/>
        <pt x="0" y="18" on="0"/>
        <pt x="0" y="30" on="1"/>
        <pt x="0" y="42" on="1"/>
        <pt x="0" y="43" on="0"/>
        <pt x="1" y="44" on="1"/>
        <pt x="1" y="45" on="0"/>
        <pt x="1" y="45" on="1"/>
        <pt x="8" y="36" on="0"/>
        <pt x="64" y="36" on="0"/>
        <pt x="71" y="45" on="1"/>
        <pt x="71" y="45" on="0"/>
        <pt x="71" y="44" on="1"/>
        <pt x="72" y="43" on="0"/>
        <pt x="72" y="42" on="1"/>
        <pt x="72" y="30" on="1"/>
      </contour>
      <contour>
        <pt x="72" y="42" on="0"/>
        <pt x="0" y="42" on="0"/>
        <pt x="0" y="54" on="1"/>
        <pt x="0" y="60" on="1"/>
        <pt x="0" y="66" on="1"/>
        <pt x="0" y="78" on="0"/>
        <pt x="72" y="78" on="0"/>
        <pt x="72" y="66" on="1"/>
        <pt x="72" y="60" on="1"/>
        <pt x="72" y="54" on="1"/>
      </contour>
      <contour>
        <pt x="60" y="72" on="0"/>
        <pt x="12" y="72" on="0"/>
        <pt x="12" y="60" on="0"/>
        <pt x="60" y="60" on="0"/>
      </contour>
    </TTGlyph>
    <TTGlyph name="desktop-download" xMin="0" yMin="-6" xMax="96" yMax="84">
      <contour>
        <pt x="24" y="48" on="1"/>
        <pt x="42" y="48" on="1"/>
        <pt x="42" y="84" on="1"/>
        <pt x="54" y="84" on="1"/>
        <pt x="54" y="48" on="1"/>
        <pt x="72" y="48" on="1"/>
        <pt x="48" y="24" on="1"/>
      </contour>
      <contour>
        <pt x="90" y="72" on="1"/>
        <pt x="96" y="72" on="0"/>
        <pt x="96" y="66" on="1"/>
        <pt x="96" y="12" on="1"/>
        <pt x="96" y="6" on="0"/>
        <pt x="90" y="6" on="1"/>
        <pt x="58" y="6" on="1"/>
        <pt x="61" y="-1" on="0"/>
        <pt x="72" y="-6" on="1"/>
        <pt x="24" y="-6" on="1"/>
        <pt x="35" y="-1" on="0"/>
        <pt x="38" y="6" on="1"/>
        <pt x="6" y="6" on="1"/>
        <pt x="0" y="6" on="0"/>
        <pt x="0" y="12" on="1"/>
        <pt x="0" y="66" on="1"/>
        <pt x="0" y="72" on="0"/>
        <pt x="6" y="72" on="1"/>
        <pt x="30" y="72" on="1"/>
        <pt x="30" y="66" on="1"/>
        <pt x="6" y="66" on="1"/>
        <pt x="6" y="18" on="1"/>
        <pt x="90" y="18" on="1"/>
        <pt x="90" y="66" on="1"/>
        <pt x="66" y="66" on="1"/>
        <pt x="66" y="72" on="1"/>
      </contour>
    </TTGlyph>
    <TTGlyph name="device-camera" xMin="0" yMin="0" xMax="96" yMax="72">
      <contour>
        <pt x="90" y="66" on="1"/>
        <pt x="96" y="66" on="0"/>
        <pt x="96" y="60" on="1"/>
        <pt x="96" y="6" on="1"/>
        <pt x="96" y="0" on="0"/>
        <pt x="90" y="0" on="1"/>
        <pt x="6" y="0" on="1"/>
        <pt x="0" y="0" on="0"/>
        <pt x="0" y="6" on="1"/>
        <pt x="0" y="60" on="1"/>
        <pt x="0" y="66" on="0"/>
        <pt x="6" y="66" on="1"/>
        <pt x="6" y="72" on="0"/>
        <pt x="12" y="72" on="1"/>
        <pt x="36" y="72" on="1"/>
        <pt x="42" y="72" on="0"/>
        <pt x="42" y="66" on="1"/>
      </contour>
      <contour>
        <pt x="36" y="54" on="1"/>
        <pt x="36" y="60" on="1"/>
        <pt x="12" y="60" on="1"/>
        <pt x="12" y="54" on="1"/>
      </contour>
      <contour>
        <pt x="54" y="12" on="0"/>
        <pt x="72" y="12" on="0"/>
        <pt x="84" y="24" on="0"/>
        <pt x="84" y="42" on="0"/>
        <pt x="72" y="54" on="0"/>
        <pt x="54" y="54" on="0"/>
        <pt x="42" y="42" on="0"/>
        <pt x="42" y="24" on="0"/>
      </contour>
      <contour>
        <pt x="78" y="33" on="1"/>
        <pt x="78" y="18" on="0"/>
        <pt x="63" y="18" on="1"/>
        <pt x="57" y="18" on="0"/>
        <pt x="48" y="27" on="0"/>
        <pt x="48" y="39" on="0"/>
        <pt x="57" y="48" on="0"/>
        <pt x="69" y="48" on="0"/>
        <pt x="78" y="39" on="0"/>
      </contour>
    </TTGlyph>
    <TTGlyph name="device-camera-video" xMin="0" yMin="5" xMax="96" yMax="73">
      <contour>
        <pt x="91" y="71" on="1"/>
        <pt x="93" y="73" on="0"/>
        <pt x="96" y="71" on="0"/>
        <pt x="96" y="69" on="1"/>
        <pt x="96" y="9" on="1"/>
        <pt x="96" y="7" on="0"/>
        <pt x="93" y="5" on="0"/>
        <pt x="91" y="7" on="1"/>
        <pt x="60" y="28" on="1"/>
        <pt x="60" y="12" on="1"/>
        <pt x="60" y="6" on="0"/>
        <pt x="54" y="6" on="1"/>
        <pt x="6" y="6" on="1"/>
        <pt x="0" y="6" on="0"/>
        <pt x="0" y="12" on="1"/>
        <pt x="0" y="66" on="1"/>
        <pt x="0" y="72" on="0"/>
        <pt x="6" y="72" on="1"/>
        <pt x="54" y="72" on="1"/>
        <pt x="60" y="72" on="0"/>
        <pt x="60" y="66" on="1"/>
        <pt x="60" y="50" on="1"/>
      </contour>
    </TTGlyph>
    <TTGlyph name="device-desktop" xMin="0" yMin="-6" xMax="96" yMax="72">
      <contour>
        <pt x="90" y="72" on="1"/>
        <pt x="96" y="72" on="0"/>
        <pt x="96" y="66" on="1"/>
        <pt x="96" y="12" on="1"/>
        <pt x="96" y="6" on="0"/>
        <pt x="90" y="6" on="1"/>
        <pt x="58" y="6" on="1"/>
        <pt x="61" y="-1" on="0"/>
        <pt x="72" y="-6" on="1"/>
        <pt x="24" y="-6" on="1"/>
        <pt x="35" y="-1" on="0"/>
        <pt x="38" y="6" on="1"/>
        <pt x="6" y="6" on="1"/>
        <pt x="0" y="6" on="0"/>
        <pt x="0" y="12" on="1"/>
        <pt x="0" y="66" on="1"/>
        <pt x="0" y="72" on="0"/>
        <pt x="6" y="72" on="1"/>
      </contour>
      <contour>
        <pt x="90" y="18" on="1"/>
        <pt x="90" y="66" on="1"/>
        <pt x="6" y="66" on="1"/>
        <pt x="6" y="18" on="1"/>
      </contour>
    </TTGlyph>
    <TTGlyph name="device-mobile" xMin="0" yMin="-12" xMax="60" yMax="84">
      <contour>
        <pt x="54" y="84" on="1"/>
        <pt x="60" y="84" on="0"/>
        <pt x="60" y="78" on="1"/>
        <pt x="60" y="-6" on="1"/>
        <pt x="60" y="-12" on="0"/>
        <pt x="54" y="-12" on="1"/>
        <pt x="6" y="-12" on="1"/>
        <pt x="0" y="-12" on="0"/>
        <pt x="0" y="-6" on="1"/>
        <pt x="0" y="78" on="1"/>
        <pt x="0" y="84" on="0"/>
        <pt x="6" y="84" on="1"/>
      </contour>
      <contour>
        <pt x="22" y="-8" on="0"/>
        <pt x="38" y="-8" on="0"/>
        <pt x="38" y="8" on="0"/>
        <pt x="22" y="8" on="0"/>
      </contour>
      <contour>
        <pt x="54" y="12" on="1"/>
        <pt x="54" y="72" on="1"/>
        <pt x="6" y="72" on="1"/>
        <pt x="6" y="12" on="1"/>
      </contour>
    </TTGlyph>
    <TTGlyph name="diff" xMin="0" yMin="-12" xMax="78" yMax="84">
      <contour>
        <pt x="36" y="42" on="1"/>
        <pt x="48" y="42" on="1"/>
        <pt x="48" y="36" on="1"/>
        <pt x="36" y="36" on="1"/>
        <pt x="36" y="24" on="1"/>
        <pt x="30" y="24" on="1"/>
        <pt x="30" y="36" on="1"/>
        <pt x="18" y="36" on="1"/>
        <pt x="18" y="42" on="1"/>
        <pt x="30" y="42" on="1"/>
        <pt x="30" y="54" on="1"/>
        <pt x="36" y="54" on="1"/>
      </contour>
      <contour>
        <pt x="18" y="6" on="1"/>
        <pt x="18" y="12" on="1"/>
        <pt x="48" y="12" on="1"/>
        <pt x="48" y="6" on="1"/>
      </contour>
      <contour>
        <pt x="45" y="72" on="1"/>
        <pt x="66" y="51" on="1"/>
        <pt x="66" y="-6" on="1"/>
        <pt x="66" y="-12" on="0"/>
        <pt x="60" y="-12" on="1"/>
        <pt x="6" y="-12" on="1"/>
        <pt x="0" y="-12" on="0"/>
        <pt x="0" y="-6" on="1"/>
        <pt x="0" y="66" on="1"/>
        <pt x="0" y="72" on="0"/>
        <pt x="6" y="72" on="1"/>
      </contour>
      <contour>
        <pt x="60" y="48" on="1"/>
        <pt x="42" y="66" on="1"/>
        <pt x="6" y="66" on="1"/>
        <pt x="6" y="-6" on="1"/>
        <pt x="60" y="-6" on="1"/>
      </contour>
      <contour>
        <pt x="51" y="84" on="1"/>
        <pt x="78" y="57" on="1"/>
        <pt x="78" y="6" on="1"/>
        <pt x="72" y="6" on="1"/>
        <pt x="72" y="54" on="1"/>
        <pt x="48" y="78" on="1"/>
        <pt x="18" y="78" on="1"/>
        <pt x="18" y="84" on="1"/>
      </contour>
    </TTGlyph>
    <TTGlyph name="diff-added" xMin="0" yMin="-6" xMax="84" yMax="78">
      <contour>
        <pt x="78" y="78" on="1"/>
        <pt x="84" y="78" on="0"/>
        <pt x="84" y="72" on="1"/>
        <pt x="84" y="0" on="1"/>
        <pt x="84" y="-6" on="0"/>
        <pt x="78" y="-6" on="1"/>
        <pt x="6" y="-6" on="1"/>
        <pt x="0" y="-6" on="0"/>
        <pt x="0" y="0" on="1"/>
        <pt x="0" y="72" on="1"/>
        <pt x="0" y="78" on="0"/>
        <pt x="6" y="78" on="1"/>
      </contour>
      <contour>
        <pt x="78" y="0" on="1"/>
        <pt x="78" y="72" on="1"/>
        <pt x="6" y="72" on="1"/>
        <pt x="6" y="0" on="1"/>
      </contour>
      <contour>
        <pt x="36" y="30" on="1"/>
        <pt x="18" y="30" on="1"/>
        <pt x="18" y="42" on="1"/>
        <pt x="36" y="42" on="1"/>
        <pt x="36" y="60" on="1"/>
        <pt x="48" y="60" on="1"/>
        <pt x="48" y="42" on="1"/>
        <pt x="66" y="42" on="1"/>
        <pt x="66" y="30" on="1"/>
        <pt x="48" y="30" on="1"/>
        <pt x="48" y="12" on="1"/>
        <pt x="36" y="12" on="1"/>
      </contour>
    </TTGlyph>
    <TTGlyph name="diff-ignored" xMin="0" yMin="-6" xMax="84" yMax="78">
      <contour>
        <pt x="78" y="78" on="1"/>
        <pt x="84" y="78" on="0"/>
        <pt x="84" y="72" on="1"/>
        <pt x="84" y="0" on="1"/>
        <pt x="84" y="-6" on="0"/>
        <pt x="78" y="-6" on="1"/>
        <pt x="6" y="-6" on="1"/>
        <pt x="0" y="-6" on="0"/>
        <pt x="0" y="0" on="1"/>
        <pt x="0" y="72" on="1"/>
        <pt x="0" y="78" on="0"/>
        <pt x="6" y="78" on="1"/>
      </contour>
      <contour>
        <pt x="78" y="0" on="1"/>
        <pt x="78" y="72" on="1"/>
        <pt x="6" y="72" on="1"/>
        <pt x="6" y="0" on="1"/>
      </contour>
      <contour>
        <pt x="27" y="12" on="1"/>
        <pt x="18" y="12" on="1"/>
        <pt x="18" y="21" on="1"/>
        <pt x="57" y="60" on="1"/>
        <pt x="66" y="60" on="1"/>
        <pt x="66" y="51" on="1"/>
      </contour>
    </TTGlyph>
    <TTGlyph name="diff-modified" xMin="0" yMin="-6" xMax="84" yMax="78">
      <contour>
        <pt x="78" y="78" on="1"/>
        <pt x="84" y="78" on="0"/>
        <pt x="84" y="72" on="1"/>
        <pt x="84" y="0" on="1"/>
        <pt x="84" y="-6" on="0"/>
        <pt x="78" y="-6" on="1"/>
        <pt x="6" y="-6" on="1"/>
        <pt x="0" y="-6" on="0"/>
        <pt x="0" y="0" on="1"/>
        <pt x="0" y="72" on="1"/>
        <pt x="0" y="78" on="0"/>
        <pt x="6" y="78" on="1"/>
      </contour>
      <contour>
        <pt x="78" y="0" on="1"/>
        <pt x="78" y="72" on="1"/>
        <pt x="6" y="72" on="1"/>
        <pt x="6" y="0" on="1"/>
      </contour>
      <contour>
        <pt x="24" y="29" on="0"/>
        <pt x="24" y="43" on="0"/>
        <pt x="35" y="54" on="0"/>
        <pt x="49" y="54" on="0"/>
        <pt x="60" y="43" on="0"/>
        <pt x="60" y="29" on="0"/>
        <pt x="49" y="18" on="0"/>
        <pt x="35" y="18" on="0"/>
      </contour>
    </TTGlyph>
    <TTGlyph name="diff-removed" xMin="0" yMin="-6" xMax="84" yMax="78">
      <contour>
        <pt x="78" y="78" on="1"/>
        <pt x="84" y="78" on="0"/>
        <pt x="84" y="72" on="1"/>
        <pt x="84" y="0" on="1"/>
        <pt x="84" y="-6" on="0"/>
        <pt x="78" y="-6" on="1"/>
        <pt x="6" y="-6" on="1"/>
        <pt x="0" y="-6" on="0"/>
        <pt x="0" y="0" on="1"/>
        <pt x="0" y="72" on="1"/>
        <pt x="0" y="78" on="0"/>
        <pt x="6" y="78" on="1"/>
      </contour>
      <contour>
        <pt x="78" y="0" on="1"/>
        <pt x="78" y="72" on="1"/>
        <pt x="6" y="72" on="1"/>
        <pt x="6" y="0" on="1"/>
      </contour>
      <contour>
        <pt x="66" y="30" on="1"/>
        <pt x="18" y="30" on="1"/>
        <pt x="18" y="42" on="1"/>
        <pt x="66" y="42" on="1"/>
      </contour>
    </TTGlyph>
    <TTGlyph name="diff-renamed" xMin="0" yMin="-6" xMax="84" yMax="78">
      <contour>
        <pt x="36" y="30" on="1"/>
        <pt x="18" y="30" on="1"/>
        <pt x="18" y="42" on="1"/>
        <pt x="36" y="42" on="1"/>
        <pt x="36" y="60" on="1"/>
        <pt x="66" y="36" on="1"/>
        <pt x="36" y="12" on="1"/>
      </contour>
      <contour>
        <pt x="84" y="72" on="1"/>
        <pt x="84" y="0" on="1"/>
        <pt x="84" y="-6" on="0"/>
        <pt x="78" y="-6" on="1"/>
        <pt x="6" y="-6" on="1"/>
        <pt x="0" y="-6" on="0"/>
        <pt x="0" y="0" on="1"/>
        <pt x="0" y="72" on="1"/>
        <pt x="0" y="78" on="0"/>
        <pt x="6" y="78" on="1"/>
        <pt x="78" y="78" on="1"/>
        <pt x="84" y="78" on="0"/>
      </contour>
      <contour>
        <pt x="78" y="72" on="1"/>
        <pt x="6" y="72" on="1"/>
        <pt x="6" y="0" on="1"/>
        <pt x="78" y="0" on="1"/>
      </contour>
    </TTGlyph>
    <TTGlyph name="ellipses" xMin="0" yMin="18" xMax="72" yMax="54">
      <contour>
        <pt x="66" y="54" on="1"/>
        <pt x="72" y="54" on="0"/>
        <pt x="72" y="48" on="1"/>
        <pt x="72" y="24" on="1"/>
        <pt x="72" y="18" on="0"/>
        <pt x="66" y="18" on="1"/>
        <pt x="6" y="18" on="1"/>
        <pt x="0" y="18" on="0"/>
        <pt x="0" y="24" on="1"/>
        <pt x="0" y="48" on="1"/>
        <pt x="0" y="54" on="0"/>
        <pt x="6" y="54" on="1"/>
      </contour>
      <contour>
        <pt x="24" y="30" on="1"/>
        <pt x="24" y="42" on="1"/>
        <pt x="12" y="42" on="1"/>
        <pt x="12" y="30" on="1"/>
      </contour>
      <contour>
        <pt x="42" y="30" on="1"/>
        <pt x="42" y="42" on="1"/>
        <pt x="30" y="42" on="1"/>
        <pt x="30" y="30" on="1"/>
      </contour>
      <contour>
        <pt x="60" y="30" on="1"/>
        <pt x="60" y="42" on="1"/>
        <pt x="48" y="42" on="1"/>
        <pt x="48" y="30" on="1"/>
      </contour>
    </TTGlyph>
    <TTGlyph name="ellipsis" xMin="0" yMin="18" xMax="72" yMax="54">
      <contour>
        <pt x="66" y="54" on="1"/>
        <pt x="72" y="54" on="0"/>
        <pt x="72" y="48" on="1"/>
        <pt x="72" y="24" on="1"/>
        <pt x="72" y="18" on="0"/>
        <pt x="66" y="18" on="1"/>
        <pt x="6" y="18" on="1"/>
        <pt x="0" y="18" on="0"/>
        <pt x="0" y="24" on="1"/>
        <pt x="0" y="48" on="1"/>
        <pt x="0" y="54" on="0"/>
        <pt x="6" y="54" on="1"/>
      </contour>
      <contour>
        <pt x="24" y="30" on="1"/>
        <pt x="24" y="42" on="1"/>
        <pt x="12" y="42" on="1"/>
        <pt x="12" y="30" on="1"/>
      </contour>
      <contour>
        <pt x="42" y="30" on="1"/>
        <pt x="42" y="42" on="1"/>
        <pt x="30" y="42" on="1"/>
        <pt x="30" y="30" on="1"/>
      </contour>
      <contour>
        <pt x="60" y="30" on="1"/>
        <pt x="60" y="42" on="1"/>
        <pt x="48" y="42" on="1"/>
        <pt x="48" y="30" on="1"/>
      </contour>
    </TTGlyph>
    <TTGlyph name="eye" xMin="0" yMin="0" xMax="96" yMax="72">
      <contour>
        <pt x="48" y="72" on="1"/>
        <pt x="57" y="72" on="0"/>
        <pt x="73" y="65" on="0"/>
        <pt x="83" y="54" on="0"/>
        <pt x="92" y="43" on="0"/>
        <pt x="94" y="40" on="1"/>
        <pt x="96" y="36" on="1"/>
        <pt x="94" y="32" on="0"/>
        <pt x="86" y="20" on="0"/>
        <pt x="62" y="0" on="0"/>
        <pt x="48" y="0" on="1"/>
        <pt x="40" y="0" on="0"/>
        <pt x="24" y="7" on="0"/>
        <pt x="13" y="18" on="0"/>
        <pt x="4" y="29" on="0"/>
        <pt x="2" y="32" on="1"/>
        <pt x="0" y="36" on="1"/>
        <pt x="2" y="40" on="0"/>
        <pt x="10" y="52" on="0"/>
        <pt x="35" y="72" on="0"/>
      </contour>
      <contour>
        <pt x="38" y="12" on="0"/>
        <pt x="58" y="12" on="0"/>
        <pt x="72" y="26" on="0"/>
        <pt x="72" y="46" on="0"/>
        <pt x="58" y="60" on="0"/>
        <pt x="38" y="60" on="0"/>
        <pt x="24" y="46" on="0"/>
        <pt x="24" y="26" on="0"/>
      </contour>
      <contour>
        <pt x="60" y="48" on="0"/>
        <pt x="60" y="24" on="0"/>
        <pt x="36" y="24" on="0"/>
        <pt x="36" y="48" on="0"/>
      </contour>
    </TTGlyph>
    <TTGlyph name="file" xMin="0" yMin="-6" xMax="72" yMax="78">
      <contour>
        <pt x="36" y="54" on="1"/>
        <pt x="12" y="54" on="1"/>
        <pt x="12" y="60" on="1"/>
        <pt x="36" y="60" on="1"/>
      </contour>
      <contour>
        <pt x="12" y="36" on="1"/>
        <pt x="12" y="42" on="1"/>
        <pt x="54" y="42" on="1"/>
        <pt x="54" y="36" on="1"/>
      </contour>
      <contour>
        <pt x="12" y="24" on="1"/>
        <pt x="12" y="30" on="1"/>
        <pt x="54" y="30" on="1"/>
        <pt x="54" y="24" on="1"/>
      </contour>
      <contour>
        <pt x="12" y="12" on="1"/>
        <pt x="12" y="18" on="1"/>
        <pt x="54" y="18" on="1"/>
        <pt x="54" y="12" on="1"/>
      </contour>
      <contour>
        <pt x="72" y="57" on="1"/>
        <pt x="72" y="0" on="1"/>
        <pt x="72" y="-6" on="0"/>
        <pt x="66" y="-6" on="1"/>
        <pt x="6" y="-6" on="1"/>
        <pt x="0" y="-6" on="0"/>
        <pt x="0" y="0" on="1"/>
        <pt x="0" y="72" on="1"/>
        <pt x="0" y="78" on="0"/>
        <pt x="6" y="78" on="1"/>
        <pt x="51" y="78" on="1"/>
      </contour>
      <contour>
        <pt x="66" y="54" on="1"/>
        <pt x="48" y="72" on="1"/>
        <pt x="6" y="72" on="1"/>
        <pt x="6" y="0" on="1"/>
        <pt x="66" y="0" on="1"/>
      </contour>
    </TTGlyph>
    <TTGlyph name="file-binary" xMin="0" yMin="-6" xMax="72" yMax="78">
      <contour>
        <pt x="24" y="12" on="1"/>
        <pt x="30" y="12" on="1"/>
        <pt x="30" y="6" on="1"/>
        <pt x="12" y="6" on="1"/>
        <pt x="12" y="12" on="1"/>
        <pt x="18" y="12" on="1"/>
        <pt x="18" y="24" on="1"/>
        <pt x="12" y="24" on="1"/>
        <pt x="12" y="30" on="1"/>
        <pt x="24" y="30" on="1"/>
      </contour>
      <contour>
        <pt x="72" y="57" on="1"/>
        <pt x="72" y="0" on="1"/>
        <pt x="72" y="-6" on="0"/>
        <pt x="66" y="-6" on="1"/>
        <pt x="6" y="-6" on="1"/>
        <pt x="0" y="-6" on="0"/>
        <pt x="0" y="0" on="1"/>
        <pt x="0" y="72" on="1"/>
        <pt x="0" y="78" on="0"/>
        <pt x="6" y="78" on="1"/>
        <pt x="51" y="78" on="1"/>
      </contour>
      <contour>
        <pt x="66" y="54" on="1"/>
        <pt x="48" y="72" on="1"/>
        <pt x="6" y="72" on="1"/>
        <pt x="6" y="0" on="1"/>
        <pt x="66" y="0" on="1"/>
      </contour>
      <contour>
        <pt x="48" y="60" on="1"/>
        <pt x="48" y="42" on="1"/>
        <pt x="54" y="42" on="1"/>
        <pt x="54" y="36" on="1"/>
        <pt x="36" y="36" on="1"/>
        <pt x="36" y="42" on="1"/>
        <pt x="42" y="42" on="1"/>
        <pt x="42" y="54" on="1"/>
        <pt x="36" y="54" on="1"/>
        <pt x="36" y="60" on="1"/>
      </contour>
      <contour>
        <pt x="12" y="60" on="1"/>
        <pt x="30" y="60" on="1"/>
        <pt x="30" y="36" on="1"/>
        <pt x="12" y="36" on="1"/>
      </contour>
      <contour>
        <pt x="18" y="42" on="1"/>
        <pt x="24" y="42" on="1"/>
        <pt x="24" y="54" on="1"/>
        <pt x="18" y="54" on="1"/>
      </contour>
      <contour>
        <pt x="36" y="30" on="1"/>
        <pt x="54" y="30" on="1"/>
        <pt x="54" y="6" on="1"/>
        <pt x="36" y="6" on="1"/>
      </contour>
      <contour>
        <pt x="42" y="12" on="1"/>
        <pt x="48" y="12" on="1"/>
        <pt x="48" y="24" on="1"/>
        <pt x="42" y="24" on="1"/>
      </contour>
    </TTGlyph>
    <TTGlyph name="file-code" xMin="0" yMin="-6" xMax="72" yMax="78">
      <contour>
        <pt x="51" y="78" on="1"/>
        <pt x="72" y="57" on="1"/>
        <pt x="72" y="0" on="1"/>
        <pt x="72" y="-6" on="0"/>
        <pt x="66" y="-6" on="1"/>
        <pt x="6" y="-6" on="1"/>
        <pt x="0" y="-6" on="0"/>
        <pt x="0" y="0" on="1"/>
        <pt x="0" y="72" on="1"/>
        <pt x="0" y="78" on="0"/>
        <pt x="6" y="78" on="1"/>
      </contour>
      <contour>
        <pt x="66" y="0" on="1"/>
        <pt x="66" y="54" on="1"/>
        <pt x="48" y="72" on="1"/>
        <pt x="6" y="72" on="1"/>
        <pt x="6" y="0" on="1"/>
      </contour>
      <contour>
        <pt x="30" y="42" on="1"/>
        <pt x="21" y="33" on="1"/>
        <pt x="30" y="24" on="1"/>
        <pt x="27" y="18" on="1"/>
        <pt x="12" y="33" on="1"/>
        <pt x="27" y="48" on="1"/>
      </contour>
      <contour>
        <pt x="45" y="48" on="1"/>
        <pt x="60" y="33" on="1"/>
        <pt x="45" y="18" on="1"/>
        <pt x="42" y="24" on="1"/>
        <pt x="51" y="33" on="1"/>
        <pt x="42" y="42" on="1"/>
      </contour>
    </TTGlyph>
    <TTGlyph name="file-directory" xMin="0" yMin="0" xMax="84" yMax="72">
      <contour>
        <pt x="78" y="60" on="1"/>
        <pt x="84" y="60" on="0"/>
        <pt x="84" y="54" on="1"/>
        <pt x="84" y="6" on="1"/>
        <pt x="84" y="0" on="0"/>
        <pt x="78" y="0" on="1"/>
        <pt x="6" y="0" on="1"/>
        <pt x="0" y="0" on="0"/>
        <pt x="0" y="6" on="1"/>
        <pt x="0" y="66" on="1"/>
        <pt x="0" y="72" on="0"/>
        <pt x="6" y="72" on="1"/>
        <pt x="36" y="72" on="1"/>
        <pt x="42" y="72" on="0"/>
        <pt x="42" y="66" on="1"/>
        <pt x="42" y="60" on="1"/>
      </contour>
      <contour>
        <pt x="36" y="60" on="1"/>
        <pt x="36" y="66" on="1"/>
        <pt x="6" y="66" on="1"/>
        <pt x="6" y="60" on="1"/>
      </contour>
    </TTGlyph>
    <TTGlyph name="file-media" xMin="0" yMin="-6" xMax="72" yMax="78">
      <contour>
        <pt x="36" y="54" on="1"/>
        <pt x="48" y="54" on="1"/>
        <pt x="48" y="42" on="1"/>
        <pt x="36" y="42" on="1"/>
      </contour>
      <contour>
        <pt x="72" y="57" on="1"/>
        <pt x="72" y="0" on="1"/>
        <pt x="72" y="-6" on="0"/>
        <pt x="66" y="-6" on="1"/>
        <pt x="6" y="-6" on="1"/>
        <pt x="0" y="-6" on="0"/>
        <pt x="0" y="0" on="1"/>
        <pt x="0" y="72" on="1"/>
        <pt x="0" y="78" on="0"/>
        <pt x="6" y="78" on="1"/>
        <pt x="51" y="78" on="1"/>
      </contour>
      <contour>
        <pt x="66" y="54" on="1"/>
        <pt x="48" y="72" on="1"/>
        <pt x="6" y="72" on="1"/>
        <pt x="6" y="6" on="1"/>
        <pt x="24" y="36" on="1"/>
        <pt x="36" y="12" on="1"/>
        <pt x="48" y="24" on="1"/>
        <pt x="66" y="6" on="1"/>
      </contour>
    </TTGlyph>
    <TTGlyph name="file-pdf" xMin="0" yMin="-6" xMax="72" yMax="78">
      <contour>
        <pt x="51" y="78" on="1"/>
        <pt x="72" y="57" on="1"/>
        <pt x="72" y="0" on="1"/>
        <pt x="72" y="-6" on="0"/>
        <pt x="66" y="-6" on="1"/>
        <pt x="6" y="-6" on="1"/>
        <pt x="0" y="-6" on="0"/>
        <pt x="0" y="0" on="1"/>
        <pt x="0" y="72" on="1"/>
        <pt x="0" y="78" on="0"/>
        <pt x="6" y="78" on="1"/>
      </contour>
      <contour>
        <pt x="6" y="72" on="1"/>
        <pt x="6" y="16" on="1"/>
        <pt x="9" y="18" on="0"/>
        <pt x="12" y="20" on="1"/>
        <pt x="14" y="21" on="0"/>
        <pt x="16" y="21" on="1"/>
        <pt x="16" y="22" on="0"/>
        <pt x="18" y="25" on="0"/>
        <pt x="20" y="30" on="0"/>
        <pt x="22" y="32" on="1"/>
        <pt x="25" y="40" on="0"/>
        <pt x="28" y="48" on="1"/>
        <pt x="27" y="54" on="0"/>
        <pt x="26" y="59" on="1"/>
        <pt x="26" y="64" on="0"/>
        <pt x="27" y="68" on="1"/>
        <pt x="27" y="70" on="0"/>
        <pt x="28" y="71" on="1"/>
        <pt x="29" y="72" on="0"/>
        <pt x="30" y="72" on="1"/>
      </contour>
      <contour>
        <pt x="33" y="43" on="1"/>
        <pt x="33" y="43" on="1"/>
        <pt x="30" y="36" on="0"/>
        <pt x="27" y="29" on="1"/>
        <pt x="24" y="22" on="0"/>
        <pt x="23" y="22" on="1"/>
        <pt x="29" y="24" on="0"/>
        <pt x="40" y="27" on="0"/>
        <pt x="45" y="27" on="1"/>
        <pt x="42" y="29" on="0"/>
        <pt x="40" y="31" on="1"/>
        <pt x="35" y="36" on="0"/>
      </contour>
      <contour>
        <pt x="66" y="0" on="1"/>
        <pt x="66" y="0" on="1"/>
        <pt x="66" y="18" on="1"/>
        <pt x="64" y="18" on="1"/>
        <pt x="60" y="19" on="0"/>
        <pt x="56" y="20" on="1"/>
        <pt x="52" y="21" on="0"/>
        <pt x="48" y="23" on="1"/>
        <pt x="43" y="22" on="0"/>
        <pt x="39" y="22" on="1"/>
        <pt x="33" y="20" on="0"/>
        <pt x="30" y="20" on="1"/>
        <pt x="28" y="19" on="1"/>
        <pt x="25" y="18" on="0"/>
        <pt x="23" y="17" on="1"/>
        <pt x="19" y="9" on="0"/>
        <pt x="12" y="3" on="1"/>
        <pt x="10" y="1" on="0"/>
        <pt x="8" y="0" on="1"/>
        <pt x="8" y="0" on="0"/>
        <pt x="9" y="0" on="1"/>
      </contour>
      <contour>
        <pt x="66" y="29" on="1"/>
        <pt x="66" y="29" on="1"/>
        <pt x="66" y="54" on="1"/>
        <pt x="48" y="72" on="1"/>
        <pt x="33" y="72" on="1"/>
        <pt x="35" y="72" on="0"/>
        <pt x="37" y="71" on="1"/>
        <pt x="38" y="68" on="0"/>
        <pt x="38" y="65" on="1"/>
        <pt x="38" y="63" on="0"/>
        <pt x="38" y="61" on="1"/>
        <pt x="38" y="55" on="0"/>
        <pt x="37" y="49" on="1"/>
        <pt x="39" y="41" on="0"/>
        <pt x="44" y="35" on="1"/>
        <pt x="47" y="32" on="0"/>
        <pt x="50" y="31" on="1"/>
        <pt x="54" y="31" on="0"/>
        <pt x="58" y="32" on="1"/>
        <pt x="60" y="31" on="0"/>
        <pt x="62" y="31" on="1"/>
        <pt x="64" y="30" on="0"/>
      </contour>
    </TTGlyph>
    <TTGlyph name="file-submodule" xMin="0" yMin="0" xMax="84" yMax="72">
      <contour>
        <pt x="60" y="42" on="1"/>
        <pt x="60" y="36" on="1"/>
        <pt x="84" y="36" on="1"/>
        <pt x="84" y="6" on="1"/>
        <pt x="84" y="0" on="0"/>
        <pt x="78" y="0" on="1"/>
        <pt x="24" y="0" on="1"/>
        <pt x="24" y="42" on="1"/>
      </contour>
      <contour>
        <pt x="54" y="30" on="1"/>
        <pt x="54" y="36" on="1"/>
        <pt x="30" y="36" on="1"/>
        <pt x="30" y="30" on="1"/>
      </contour>
      <contour>
        <pt x="78" y="60" on="1"/>
        <pt x="84" y="60" on="0"/>
        <pt x="84" y="54" on="1"/>
        <pt x="84" y="42" on="1"/>
        <pt x="66" y="42" on="1"/>
        <pt x="66" y="48" on="0"/>
        <pt x="60" y="48" on="1"/>
        <pt x="24" y="48" on="1"/>
        <pt x="18" y="48" on="0"/>
        <pt x="18" y="42" on="1"/>
        <pt x="18" y="0" on="1"/>
        <pt x="6" y="0" on="1"/>
        <pt x="0" y="0" on="0"/>
        <pt x="0" y="6" on="1"/>
        <pt x="0" y="66" on="1"/>
        <pt x="0" y="72" on="0"/>
        <pt x="6" y="72" on="1"/>
        <pt x="36" y="72" on="1"/>
        <pt x="42" y="72" on="0"/>
        <pt x="42" y="66" on="1"/>
        <pt x="42" y="60" on="1"/>
      </contour>
      <contour>
        <pt x="36" y="60" on="1"/>
        <pt x="36" y="66" on="1"/>
        <pt x="6" y="66" on="1"/>
        <pt x="6" y="60" on="1"/>
      </contour>
    </TTGlyph>
    <TTGlyph name="file-symlink-directory" xMin="0" yMin="0" xMax="84" yMax="72">
      <contour>
        <pt x="78" y="60" on="1"/>
        <pt x="84" y="60" on="0"/>
        <pt x="84" y="54" on="1"/>
        <pt x="84" y="6" on="1"/>
        <pt x="84" y="0" on="0"/>
        <pt x="78" y="0" on="1"/>
        <pt x="6" y="0" on="1"/>
        <pt x="0" y="0" on="0"/>
        <pt x="0" y="6" on="1"/>
        <pt x="0" y="66" on="1"/>
        <pt x="0" y="72" on="0"/>
        <pt x="6" y="72" on="1"/>
        <pt x="36" y="72" on="1"/>
        <pt x="42" y="72" on="0"/>
        <pt x="42" y="66" on="1"/>
        <pt x="42" y="60" on="1"/>
      </contour>
      <contour>
        <pt x="6" y="66" on="1"/>
        <pt x="6" y="60" on="1"/>
        <pt x="36" y="60" on="1"/>
        <pt x="36" y="66" on="1"/>
      </contour>
      <contour>
        <pt x="42" y="12" on="1"/>
        <pt x="66" y="30" on="1"/>
        <pt x="42" y="48" on="1"/>
        <pt x="42" y="36" on="1"/>
        <pt x="31" y="36" on="0"/>
        <pt x="18" y="21" on="0"/>
        <pt x="18" y="6" on="1"/>
        <pt x="20" y="16" on="0"/>
        <pt x="33" y="24" on="0"/>
        <pt x="42" y="24" on="1"/>
      </contour>
    </TTGlyph>
    <TTGlyph name="file-symlink-file" xMin="0" yMin="-6" xMax="72" yMax="78">
      <contour>
        <pt x="51" y="78" on="1"/>
        <pt x="72" y="57" on="1"/>
        <pt x="72" y="0" on="1"/>
        <pt x="72" y="-6" on="0"/>
        <pt x="66" y="-6" on="1"/>
        <pt x="6" y="-6" on="1"/>
        <pt x="0" y="-6" on="0"/>
        <pt x="0" y="0" on="1"/>
        <pt x="0" y="72" on="1"/>
        <pt x="0" y="78" on="0"/>
        <pt x="6" y="78" on="1"/>
      </contour>
      <contour>
        <pt x="66" y="0" on="1"/>
        <pt x="66" y="54" on="1"/>
        <pt x="48" y="72" on="1"/>
        <pt x="6" y="72" on="1"/>
        <pt x="6" y="0" on="1"/>
      </contour>
      <contour>
        <pt x="36" y="57" on="1"/>
        <pt x="60" y="39" on="1"/>
        <pt x="36" y="21" on="1"/>
        <pt x="36" y="33" on="1"/>
        <pt x="27" y="33" on="0"/>
        <pt x="14" y="25" on="0"/>
        <pt x="12" y="15" on="1"/>
        <pt x="12" y="30" on="0"/>
        <pt x="25" y="45" on="0"/>
        <pt x="36" y="45" on="1"/>
      </contour>
    </TTGlyph>
    <TTGlyph name="file-text" xMin="0" yMin="-6" xMax="72" yMax="78">
      <contour>
        <pt x="36" y="54" on="1"/>
        <pt x="12" y="54" on="1"/>
        <pt x="12" y="60" on="1"/>
        <pt x="36" y="60" on="1"/>
      </contour>
      <contour>
        <pt x="12" y="36" on="1"/>
        <pt x="12" y="42" on="1"/>
        <pt x="54" y="42" on="1"/>
        <pt x="54" y="36" on="1"/>
      </contour>
      <contour>
        <pt x="12" y="24" on="1"/>
        <pt x="12" y="30" on="1"/>
        <pt x="54" y="30" on="1"/>
        <pt x="54" y="24" on="1"/>
      </contour>
      <contour>
        <pt x="12" y="12" on="1"/>
        <pt x="12" y="18" on="1"/>
        <pt x="54" y="18" on="1"/>
        <pt x="54" y="12" on="1"/>
      </contour>
      <contour>
        <pt x="72" y="57" on="1"/>
        <pt x="72" y="0" on="1"/>
        <pt x="72" y="-6" on="0"/>
        <pt x="66" y="-6" on="1"/>
        <pt x="6" y="-6" on="1"/>
        <pt x="0" y="-6" on="0"/>
        <pt x="0" y="0" on="1"/>
        <pt x="0" y="72" on="1"/>
        <pt x="0" y="78" on="0"/>
        <pt x="6" y="78" on="1"/>
        <pt x="51" y="78" on="1"/>
      </contour>
      <contour>
        <pt x="66" y="54" on="1"/>
        <pt x="48" y="72" on="1"/>
        <pt x="6" y="72" on="1"/>
        <pt x="6" y="0" on="1"/>
        <pt x="66" y="0" on="1"/>
      </contour>
    </TTGlyph>
    <TTGlyph name="file-zip" xMin="0" yMin="-6" xMax="72" yMax="78">
      <contour>
        <pt x="51" y="78" on="1"/>
        <pt x="72" y="57" on="1"/>
        <pt x="72" y="0" on="1"/>
        <pt x="72" y="-6" on="0"/>
        <pt x="66" y="-6" on="1"/>
        <pt x="6" y="-6" on="1"/>
        <pt x="0" y="-6" on="0"/>
        <pt x="0" y="0" on="1"/>
        <pt x="0" y="72" on="1"/>
        <pt x="0" y="78" on="0"/>
        <pt x="6" y="78" on="1"/>
      </contour>
      <contour>
        <pt x="66" y="0" on="1"/>
        <pt x="66" y="54" on="1"/>
        <pt x="48" y="72" on="1"/>
        <pt x="30" y="72" on="1"/>
        <pt x="30" y="66" on="1"/>
        <pt x="24" y="66" on="1"/>
        <pt x="24" y="72" on="1"/>
        <pt x="6" y="72" on="1"/>
        <pt x="6" y="0" on="1"/>
      </contour>
      <contour>
        <pt x="30" y="60" on="1"/>
        <pt x="30" y="66" on="1"/>
        <pt x="36" y="66" on="1"/>
        <pt x="36" y="60" on="1"/>
      </contour>
      <contour>
        <pt x="24" y="60" on="1"/>
        <pt x="30" y="60" on="1"/>
        <pt x="30" y="54" on="1"/>
        <pt x="24" y="54" on="1"/>
      </contour>
      <contour>
        <pt x="30" y="48" on="1"/>
        <pt x="30" y="54" on="1"/>
        <pt x="36" y="54" on="1"/>
        <pt x="36" y="48" on="1"/>
      </contour>
      <contour>
        <pt x="24" y="48" on="1"/>
        <pt x="30" y="48" on="1"/>
        <pt x="30" y="42" on="1"/>
        <pt x="24" y="42" on="1"/>
      </contour>
      <contour>
        <pt x="30" y="36" on="1"/>
        <pt x="30" y="42" on="1"/>
        <pt x="36" y="42" on="1"/>
        <pt x="36" y="36" on="1"/>
      </contour>
      <contour>
        <pt x="24" y="28" on="1"/>
        <pt x="24" y="36" on="1"/>
        <pt x="30" y="36" on="1"/>
        <pt x="30" y="30" on="1"/>
        <pt x="42" y="30" on="0"/>
        <pt x="42" y="18" on="1"/>
        <pt x="42" y="12" on="1"/>
        <pt x="18" y="12" on="1"/>
        <pt x="18" y="18" on="1"/>
        <pt x="18" y="25" on="0"/>
      </contour>
      <contour>
        <pt x="36" y="24" on="1"/>
        <pt x="24" y="24" on="1"/>
        <pt x="24" y="18" on="1"/>
        <pt x="36" y="18" on="1"/>
      </contour>
    </TTGlyph>
    <TTGlyph name="flame" xMin="-2" yMin="-11" xMax="72" yMax="83">
      <contour>
        <pt x="30" y="82" on="1"/>
        <pt x="30" y="82" on="1"/>
        <pt x="45" y="73" on="0"/>
        <pt x="49" y="49" on="0"/>
        <pt x="42" y="45" on="1"/>
        <pt x="35" y="38" on="0"/>
        <pt x="42" y="34" on="1"/>
        <pt x="46" y="32" on="0"/>
        <pt x="53" y="37" on="0"/>
        <pt x="53" y="42" on="1"/>
        <pt x="52" y="57" on="0"/>
        <pt x="64" y="59" on="1"/>
        <pt x="62" y="54" on="0"/>
        <pt x="63" y="45" on="0"/>
        <pt x="67" y="40" on="0"/>
        <pt x="72" y="30" on="0"/>
        <pt x="72" y="25" on="1"/>
        <pt x="72" y="18" on="0"/>
        <pt x="66" y="5" on="0"/>
        <pt x="53" y="-7" on="0"/>
        <pt x="43" y="-8" on="1"/>
        <pt x="50" y="-5" on="0"/>
        <pt x="50" y="2" on="1"/>
        <pt x="50" y="8" on="0"/>
        <pt x="42" y="14" on="0"/>
        <pt x="36" y="12" on="1"/>
        <pt x="30" y="10" on="0"/>
        <pt x="22" y="21" on="0"/>
        <pt x="25" y="30" on="1"/>
        <pt x="14" y="20" on="0"/>
        <pt x="16" y="-5" on="0"/>
        <pt x="27" y="-10" on="1"/>
        <pt x="12" y="-7" on="0"/>
        <pt x="-1" y="11" on="0"/>
        <pt x="1" y="29" on="0"/>
        <pt x="5" y="36" on="1"/>
        <pt x="9" y="41" on="0"/>
        <pt x="25" y="54" on="0"/>
        <pt x="27" y="56" on="1"/>
        <pt x="36" y="66" on="0"/>
      </contour>
    </TTGlyph>
    <TTGlyph name="fold" xMin="0" yMin="-6" xMax="84" yMax="84">
      <contour>
        <pt x="42" y="30" on="1"/>
        <pt x="60" y="12" on="1"/>
        <pt x="48" y="12" on="1"/>
        <pt x="48" y="-6" on="1"/>
        <pt x="36" y="-6" on="1"/>
        <pt x="36" y="12" on="1"/>
        <pt x="24" y="12" on="1"/>
      </contour>
      <contour>
        <pt x="60" y="66" on="1"/>
        <pt x="42" y="48" on="1"/>
        <pt x="24" y="66" on="1"/>
        <pt x="36" y="66" on="1"/>
        <pt x="36" y="84" on="1"/>
        <pt x="48" y="84" on="1"/>
        <pt x="48" y="66" on="1"/>
      </contour>
      <contour>
        <pt x="84" y="54" on="1"/>
        <pt x="69" y="39" on="1"/>
        <pt x="84" y="24" on="1"/>
        <pt x="84" y="18" on="0"/>
        <pt x="78" y="18" on="1"/>
        <pt x="63" y="18" on="1"/>
        <pt x="57" y="24" on="1"/>
        <pt x="75" y="24" on="1"/>
        <pt x="63" y="36" on="1"/>
        <pt x="21" y="36" on="1"/>
        <pt x="9" y="24" on="1"/>
        <pt x="27" y="24" on="1"/>
        <pt x="21" y="18" on="1"/>
        <pt x="6" y="18" on="1"/>
        <pt x="0" y="18" on="0"/>
        <pt x="0" y="24" on="1"/>
        <pt x="15" y="39" on="1"/>
        <pt x="0" y="54" on="1"/>
        <pt x="0" y="60" on="0"/>
        <pt x="6" y="60" on="1"/>
        <pt x="21" y="60" on="1"/>
        <pt x="27" y="54" on="1"/>
        <pt x="9" y="54" on="1"/>
        <pt x="21" y="42" on="1"/>
        <pt x="63" y="42" on="1"/>
        <pt x="75" y="54" on="1"/>
        <pt x="57" y="54" on="1"/>
        <pt x="63" y="60" on="1"/>
        <pt x="78" y="60" on="1"/>
        <pt x="84" y="60" on="0"/>
      </contour>
    </TTGlyph>
    <TTGlyph name="gear" xMin="0" yMin="-6" xMax="84" yMax="78">
      <contour>
        <pt x="84" y="31" on="1"/>
        <pt x="84" y="32" on="1"/>
        <pt x="72" y="27" on="1"/>
        <pt x="70" y="21" on="1"/>
        <pt x="75" y="10" on="1"/>
        <pt x="68" y="3" on="1"/>
        <pt x="57" y="8" on="1"/>
        <pt x="51" y="6" on="1"/>
        <pt x="47" y="-6" on="1"/>
        <pt x="37" y="-6" on="1"/>
        <pt x="33" y="6" on="1"/>
        <pt x="27" y="8" on="1"/>
        <pt x="16" y="3" on="1"/>
        <pt x="9" y="10" on="1"/>
        <pt x="14" y="21" on="1"/>
        <pt x="12" y="27" on="1"/>
        <pt x="0" y="31" on="1"/>
        <pt x="0" y="41" on="1"/>
        <pt x="12" y="45" on="1"/>
        <pt x="14" y="51" on="1"/>
        <pt x="9" y="62" on="1"/>
        <pt x="16" y="69" on="1"/>
        <pt x="27" y="64" on="1"/>
        <pt x="33" y="66" on="1"/>
        <pt x="37" y="78" on="1"/>
        <pt x="47" y="78" on="1"/>
        <pt x="51" y="66" on="1"/>
        <pt x="57" y="64" on="1"/>
        <pt x="68" y="69" on="1"/>
        <pt x="75" y="62" on="1"/>
        <pt x="70" y="51" on="1"/>
        <pt x="72" y="45" on="1"/>
        <pt x="84" y="41" on="1"/>
      </contour>
      <contour>
        <pt x="35" y="18" on="0"/>
        <pt x="49" y="18" on="0"/>
        <pt x="60" y="29" on="0"/>
        <pt x="60" y="43" on="0"/>
        <pt x="49" y="54" on="0"/>
        <pt x="35" y="54" on="0"/>
        <pt x="24" y="43" on="0"/>
        <pt x="24" y="29" on="0"/>
      </contour>
    </TTGlyph>
    <TTGlyph name="gift" xMin="5" yMin="0" xMax="84" yMax="78">
      <contour>
        <pt x="78" y="60" on="1"/>
        <pt x="84" y="60" on="0"/>
        <pt x="84" y="54" on="1"/>
        <pt x="84" y="36" on="1"/>
        <pt x="78" y="36" on="1"/>
        <pt x="78" y="6" on="1"/>
        <pt x="78" y="0" on="0"/>
        <pt x="72" y="0" on="1"/>
        <pt x="18" y="0" on="1"/>
        <pt x="12" y="0" on="0"/>
        <pt x="12" y="6" on="1"/>
        <pt x="12" y="36" on="1"/>
        <pt x="6" y="36" on="1"/>
        <pt x="6" y="54" on="1"/>
        <pt x="6" y="60" on="0"/>
        <pt x="12" y="60" on="1"/>
        <pt x="20" y="60" on="1"/>
        <pt x="18" y="63" on="0"/>
        <pt x="18" y="65" on="1"/>
        <pt x="17" y="72" on="0"/>
        <pt x="21" y="75" on="1"/>
        <pt x="24" y="78" on="0"/>
        <pt x="30" y="78" on="1"/>
        <pt x="35" y="78" on="0"/>
        <pt x="39" y="75" on="1"/>
        <pt x="43" y="72" on="0"/>
        <pt x="45" y="67" on="1"/>
        <pt x="47" y="72" on="0"/>
        <pt x="51" y="75" on="1"/>
        <pt x="55" y="78" on="0"/>
        <pt x="60" y="78" on="1"/>
        <pt x="61" y="78" on="1"/>
        <pt x="66" y="78" on="0"/>
        <pt x="69" y="75" on="1"/>
        <pt x="72" y="72" on="0"/>
        <pt x="72" y="65" on="1"/>
        <pt x="72" y="63" on="0"/>
        <pt x="70" y="60" on="1"/>
      </contour>
      <contour>
        <pt x="49" y="65" on="1"/>
        <pt x="47" y="60" on="1"/>
        <pt x="64" y="60" on="1"/>
        <pt x="67" y="64" on="0"/>
        <pt x="67" y="66" on="1"/>
        <pt x="67" y="70" on="0"/>
        <pt x="65" y="72" on="1"/>
        <pt x="64" y="73" on="0"/>
        <pt x="61" y="73" on="1"/>
        <pt x="60" y="73" on="1"/>
        <pt x="57" y="73" on="0"/>
        <pt x="51" y="69" on="0"/>
      </contour>
      <contour>
        <pt x="25" y="72" on="1"/>
        <pt x="23" y="70" on="0"/>
        <pt x="23" y="66" on="1"/>
        <pt x="23" y="64" on="0"/>
        <pt x="26" y="60" on="1"/>
        <pt x="43" y="60" on="1"/>
        <pt x="41" y="65" on="1"/>
        <pt x="39" y="69" on="0"/>
        <pt x="33" y="73" on="0"/>
        <pt x="30" y="73" on="1"/>
        <pt x="26" y="73" on="0"/>
      </contour>
      <contour>
        <pt x="42" y="6" on="1"/>
        <pt x="42" y="36" on="1"/>
        <pt x="18" y="36" on="1"/>
        <pt x="18" y="6" on="1"/>
      </contour>
      <contour>
        <pt x="42" y="42" on="1"/>
        <pt x="42" y="54" on="1"/>
        <pt x="12" y="54" on="1"/>
        <pt x="12" y="42" on="1"/>
      </contour>
      <contour>
        <pt x="72" y="6" on="1"/>
        <pt x="72" y="36" on="1"/>
        <pt x="48" y="36" on="1"/>
        <pt x="48" y="6" on="1"/>
      </contour>
      <contour>
        <pt x="78" y="42" on="1"/>
        <pt x="78" y="54" on="1"/>
        <pt x="48" y="54" on="1"/>
        <pt x="48" y="42" on="1"/>
      </contour>
    </TTGlyph>
    <TTGlyph name="gist" xMin="0" yMin="0" xMax="72" yMax="78">
      <contour>
        <pt x="45" y="54" on="1"/>
        <pt x="60" y="39" on="1"/>
        <pt x="45" y="24" on="1"/>
        <pt x="40" y="28" on="1"/>
        <pt x="51" y="39" on="1"/>
        <pt x="40" y="50" on="1"/>
      </contour>
      <contour>
        <pt x="27" y="54" on="1"/>
        <pt x="32" y="50" on="1"/>
        <pt x="21" y="39" on="1"/>
        <pt x="32" y="28" on="1"/>
        <pt x="27" y="24" on="1"/>
        <pt x="12" y="39" on="1"/>
      </contour>
      <contour>
        <pt x="0" y="6" on="1"/>
        <pt x="0" y="72" on="1"/>
        <pt x="0" y="78" on="0"/>
        <pt x="6" y="78" on="1"/>
        <pt x="66" y="78" on="1"/>
        <pt x="72" y="78" on="0"/>
        <pt x="72" y="72" on="1"/>
        <pt x="72" y="6" on="1"/>
        <pt x="72" y="0" on="0"/>
        <pt x="66" y="0" on="1"/>
        <pt x="6" y="0" on="1"/>
        <pt x="0" y="0" on="0"/>
      </contour>
      <contour>
        <pt x="6" y="6" on="1"/>
        <pt x="66" y="6" on="1"/>
        <pt x="66" y="72" on="1"/>
        <pt x="6" y="72" on="1"/>
      </contour>
    </TTGlyph>
    <TTGlyph name="gist-secret" xMin="-1" yMin="0" xMax="85" yMax="72">
      <contour>
        <pt x="48" y="21" on="1"/>
        <pt x="54" y="0" on="1"/>
        <pt x="30" y="0" on="1"/>
        <pt x="36" y="21" on="1"/>
        <pt x="32" y="30" on="1"/>
        <pt x="52" y="30" on="1"/>
      </contour>
      <contour>
        <pt x="60" y="48" on="1"/>
        <pt x="72" y="42" on="1"/>
        <pt x="12" y="42" on="1"/>
        <pt x="24" y="48" on="1"/>
      </contour>
      <contour>
        <pt x="54" y="72" on="1"/>
        <pt x="60" y="54" on="1"/>
        <pt x="24" y="54" on="1"/>
        <pt x="30" y="72" on="1"/>
        <pt x="42" y="66" on="1"/>
      </contour>
      <contour>
        <pt x="78" y="26" on="1"/>
        <pt x="84" y="24" on="0"/>
        <pt x="82" y="18" on="1"/>
        <pt x="79" y="4" on="1"/>
        <pt x="78" y="0" on="0"/>
        <pt x="73" y="0" on="1"/>
        <pt x="54" y="0" on="1"/>
        <pt x="66" y="18" on="1"/>
        <pt x="60" y="30" on="1"/>
      </contour>
      <contour>
        <pt x="24" y="30" on="1"/>
        <pt x="18" y="18" on="1"/>
        <pt x="30" y="0" on="1"/>
        <pt x="11" y="0" on="1"/>
        <pt x="6" y="0" on="0"/>
        <pt x="5" y="4" on="1"/>
        <pt x="2" y="18" on="1"/>
        <pt x="0" y="24" on="0"/>
        <pt x="6" y="26" on="1"/>
      </contour>
    </TTGlyph>
    <TTGlyph name="git-branch" xMin="0" yMin="-6" xMax="60" yMax="78">
      <contour>
        <pt x="60" y="54" on="1"/>
        <pt x="60" y="47" on="0"/>
        <pt x="54" y="44" on="1"/>
        <pt x="53" y="32" on="0"/>
        <pt x="39" y="18" on="0"/>
        <pt x="30" y="18" on="1"/>
        <pt x="27" y="18" on="0"/>
        <pt x="24" y="17" on="1"/>
        <pt x="24" y="17" on="0"/>
        <pt x="21" y="14" on="0"/>
        <pt x="21" y="14" on="1"/>
        <pt x="24" y="11" on="0"/>
        <pt x="24" y="6" on="1"/>
        <pt x="24" y="-6" on="0"/>
        <pt x="0" y="-6" on="0"/>
        <pt x="0" y="6" on="1"/>
        <pt x="0" y="13" on="0"/>
        <pt x="6" y="16" on="1"/>
        <pt x="6" y="56" on="1"/>
        <pt x="0" y="59" on="0"/>
        <pt x="0" y="66" on="1"/>
        <pt x="0" y="71" on="0"/>
        <pt x="7" y="78" on="0"/>
        <pt x="17" y="78" on="0"/>
        <pt x="24" y="71" on="0"/>
        <pt x="24" y="66" on="1"/>
        <pt x="24" y="59" on="0"/>
        <pt x="18" y="56" on="1"/>
        <pt x="18" y="27" on="1"/>
        <pt x="22" y="30" on="0"/>
        <pt x="30" y="30" on="1"/>
        <pt x="35" y="30" on="0"/>
        <pt x="42" y="37" on="0"/>
        <pt x="42" y="42" on="1"/>
        <pt x="42" y="44" on="1"/>
        <pt x="36" y="47" on="0"/>
        <pt x="36" y="54" on="1"/>
        <pt x="36" y="66" on="0"/>
        <pt x="60" y="66" on="0"/>
      </contour>
      <contour>
        <pt x="19" y="73" on="0"/>
        <pt x="5" y="73" on="0"/>
        <pt x="5" y="59" on="0"/>
        <pt x="19" y="59" on="0"/>
      </contour>
      <contour>
        <pt x="5" y="-1" on="0"/>
        <pt x="19" y="-1" on="0"/>
        <pt x="19" y="13" on="0"/>
        <pt x="5" y="13" on="0"/>
      </contour>
      <contour>
        <pt x="41" y="47" on="0"/>
        <pt x="55" y="47" on="0"/>
        <pt x="55" y="61" on="0"/>
        <pt x="41" y="61" on="0"/>
      </contour>
    </TTGlyph>
    <TTGlyph name="git-commit" xMin="0" yMin="12" xMax="84" yMax="60">
      <contour>
        <pt x="65" y="42" on="1"/>
        <pt x="84" y="42" on="1"/>
        <pt x="84" y="30" on="1"/>
        <pt x="65" y="30" on="1"/>
        <pt x="60" y="12" on="0"/>
        <pt x="24" y="12" on="0"/>
        <pt x="19" y="30" on="1"/>
        <pt x="0" y="30" on="1"/>
        <pt x="0" y="42" on="1"/>
        <pt x="19" y="42" on="1"/>
        <pt x="24" y="60" on="0"/>
        <pt x="60" y="60" on="0"/>
      </contour>
      <contour>
        <pt x="37" y="23" on="0"/>
        <pt x="47" y="23" on="0"/>
        <pt x="55" y="31" on="0"/>
        <pt x="55" y="41" on="0"/>
        <pt x="47" y="49" on="0"/>
        <pt x="37" y="49" on="0"/>
        <pt x="29" y="41" on="0"/>
        <pt x="29" y="31" on="0"/>
      </contour>
    </TTGlyph>
    <TTGlyph name="git-compare" xMin="0" yMin="-12" xMax="84" yMax="84">
      <contour>
        <pt x="30" y="12" on="1"/>
        <pt x="30" y="24" on="1"/>
        <pt x="48" y="6" on="1"/>
        <pt x="30" y="-12" on="1"/>
        <pt x="30" y="0" on="1"/>
        <pt x="24" y="0" on="1"/>
        <pt x="17" y="0" on="0"/>
        <pt x="6" y="11" on="0"/>
        <pt x="6" y="18" on="1"/>
        <pt x="6" y="56" on="1"/>
        <pt x="0" y="59" on="0"/>
        <pt x="0" y="66" on="1"/>
        <pt x="0" y="78" on="0"/>
        <pt x="24" y="78" on="0"/>
        <pt x="24" y="66" on="1"/>
        <pt x="24" y="59" on="0"/>
        <pt x="18" y="56" on="1"/>
        <pt x="18" y="18" on="1"/>
        <pt x="18" y="16" on="0"/>
        <pt x="22" y="12" on="0"/>
        <pt x="24" y="12" on="1"/>
      </contour>
      <contour>
        <pt x="19" y="73" on="0"/>
        <pt x="5" y="73" on="0"/>
        <pt x="5" y="59" on="0"/>
        <pt x="19" y="59" on="0"/>
      </contour>
      <contour>
        <pt x="78" y="16" on="1"/>
        <pt x="84" y="13" on="0"/>
        <pt x="84" y="6" on="1"/>
        <pt x="84" y="-6" on="0"/>
        <pt x="60" y="-6" on="0"/>
        <pt x="60" y="6" on="1"/>
        <pt x="60" y="13" on="0"/>
        <pt x="66" y="16" on="1"/>
        <pt x="66" y="54" on="1"/>
        <pt x="66" y="56" on="0"/>
        <pt x="62" y="60" on="0"/>
        <pt x="60" y="60" on="1"/>
        <pt x="54" y="60" on="1"/>
        <pt x="54" y="48" on="1"/>
        <pt x="36" y="66" on="1"/>
        <pt x="54" y="84" on="1"/>
        <pt x="54" y="72" on="1"/>
        <pt x="60" y="72" on="1"/>
        <pt x="67" y="72" on="0"/>
        <pt x="78" y="61" on="0"/>
        <pt x="78" y="54" on="1"/>
      </contour>
      <contour>
        <pt x="65" y="-1" on="0"/>
        <pt x="79" y="-1" on="0"/>
        <pt x="79" y="13" on="0"/>
        <pt x="65" y="13" on="0"/>
      </contour>
    </TTGlyph>
    <TTGlyph name="git-merge" xMin="0" yMin="-6" xMax="72" yMax="79">
      <contour>
        <pt x="60" y="42" on="1"/>
        <pt x="72" y="42" on="0"/>
        <pt x="72" y="18" on="0"/>
        <pt x="60" y="18" on="1"/>
        <pt x="53" y="18" on="0"/>
        <pt x="50" y="24" on="1"/>
        <pt x="39" y="24" on="0"/>
        <pt x="24" y="32" on="0"/>
        <pt x="18" y="38" on="1"/>
        <pt x="18" y="16" on="1"/>
        <pt x="24" y="13" on="0"/>
        <pt x="24" y="6" on="1"/>
        <pt x="24" y="-6" on="0"/>
        <pt x="0" y="-6" on="0"/>
        <pt x="0" y="6" on="1"/>
        <pt x="0" y="13" on="0"/>
        <pt x="6" y="16" on="1"/>
        <pt x="6" y="56" on="1"/>
        <pt x="0" y="59" on="0"/>
        <pt x="0" y="66" on="1"/>
        <pt x="0" y="69" on="0"/>
        <pt x="3" y="75" on="0"/>
        <pt x="9" y="78" on="0"/>
        <pt x="12" y="78" on="1"/>
        <pt x="17" y="78" on="0"/>
        <pt x="24" y="71" on="0"/>
        <pt x="24" y="66" on="1"/>
        <pt x="24" y="60" on="0"/>
        <pt x="20" y="57" on="1"/>
        <pt x="24" y="48" on="0"/>
        <pt x="31" y="42" on="1"/>
        <pt x="39" y="36" on="0"/>
        <pt x="50" y="36" on="1"/>
        <pt x="53" y="42" on="0"/>
      </contour>
      <contour>
        <pt x="19" y="-1" on="0"/>
        <pt x="19" y="13" on="0"/>
        <pt x="5" y="13" on="0"/>
        <pt x="5" y="-1" on="0"/>
      </contour>
      <contour>
        <pt x="5" y="59" on="0"/>
        <pt x="19" y="59" on="0"/>
        <pt x="19" y="73" on="0"/>
        <pt x="5" y="73" on="0"/>
      </contour>
      <contour>
        <pt x="53" y="23" on="0"/>
        <pt x="67" y="23" on="0"/>
        <pt x="67" y="37" on="0"/>
        <pt x="53" y="37" on="0"/>
      </contour>
    </TTGlyph>
    <TTGlyph name="git-pull-request" xMin="0" yMin="-6" xMax="72" yMax="84">
      <contour>
        <pt x="66" y="16" on="1"/>
        <pt x="72" y="13" on="0"/>
        <pt x="72" y="6" on="1"/>
        <pt x="72" y="-6" on="0"/>
        <pt x="48" y="-6" on="0"/>
        <pt x="48" y="6" on="1"/>
        <pt x="48" y="13" on="0"/>
        <pt x="54" y="16" on="1"/>
        <pt x="54" y="54" on="1"/>
        <pt x="54" y="56" on="0"/>
        <pt x="50" y="60" on="0"/>
        <pt x="48" y="60" on="1"/>
        <pt x="42" y="60" on="1"/>
        <pt x="42" y="48" on="1"/>
        <pt x="24" y="66" on="1"/>
        <pt x="42" y="84" on="1"/>
        <pt x="42" y="72" on="1"/>
        <pt x="48" y="72" on="1"/>
        <pt x="55" y="72" on="0"/>
        <pt x="66" y="61" on="0"/>
        <pt x="66" y="54" on="1"/>
      </contour>
      <contour>
        <pt x="53" y="-1" on="0"/>
        <pt x="67" y="-1" on="0"/>
        <pt x="67" y="13" on="0"/>
        <pt x="53" y="13" on="0"/>
      </contour>
      <contour>
        <pt x="24" y="66" on="1"/>
        <pt x="24" y="59" on="0"/>
        <pt x="18" y="56" on="1"/>
        <pt x="18" y="16" on="1"/>
        <pt x="24" y="13" on="0"/>
        <pt x="24" y="6" on="1"/>
        <pt x="24" y="-6" on="0"/>
        <pt x="0" y="-6" on="0"/>
        <pt x="0" y="6" on="1"/>
        <pt x="0" y="13" on="0"/>
        <pt x="6" y="16" on="1"/>
        <pt x="6" y="56" on="1"/>
        <pt x="0" y="59" on="0"/>
        <pt x="0" y="66" on="1"/>
        <pt x="0" y="78" on="0"/>
        <pt x="24" y="78" on="0"/>
      </contour>
      <contour>
        <pt x="19" y="-1" on="0"/>
        <pt x="19" y="13" on="0"/>
        <pt x="5" y="13" on="0"/>
        <pt x="5" y="-1" on="0"/>
      </contour>
      <contour>
        <pt x="5" y="59" on="0"/>
        <pt x="19" y="59" on="0"/>
        <pt x="19" y="73" on="0"/>
        <pt x="5" y="73" on="0"/>
      </contour>
    </TTGlyph>
    <TTGlyph name="globe" xMin="0" yMin="-6" xMax="84" yMax="78">
      <contour>
        <pt x="42" y="78" on="1"/>
        <pt x="59" y="78" on="0"/>
        <pt x="84" y="53" on="0"/>
        <pt x="84" y="36" on="1"/>
        <pt x="84" y="21" on="0"/>
        <pt x="65" y="-2" on="0"/>
        <pt x="51" y="-5" on="1"/>
        <pt x="51" y="-5" on="0"/>
        <pt x="54" y="-1" on="0"/>
        <pt x="55" y="0" on="1"/>
        <pt x="57" y="1" on="0"/>
        <pt x="63" y="5" on="1"/>
        <pt x="64" y="6" on="0"/>
        <pt x="65" y="8" on="1"/>
        <pt x="68" y="11" on="1"/>
        <pt x="69" y="12" on="0"/>
        <pt x="76" y="23" on="0"/>
        <pt x="75" y="24" on="1"/>
        <pt x="74" y="26" on="0"/>
        <pt x="67" y="26" on="0"/>
        <pt x="67" y="26" on="1"/>
        <pt x="67" y="26" on="0"/>
        <pt x="66" y="29" on="0"/>
        <pt x="65" y="30" on="0"/>
        <pt x="61" y="31" on="0"/>
        <pt x="58" y="32" on="1"/>
        <pt x="55" y="34" on="0"/>
        <pt x="52" y="33" on="1"/>
        <pt x="52" y="33" on="0"/>
        <pt x="48" y="30" on="0"/>
        <pt x="48" y="30" on="1"/>
        <pt x="42" y="31" on="0"/>
        <pt x="42" y="34" on="1"/>
        <pt x="42" y="36" on="0"/>
        <pt x="39" y="37" on="1"/>
        <pt x="39" y="37" on="0"/>
        <pt x="39" y="38" on="1"/>
        <pt x="40" y="40" on="0"/>
        <pt x="39" y="41" on="1"/>
        <pt x="39" y="41" on="0"/>
        <pt x="33" y="37" on="0"/>
        <pt x="32" y="40" on="1"/>
        <pt x="30" y="45" on="0"/>
        <pt x="36" y="46" on="1"/>
        <pt x="38" y="47" on="0"/>
        <pt x="42" y="46" on="0"/>
        <pt x="43" y="44" on="0"/>
        <pt x="44" y="44" on="1"/>
        <pt x="44" y="46" on="1"/>
        <pt x="43" y="47" on="0"/>
        <pt x="43" y="49" on="0"/>
        <pt x="46" y="51" on="0"/>
        <pt x="46" y="51" on="1"/>
        <pt x="45" y="56" on="0"/>
        <pt x="49" y="56" on="1"/>
        <pt x="48" y="57" on="0"/>
        <pt x="49" y="58" on="1"/>
        <pt x="50" y="59" on="0"/>
        <pt x="50" y="58" on="1"/>
        <pt x="52" y="60" on="1"/>
        <pt x="50" y="62" on="0"/>
        <pt x="53" y="64" on="1"/>
        <pt x="49" y="67" on="0"/>
        <pt x="48" y="67" on="1"/>
        <pt x="47" y="68" on="0"/>
        <pt x="46" y="67" on="0"/>
        <pt x="45" y="68" on="1"/>
        <pt x="44" y="68" on="0"/>
        <pt x="43" y="69" on="0"/>
        <pt x="42" y="68" on="1"/>
        <pt x="43" y="66" on="0"/>
        <pt x="43" y="63" on="0"/>
        <pt x="40" y="64" on="1"/>
        <pt x="40" y="65" on="0"/>
        <pt x="39" y="65" on="0"/>
        <pt x="38" y="66" on="1"/>
        <pt x="36" y="67" on="0"/>
        <pt x="37" y="68" on="1"/>
        <pt x="38" y="68" on="0"/>
        <pt x="40" y="69" on="0"/>
        <pt x="39" y="70" on="1"/>
        <pt x="40" y="71" on="1"/>
        <pt x="39" y="71" on="1"/>
        <pt x="37" y="71" on="0"/>
        <pt x="34" y="73" on="0"/>
        <pt x="34" y="73" on="1"/>
        <pt x="32" y="72" on="1"/>
        <pt x="30" y="72" on="1"/>
        <pt x="25" y="74" on="0"/>
        <pt x="23" y="72" on="1"/>
        <pt x="16" y="67" on="0"/>
        <pt x="16" y="67" on="1"/>
        <pt x="21" y="68" on="1"/>
        <pt x="22" y="68" on="0"/>
        <pt x="22" y="63" on="0"/>
        <pt x="22" y="62" on="1"/>
        <pt x="21" y="61" on="1"/>
        <pt x="21" y="60" on="0"/>
        <pt x="19" y="56" on="0"/>
        <pt x="19" y="54" on="0"/>
        <pt x="20" y="50" on="1"/>
        <pt x="22" y="47" on="0"/>
        <pt x="22" y="45" on="0"/>
        <pt x="22" y="45" on="1"/>
        <pt x="24" y="42" on="0"/>
        <pt x="24" y="43" on="0"/>
        <pt x="22" y="47" on="0"/>
        <pt x="22" y="47" on="1"/>
        <pt x="23" y="47" on="1"/>
        <pt x="24" y="45" on="1"/>
        <pt x="24" y="44" on="0"/>
        <pt x="25" y="44" on="1"/>
        <pt x="26" y="42" on="0"/>
        <pt x="26" y="41" on="1"/>
        <pt x="26" y="38" on="0"/>
        <pt x="29" y="37" on="1"/>
        <pt x="35" y="35" on="0"/>
        <pt x="37" y="34" on="1"/>
        <pt x="37" y="34" on="0"/>
        <pt x="39" y="34" on="0"/>
        <pt x="39" y="33" on="0"/>
        <pt x="40" y="32" on="0"/>
        <pt x="41" y="31" on="1"/>
        <pt x="43" y="29" on="0"/>
        <pt x="44" y="29" on="1"/>
        <pt x="44" y="29" on="0"/>
        <pt x="45" y="30" on="1"/>
        <pt x="47" y="30" on="0"/>
        <pt x="47" y="29" on="1"/>
        <pt x="47" y="28" on="0"/>
        <pt x="47" y="27" on="0"/>
        <pt x="47" y="27" on="1"/>
        <pt x="45" y="22" on="0"/>
        <pt x="45" y="21" on="1"/>
        <pt x="46" y="19" on="0"/>
        <pt x="46" y="18" on="1"/>
        <pt x="47" y="17" on="0"/>
        <pt x="49" y="13" on="0"/>
        <pt x="51" y="12" on="1"/>
        <pt x="54" y="10" on="0"/>
        <pt x="50" y="1" on="1"/>
        <pt x="49" y="0" on="0"/>
        <pt x="49" y="-5" on="0"/>
        <pt x="50" y="-5" on="1"/>
        <pt x="46" y="-6" on="0"/>
        <pt x="42" y="-6" on="1"/>
        <pt x="25" y="-6" on="0"/>
        <pt x="0" y="19" on="0"/>
        <pt x="0" y="53" on="0"/>
        <pt x="25" y="78" on="0"/>
      </contour>
      <contour>
        <pt x="52" y="39" on="1"/>
        <pt x="49" y="38" on="0"/>
        <pt x="45" y="40" on="0"/>
        <pt x="43" y="41" on="1"/>
        <pt x="42" y="41" on="0"/>
        <pt x="42" y="41" on="1"/>
        <pt x="43" y="42" on="1"/>
        <pt x="45" y="42" on="0"/>
        <pt x="50" y="39" on="0"/>
        <pt x="50" y="39" on="0"/>
        <pt x="52" y="40" on="0"/>
        <pt x="52" y="39" on="1"/>
      </contour>
      <contour>
        <pt x="38" y="74" on="1"/>
        <pt x="39" y="75" on="1"/>
        <pt x="39" y="75" on="0"/>
        <pt x="39" y="75" on="1"/>
        <pt x="42" y="75" on="1"/>
      </contour>
      <contour>
        <pt x="45" y="68" on="1"/>
        <pt x="47" y="68" on="0"/>
        <pt x="46" y="70" on="1"/>
        <pt x="46" y="71" on="0"/>
        <pt x="44" y="72" on="1"/>
        <pt x="43" y="72" on="0"/>
        <pt x="43" y="72" on="1"/>
        <pt x="43" y="73" on="0"/>
        <pt x="39" y="73" on="0"/>
        <pt x="39" y="73" on="1"/>
        <pt x="40" y="72" on="1"/>
        <pt x="45" y="72" on="0"/>
        <pt x="42" y="69" on="1"/>
        <pt x="42" y="69" on="0"/>
      </contour>
      <contour>
        <pt x="54" y="69" on="1"/>
        <pt x="55" y="69" on="0"/>
        <pt x="54" y="71" on="1"/>
        <pt x="53" y="72" on="0"/>
        <pt x="53" y="73" on="1"/>
        <pt x="53" y="75" on="0"/>
        <pt x="49" y="76" on="1"/>
        <pt x="43" y="76" on="0"/>
        <pt x="43" y="76" on="1"/>
        <pt x="42" y="75" on="0"/>
        <pt x="43" y="74" on="1"/>
        <pt x="43" y="74" on="0"/>
        <pt x="44" y="74" on="1"/>
        <pt x="46" y="74" on="0"/>
        <pt x="49" y="72" on="1"/>
        <pt x="53" y="68" on="0"/>
      </contour>
    </TTGlyph>
    <TTGlyph name="grabber" xMin="0" yMin="18" xMax="48" yMax="60">
      <contour>
        <pt x="48" y="60" on="1"/>
        <pt x="48" y="54" on="1"/>
        <pt x="0" y="54" on="1"/>
        <pt x="0" y="60" on="1"/>
      </contour>
      <contour>
        <pt x="0" y="36" on="1"/>
        <pt x="0" y="42" on="1"/>
        <pt x="48" y="42" on="1"/>
        <pt x="48" y="36" on="1"/>
      </contour>
      <contour>
        <pt x="0" y="18" on="1"/>
        <pt x="0" y="24" on="1"/>
        <pt x="48" y="24" on="1"/>
        <pt x="48" y="18" on="1"/>
      </contour>
    </TTGlyph>
    <TTGlyph name="graph" xMin="0" yMin="-6" xMax="96" yMax="84">
      <contour>
        <pt x="96" y="0" on="1"/>
        <pt x="96" y="-6" on="1"/>
        <pt x="0" y="-6" on="1"/>
        <pt x="0" y="84" on="1"/>
        <pt x="6" y="84" on="1"/>
        <pt x="6" y="0" on="1"/>
      </contour>
      <contour>
        <pt x="30" y="6" on="1"/>
        <pt x="18" y="6" on="1"/>
        <pt x="18" y="36" on="1"/>
        <pt x="30" y="36" on="1"/>
      </contour>
      <contour>
        <pt x="54" y="6" on="1"/>
        <pt x="42" y="6" on="1"/>
        <pt x="42" y="66" on="1"/>
        <pt x="54" y="66" on="1"/>
      </contour>
      <contour>
        <pt x="78" y="6" on="1"/>
        <pt x="66" y="6" on="1"/>
        <pt x="66" y="48" on="1"/>
        <pt x="78" y="48" on="1"/>
      </contour>
    </TTGlyph>
    <TTGlyph name="heart" xMin="0" yMin="6" xMax="72" yMax="72">
      <contour>
        <pt x="63" y="72" on="0"/>
        <pt x="72" y="61" on="0"/>
        <pt x="72" y="54" on="1"/>
        <pt x="72" y="46" on="0"/>
        <pt x="68" y="38" on="1"/>
        <pt x="63" y="28" on="0"/>
        <pt x="36" y="6" on="1"/>
        <pt x="9" y="27" on="0"/>
        <pt x="4" y="38" on="1"/>
        <pt x="0" y="46" on="0"/>
        <pt x="0" y="54" on="1"/>
        <pt x="0" y="61" on="0"/>
        <pt x="9" y="72" on="0"/>
        <pt x="18" y="72" on="1"/>
        <pt x="26" y="72" on="0"/>
        <pt x="31" y="66" on="1"/>
        <pt x="36" y="61" on="0"/>
        <pt x="36" y="60" on="1"/>
        <pt x="36" y="61" on="0"/>
        <pt x="41" y="66" on="1"/>
        <pt x="46" y="72" on="0"/>
        <pt x="54" y="72" on="1"/>
      </contour>
    </TTGlyph>
    <TTGlyph name="history" xMin="0" yMin="-6" xMax="84" yMax="78">
      <contour>
        <pt x="48" y="6" on="1"/>
        <pt x="36" y="6" on="1"/>
        <pt x="36" y="48" on="1"/>
        <pt x="66" y="48" on="1"/>
        <pt x="66" y="36" on="1"/>
        <pt x="48" y="36" on="1"/>
      </contour>
      <contour>
        <pt x="42" y="78" on="1"/>
        <pt x="59" y="78" on="0"/>
        <pt x="84" y="53" on="0"/>
        <pt x="84" y="19" on="0"/>
        <pt x="59" y="-6" on="0"/>
        <pt x="25" y="-6" on="0"/>
        <pt x="0" y="19" on="0"/>
        <pt x="0" y="36" on="1"/>
        <pt x="0" y="39" on="0"/>
        <pt x="0" y="42" on="1"/>
        <pt x="8" y="42" on="1"/>
        <pt x="8" y="39" on="0"/>
        <pt x="8" y="36" on="1"/>
        <pt x="8" y="22" on="0"/>
        <pt x="28" y="2" on="0"/>
        <pt x="56" y="2" on="0"/>
        <pt x="76" y="22" on="0"/>
        <pt x="76" y="50" on="0"/>
        <pt x="56" y="70" on="0"/>
        <pt x="42" y="70" on="1"/>
        <pt x="25" y="70" on="0"/>
        <pt x="15" y="57" on="1"/>
        <pt x="24" y="48" on="1"/>
        <pt x="0" y="48" on="1"/>
        <pt x="0" y="72" on="1"/>
        <pt x="10" y="62" on="1"/>
        <pt x="22" y="78" on="0"/>
      </contour>
    </TTGlyph>
    <TTGlyph name="home" xMin="0" yMin="-6" xMax="96" yMax="78">
      <contour>
        <pt x="96" y="30" on="1"/>
        <pt x="84" y="30" on="1"/>
        <pt x="78" y="0" on="1"/>
        <pt x="78" y="-6" on="0"/>
        <pt x="72" y="-6" on="1"/>
        <pt x="24" y="-6" on="1"/>
        <pt x="18" y="-6" on="0"/>
        <pt x="18" y="0" on="1"/>
        <pt x="12" y="30" on="1"/>
        <pt x="0" y="30" on="1"/>
        <pt x="48" y="78" on="1"/>
        <pt x="66" y="60" on="1"/>
        <pt x="66" y="72" on="1"/>
        <pt x="78" y="72" on="1"/>
        <pt x="78" y="48" on="1"/>
      </contour>
      <contour>
        <pt x="72" y="0" on="1"/>
        <pt x="79" y="38" on="1"/>
        <pt x="48" y="69" on="1"/>
        <pt x="17" y="38" on="1"/>
        <pt x="24" y="0" on="1"/>
        <pt x="42" y="0" on="1"/>
        <pt x="42" y="24" on="1"/>
        <pt x="54" y="24" on="1"/>
        <pt x="54" y="0" on="1"/>
      </contour>
    </TTGlyph>
    <TTGlyph name="horizontal-rule" xMin="0" yMin="6" xMax="60" yMax="66">
      <contour>
        <pt x="6" y="42" on="1"/>
        <pt x="6" y="30" on="1"/>
        <pt x="0" y="30" on="1"/>
        <pt x="0" y="66" on="1"/>
        <pt x="6" y="66" on="1"/>
        <pt x="6" y="48" on="1"/>
        <pt x="18" y="48" on="1"/>
        <pt x="18" y="66" on="1"/>
        <pt x="24" y="66" on="1"/>
        <pt x="24" y="30" on="1"/>
        <pt x="18" y="30" on="1"/>
        <pt x="18" y="42" on="1"/>
      </contour>
      <contour>
        <pt x="60" y="30" on="1"/>
        <pt x="54" y="30" on="1"/>
        <pt x="54" y="42" on="1"/>
        <pt x="60" y="42" on="1"/>
      </contour>
      <contour>
        <pt x="60" y="48" on="1"/>
        <pt x="54" y="48" on="1"/>
        <pt x="54" y="60" on="1"/>
        <pt x="60" y="60" on="1"/>
      </contour>
      <contour>
        <pt x="42" y="48" on="1"/>
        <pt x="54" y="48" on="1"/>
        <pt x="54" y="42" on="1"/>
        <pt x="42" y="42" on="1"/>
        <pt x="42" y="30" on="1"/>
        <pt x="36" y="30" on="1"/>
        <pt x="36" y="66" on="1"/>
        <pt x="54" y="66" on="1"/>
        <pt x="54" y="60" on="1"/>
        <pt x="42" y="60" on="1"/>
      </contour>
      <contour>
        <pt x="0" y="6" on="1"/>
        <pt x="0" y="18" on="1"/>
        <pt x="60" y="18" on="1"/>
        <pt x="60" y="6" on="1"/>
      </contour>
    </TTGlyph>
    <TTGlyph name="hubot" xMin="0" yMin="0" xMax="84" yMax="72">
      <contour>
        <pt x="18" y="48" on="1"/>
        <pt x="66" y="48" on="1"/>
        <pt x="72" y="48" on="0"/>
        <pt x="72" y="42" on="1"/>
        <pt x="72" y="30" on="1"/>
        <pt x="72" y="24" on="0"/>
        <pt x="66" y="24" on="1"/>
        <pt x="18" y="24" on="1"/>
        <pt x="12" y="24" on="0"/>
        <pt x="12" y="30" on="1"/>
        <pt x="12" y="42" on="1"/>
        <pt x="12" y="48" on="0"/>
      </contour>
      <contour>
        <pt x="66" y="38" on="1"/>
        <pt x="66" y="42" on="1"/>
        <pt x="62" y="42" on="1"/>
        <pt x="54" y="34" on="1"/>
        <pt x="46" y="42" on="1"/>
        <pt x="38" y="42" on="1"/>
        <pt x="30" y="34" on="1"/>
        <pt x="22" y="42" on="1"/>
        <pt x="18" y="42" on="1"/>
        <pt x="18" y="38" on="1"/>
        <pt x="26" y="30" on="1"/>
        <pt x="34" y="30" on="1"/>
        <pt x="42" y="38" on="1"/>
        <pt x="50" y="30" on="1"/>
        <pt x="58" y="30" on="1"/>
      </contour>
      <contour>
        <pt x="30" y="18" on="1"/>
        <pt x="54" y="18" on="1"/>
        <pt x="54" y="12" on="1"/>
        <pt x="30" y="12" on="1"/>
      </contour>
      <contour>
        <pt x="25" y="72" on="0"/>
        <pt x="59" y="72" on="0"/>
        <pt x="84" y="49" on="0"/>
        <pt x="84" y="33" on="1"/>
        <pt x="84" y="6" on="1"/>
        <pt x="84" y="0" on="0"/>
        <pt x="78" y="0" on="1"/>
        <pt x="6" y="0" on="1"/>
        <pt x="0" y="0" on="0"/>
        <pt x="0" y="6" on="1"/>
        <pt x="0" y="33" on="1"/>
        <pt x="0" y="49" on="0"/>
      </contour>
      <contour>
        <pt x="78" y="6" on="1"/>
        <pt x="78" y="33" on="1"/>
        <pt x="78" y="47" on="0"/>
        <pt x="57" y="67" on="0"/>
        <pt x="27" y="67" on="0"/>
        <pt x="6" y="47" on="0"/>
        <pt x="6" y="33" on="1"/>
        <pt x="6" y="6" on="1"/>
      </contour>
    </TTGlyph>
    <TTGlyph name="inbox" xMin="0" yMin="-6" xMax="84" yMax="78">
      <contour>
        <pt x="84" y="30" on="1"/>
        <pt x="84" y="0" on="1"/>
        <pt x="84" y="-6" on="0"/>
        <pt x="78" y="-6" on="1"/>
        <pt x="6" y="-6" on="1"/>
        <pt x="0" y="-6" on="0"/>
        <pt x="0" y="0" on="1"/>
        <pt x="0" y="30" on="1"/>
        <pt x="7" y="73" on="1"/>
        <pt x="8" y="78" on="0"/>
        <pt x="13" y="78" on="1"/>
        <pt x="71" y="78" on="1"/>
        <pt x="76" y="78" on="0"/>
        <pt x="77" y="73" on="1"/>
      </contour>
      <contour>
        <pt x="64" y="27" on="1"/>
        <pt x="66" y="30" on="0"/>
        <pt x="70" y="30" on="1"/>
        <pt x="78" y="30" on="1"/>
        <pt x="72" y="72" on="1"/>
        <pt x="12" y="72" on="1"/>
        <pt x="6" y="30" on="1"/>
        <pt x="14" y="30" on="1"/>
        <pt x="18" y="30" on="0"/>
        <pt x="20" y="27" on="1"/>
        <pt x="22" y="21" on="1"/>
        <pt x="24" y="18" on="0"/>
        <pt x="28" y="18" on="1"/>
        <pt x="56" y="18" on="1"/>
        <pt x="60" y="18" on="0"/>
        <pt x="62" y="21" on="1"/>
      </contour>
    </TTGlyph>
    <TTGlyph name="info" xMin="0" yMin="-6" xMax="84" yMax="79">
      <contour>
        <pt x="40" y="48" on="0"/>
        <pt x="36" y="52" on="0"/>
        <pt x="36" y="57" on="0"/>
        <pt x="40" y="60" on="0"/>
        <pt x="45" y="60" on="0"/>
        <pt x="48" y="56" on="0"/>
        <pt x="48" y="51" on="0"/>
        <pt x="46" y="50" on="1"/>
        <pt x="44" y="48" on="0"/>
      </contour>
      <contour>
        <pt x="48" y="36" on="1"/>
        <pt x="48" y="18" on="1"/>
        <pt x="54" y="18" on="1"/>
        <pt x="54" y="16" on="0"/>
        <pt x="50" y="12" on="0"/>
        <pt x="48" y="12" on="1"/>
        <pt x="42" y="12" on="1"/>
        <pt x="40" y="12" on="0"/>
        <pt x="38" y="14" on="1"/>
        <pt x="36" y="16" on="0"/>
        <pt x="36" y="18" on="1"/>
        <pt x="36" y="36" on="1"/>
        <pt x="30" y="36" on="1"/>
        <pt x="30" y="38" on="0"/>
        <pt x="32" y="40" on="1"/>
        <pt x="34" y="42" on="0"/>
        <pt x="36" y="42" on="1"/>
        <pt x="42" y="42" on="1"/>
        <pt x="44" y="42" on="0"/>
        <pt x="48" y="38" on="0"/>
      </contour>
      <contour>
        <pt x="56" y="70" on="0"/>
        <pt x="28" y="70" on="0"/>
        <pt x="8" y="50" on="0"/>
        <pt x="8" y="22" on="0"/>
        <pt x="28" y="2" on="0"/>
        <pt x="56" y="2" on="0"/>
        <pt x="76" y="22" on="0"/>
        <pt x="76" y="50" on="0"/>
      </contour>
      <contour>
        <pt x="25" y="78" on="0"/>
        <pt x="59" y="78" on="0"/>
        <pt x="84" y="53" on="0"/>
        <pt x="84" y="19" on="0"/>
        <pt x="59" y="-6" on="0"/>
        <pt x="25" y="-6" on="0"/>
        <pt x="0" y="19" on="0"/>
        <pt x="0" y="54" on="0"/>
      </contour>
    </TTGlyph>
    <TTGlyph name="issue-closed" xMin="6" yMin="-6" xMax="96" yMax="78">
      <contour>
        <pt x="42" y="24" on="1"/>
        <pt x="54" y="24" on="1"/>
        <pt x="54" y="12" on="1"/>
        <pt x="42" y="12" on="1"/>
      </contour>
      <contour>
        <pt x="54" y="60" on="1"/>
        <pt x="54" y="30" on="1"/>
        <pt x="42" y="30" on="1"/>
        <pt x="42" y="60" on="1"/>
      </contour>
      <contour>
        <pt x="63" y="51" on="1"/>
        <pt x="72" y="42" on="1"/>
        <pt x="90" y="63" on="1"/>
        <pt x="96" y="57" on="1"/>
        <pt x="72" y="30" on="1"/>
        <pt x="57" y="45" on="1"/>
      </contour>
      <contour>
        <pt x="48" y="2" on="1"/>
        <pt x="60" y="2" on="0"/>
        <pt x="78" y="16" on="0"/>
        <pt x="81" y="27" on="1"/>
        <pt x="90" y="36" on="1"/>
        <pt x="90" y="19" on="0"/>
        <pt x="65" y="-6" on="0"/>
        <pt x="31" y="-6" on="0"/>
        <pt x="6" y="19" on="0"/>
        <pt x="6" y="53" on="0"/>
        <pt x="31" y="78" on="0"/>
        <pt x="48" y="78" on="1"/>
        <pt x="68" y="78" on="0"/>
        <pt x="81" y="63" on="1"/>
        <pt x="75" y="57" on="1"/>
        <pt x="65" y="70" on="0"/>
        <pt x="48" y="70" on="1"/>
        <pt x="34" y="70" on="0"/>
        <pt x="14" y="50" on="0"/>
        <pt x="14" y="22" on="0"/>
        <pt x="34" y="2" on="0"/>
      </contour>
    </TTGlyph>
    <TTGlyph name="issue-opened" xMin="0" yMin="-6" xMax="84" yMax="78">
      <contour>
        <pt x="56" y="70" on="0"/>
        <pt x="28" y="70" on="0"/>
        <pt x="8" y="50" on="0"/>
        <pt x="8" y="22" on="0"/>
        <pt x="28" y="2" on="0"/>
        <pt x="56" y="2" on="0"/>
        <pt x="76" y="22" on="0"/>
        <pt x="76" y="50" on="0"/>
      </contour>
      <contour>
        <pt x="25" y="78" on="0"/>
        <pt x="59" y="78" on="0"/>
        <pt x="84" y="53" on="0"/>
        <pt x="84" y="19" on="0"/>
        <pt x="59" y="-6" on="0"/>
        <pt x="25" y="-6" on="0"/>
        <pt x="0" y="19" on="0"/>
        <pt x="0" y="53" on="0"/>
      </contour>
      <contour>
        <pt x="48" y="60" on="1"/>
        <pt x="48" y="30" on="1"/>
        <pt x="36" y="30" on="1"/>
        <pt x="36" y="60" on="1"/>
      </contour>
      <contour>
        <pt x="48" y="24" on="1"/>
        <pt x="48" y="12" on="1"/>
        <pt x="36" y="12" on="1"/>
        <pt x="36" y="24" on="1"/>
      </contour>
    </TTGlyph>
    <TTGlyph name="issue-reopened" xMin="0" yMin="-6" xMax="84" yMax="78">
      <contour>
        <pt x="48" y="30" on="1"/>
        <pt x="36" y="30" on="1"/>
        <pt x="36" y="60" on="1"/>
        <pt x="48" y="60" on="1"/>
      </contour>
      <contour>
        <pt x="36" y="12" on="1"/>
        <pt x="36" y="24" on="1"/>
        <pt x="48" y="24" on="1"/>
        <pt x="48" y="12" on="1"/>
      </contour>
      <contour>
        <pt x="74" y="24" on="1"/>
        <pt x="84" y="24" on="1"/>
        <pt x="84" y="0" on="1"/>
        <pt x="74" y="10" on="1"/>
        <pt x="62" y="-6" on="0"/>
        <pt x="42" y="-6" on="1"/>
        <pt x="25" y="-6" on="0"/>
        <pt x="0" y="19" on="0"/>
        <pt x="0" y="36" on="1"/>
        <pt x="0" y="39" on="0"/>
        <pt x="0" y="42" on="1"/>
        <pt x="8" y="42" on="1"/>
        <pt x="8" y="39" on="0"/>
        <pt x="8" y="36" on="1"/>
        <pt x="8" y="22" on="0"/>
        <pt x="28" y="2" on="0"/>
        <pt x="42" y="2" on="1"/>
        <pt x="59" y="2" on="0"/>
        <pt x="69" y="15" on="1"/>
        <pt x="60" y="24" on="1"/>
      </contour>
      <contour>
        <pt x="10" y="48" on="1"/>
        <pt x="0" y="48" on="1"/>
        <pt x="0" y="72" on="1"/>
        <pt x="10" y="62" on="1"/>
        <pt x="22" y="78" on="0"/>
        <pt x="42" y="78" on="1"/>
        <pt x="59" y="78" on="0"/>
        <pt x="84" y="53" on="0"/>
        <pt x="84" y="36" on="1"/>
        <pt x="84" y="33" on="0"/>
        <pt x="84" y="30" on="1"/>
        <pt x="76" y="30" on="1"/>
        <pt x="76" y="33" on="0"/>
        <pt x="76" y="36" on="1"/>
        <pt x="76" y="50" on="0"/>
        <pt x="56" y="70" on="0"/>
        <pt x="42" y="70" on="1"/>
        <pt x="25" y="70" on="0"/>
        <pt x="15" y="57" on="1"/>
        <pt x="24" y="48" on="1"/>
      </contour>
    </TTGlyph>
    <TTGlyph name="italic" xMin="6" yMin="0" xMax="34" yMax="78">
      <contour>
        <pt x="17" y="54" on="1"/>
        <pt x="29" y="54" on="1"/>
        <pt x="18" y="0" on="1"/>
        <pt x="6" y="0" on="1"/>
      </contour>
      <contour>
        <pt x="19" y="70" on="1"/>
        <pt x="19" y="78" on="0"/>
        <pt x="27" y="78" on="1"/>
        <pt x="34" y="78" on="0"/>
        <pt x="34" y="72" on="1"/>
        <pt x="34" y="64" on="0"/>
        <pt x="26" y="64" on="1"/>
        <pt x="19" y="64" on="0"/>
      </contour>
    </TTGlyph>
    <TTGlyph name="jersey" xMin="6" yMin="-12" xMax="84" yMax="84">
      <contour>
        <pt x="27" y="48" on="1"/>
        <pt x="39" y="48" on="1"/>
        <pt x="42" y="45" on="1"/>
        <pt x="42" y="15" on="1"/>
        <pt x="39" y="12" on="1"/>
        <pt x="27" y="12" on="1"/>
        <pt x="24" y="15" on="1"/>
        <pt x="24" y="45" on="1"/>
      </contour>
      <contour>
        <pt x="36" y="18" on="1"/>
        <pt x="36" y="42" on="1"/>
        <pt x="30" y="42" on="1"/>
        <pt x="30" y="18" on="1"/>
      </contour>
      <contour>
        <pt x="72" y="74" on="0"/>
        <pt x="75" y="49" on="0"/>
        <pt x="84" y="48" on="1"/>
        <pt x="84" y="-6" on="1"/>
        <pt x="84" y="-8" on="0"/>
        <pt x="80" y="-12" on="0"/>
        <pt x="78" y="-12" on="1"/>
        <pt x="12" y="-12" on="1"/>
        <pt x="10" y="-12" on="0"/>
        <pt x="6" y="-8" on="0"/>
        <pt x="6" y="-6" on="1"/>
        <pt x="6" y="48" on="1"/>
        <pt x="15" y="49" on="0"/>
        <pt x="16" y="62" on="1"/>
        <pt x="18" y="74" on="0"/>
        <pt x="18" y="84" on="1"/>
        <pt x="36" y="84" on="1"/>
        <pt x="36" y="82" on="0"/>
        <pt x="40" y="78" on="0"/>
        <pt x="50" y="78" on="0"/>
        <pt x="54" y="82" on="0"/>
        <pt x="54" y="84" on="1"/>
        <pt x="72" y="84" on="1"/>
      </contour>
      <contour>
        <pt x="78" y="-6" on="1"/>
        <pt x="78" y="42" on="1"/>
        <pt x="71" y="47" on="0"/>
        <pt x="68" y="58" on="1"/>
        <pt x="66" y="65" on="0"/>
        <pt x="66" y="78" on="1"/>
        <pt x="60" y="78" on="1"/>
        <pt x="60" y="71" on="0"/>
        <pt x="57" y="66" on="1"/>
        <pt x="54" y="60" on="0"/>
        <pt x="45" y="60" on="1"/>
        <pt x="36" y="60" on="0"/>
        <pt x="33" y="66" on="1"/>
        <pt x="30" y="71" on="0"/>
        <pt x="30" y="78" on="1"/>
        <pt x="24" y="78" on="1"/>
        <pt x="24" y="64" on="0"/>
        <pt x="22" y="56" on="1"/>
        <pt x="20" y="47" on="0"/>
        <pt x="12" y="42" on="1"/>
        <pt x="12" y="-6" on="1"/>
      </contour>
      <contour>
        <pt x="51" y="48" on="1"/>
        <pt x="63" y="48" on="1"/>
        <pt x="66" y="45" on="1"/>
        <pt x="66" y="15" on="1"/>
        <pt x="63" y="12" on="1"/>
        <pt x="51" y="12" on="1"/>
        <pt x="48" y="15" on="1"/>
        <pt x="48" y="45" on="1"/>
      </contour>
      <contour>
        <pt x="60" y="18" on="1"/>
        <pt x="60" y="42" on="1"/>
        <pt x="54" y="42" on="1"/>
        <pt x="54" y="18" on="1"/>
      </contour>
    </TTGlyph>
    <TTGlyph name="key" xMin="0" yMin="0" xMax="84" yMax="78">
      <contour>
        <pt x="70" y="78" on="0"/>
        <pt x="84" y="64" on="0"/>
        <pt x="84" y="54" on="1"/>
        <pt x="84" y="44" on="0"/>
        <pt x="70" y="30" on="0"/>
        <pt x="60" y="30" on="1"/>
        <pt x="57" y="30" on="0"/>
        <pt x="55" y="31" on="1"/>
        <pt x="48" y="24" on="1"/>
        <pt x="36" y="24" on="1"/>
        <pt x="36" y="18" on="1"/>
        <pt x="30" y="18" on="1"/>
        <pt x="30" y="12" on="1"/>
        <pt x="24" y="12" on="1"/>
        <pt x="24" y="6" on="1"/>
        <pt x="18" y="0" on="1"/>
        <pt x="6" y="0" on="1"/>
        <pt x="0" y="6" on="1"/>
        <pt x="0" y="12" on="1"/>
        <pt x="37" y="49" on="1"/>
        <pt x="36" y="51" on="0"/>
        <pt x="36" y="54" on="1"/>
        <pt x="36" y="64" on="0"/>
        <pt x="50" y="78" on="0"/>
        <pt x="60" y="78" on="1"/>
      </contour>
      <contour>
        <pt x="58" y="52" on="0"/>
        <pt x="74" y="52" on="0"/>
        <pt x="74" y="68" on="0"/>
        <pt x="58" y="68" on="0"/>
      </contour>
    </TTGlyph>
    <TTGlyph name="keyboard" xMin="0" yMin="6" xMax="96" yMax="72">
      <contour>
        <pt x="60" y="54" on="1"/>
        <pt x="54" y="54" on="1"/>
        <pt x="54" y="60" on="1"/>
        <pt x="60" y="60" on="1"/>
      </contour>
      <contour>
        <pt x="18" y="48" on="1"/>
        <pt x="18" y="42" on="1"/>
        <pt x="12" y="42" on="1"/>
        <pt x="12" y="48" on="1"/>
      </contour>
      <contour>
        <pt x="48" y="60" on="1"/>
        <pt x="48" y="54" on="1"/>
        <pt x="42" y="54" on="1"/>
        <pt x="42" y="60" on="1"/>
      </contour>
      <contour>
        <pt x="24" y="60" on="1"/>
        <pt x="24" y="54" on="1"/>
        <pt x="12" y="54" on="1"/>
        <pt x="12" y="60" on="1"/>
      </contour>
      <contour>
        <pt x="72" y="18" on="1"/>
        <pt x="72" y="24" on="1"/>
        <pt x="84" y="24" on="1"/>
        <pt x="84" y="18" on="1"/>
      </contour>
      <contour>
        <pt x="48" y="42" on="1"/>
        <pt x="48" y="48" on="1"/>
        <pt x="54" y="48" on="1"/>
        <pt x="54" y="42" on="1"/>
      </contour>
      <contour>
        <pt x="24" y="24" on="1"/>
        <pt x="24" y="18" on="1"/>
        <pt x="12" y="18" on="1"/>
        <pt x="12" y="24" on="1"/>
      </contour>
      <contour>
        <pt x="72" y="60" on="1"/>
        <pt x="72" y="54" on="1"/>
        <pt x="66" y="54" on="1"/>
        <pt x="66" y="60" on="1"/>
      </contour>
      <contour>
        <pt x="84" y="60" on="1"/>
        <pt x="84" y="54" on="1"/>
        <pt x="78" y="54" on="1"/>
        <pt x="78" y="60" on="1"/>
      </contour>
      <contour>
        <pt x="72" y="30" on="1"/>
        <pt x="72" y="48" on="1"/>
        <pt x="84" y="48" on="1"/>
        <pt x="84" y="30" on="1"/>
      </contour>
      <contour>
        <pt x="96" y="66" on="1"/>
        <pt x="96" y="12" on="1"/>
        <pt x="96" y="6" on="0"/>
        <pt x="90" y="6" on="1"/>
        <pt x="6" y="6" on="1"/>
        <pt x="0" y="6" on="0"/>
        <pt x="0" y="12" on="1"/>
        <pt x="0" y="66" on="1"/>
        <pt x="0" y="72" on="0"/>
        <pt x="6" y="72" on="1"/>
        <pt x="90" y="72" on="1"/>
        <pt x="96" y="72" on="0"/>
      </contour>
      <contour>
        <pt x="90" y="66" on="1"/>
        <pt x="6" y="66" on="1"/>
        <pt x="6" y="12" on="1"/>
        <pt x="90" y="12" on="1"/>
      </contour>
      <contour>
        <pt x="36" y="42" on="1"/>
        <pt x="36" y="48" on="1"/>
        <pt x="42" y="48" on="1"/>
        <pt x="42" y="42" on="1"/>
      </contour>
      <contour>
        <pt x="36" y="60" on="1"/>
        <pt x="36" y="54" on="1"/>
        <pt x="30" y="54" on="1"/>
        <pt x="30" y="60" on="1"/>
      </contour>
      <contour>
        <pt x="24" y="42" on="1"/>
        <pt x="24" y="48" on="1"/>
        <pt x="30" y="48" on="1"/>
        <pt x="30" y="42" on="1"/>
      </contour>
      <contour>
        <pt x="30" y="18" on="1"/>
        <pt x="30" y="24" on="1"/>
        <pt x="66" y="24" on="1"/>
        <pt x="66" y="18" on="1"/>
      </contour>
      <contour>
        <pt x="60" y="42" on="1"/>
        <pt x="60" y="48" on="1"/>
        <pt x="66" y="48" on="1"/>
        <pt x="66" y="42" on="1"/>
      </contour>
      <contour>
        <pt x="18" y="36" on="1"/>
        <pt x="18" y="30" on="1"/>
        <pt x="12" y="30" on="1"/>
        <pt x="12" y="36" on="1"/>
      </contour>
      <contour>
        <pt x="48" y="36" on="1"/>
        <pt x="54" y="36" on="1"/>
        <pt x="54" y="30" on="1"/>
        <pt x="48" y="30" on="1"/>
      </contour>
      <contour>
        <pt x="36" y="36" on="1"/>
        <pt x="42" y="36" on="1"/>
        <pt x="42" y="30" on="1"/>
        <pt x="36" y="30" on="1"/>
      </contour>
      <contour>
        <pt x="30" y="36" on="1"/>
        <pt x="30" y="30" on="1"/>
        <pt x="24" y="30" on="1"/>
        <pt x="24" y="36" on="1"/>
      </contour>
      <contour>
        <pt x="60" y="30" on="1"/>
        <pt x="60" y="36" on="1"/>
        <pt x="66" y="36" on="1"/>
        <pt x="66" y="30" on="1"/>
      </contour>
    </TTGlyph>
    <TTGlyph name="law" xMin="0" yMin="-6" xMax="84" yMax="78">
      <contour>
        <pt x="51" y="60" on="0"/>
        <pt x="33" y="60" on="0"/>
        <pt x="33" y="78" on="0"/>
        <pt x="51" y="78" on="0"/>
      </contour>
      <contour>
        <pt x="84" y="24" on="1"/>
        <pt x="84" y="12" on="0"/>
        <pt x="72" y="12" on="1"/>
        <pt x="66" y="12" on="1"/>
        <pt x="54" y="12" on="0"/>
        <pt x="54" y="24" on="1"/>
        <pt x="66" y="48" on="1"/>
        <pt x="60" y="48" on="1"/>
        <pt x="54" y="48" on="0"/>
        <pt x="54" y="54" on="1"/>
        <pt x="48" y="54" on="1"/>
        <pt x="48" y="6" on="1"/>
        <pt x="54" y="6" on="0"/>
        <pt x="54" y="0" on="1"/>
        <pt x="60" y="0" on="1"/>
        <pt x="66" y="0" on="0"/>
        <pt x="66" y="-6" on="1"/>
        <pt x="18" y="-6" on="1"/>
        <pt x="18" y="0" on="0"/>
        <pt x="24" y="0" on="1"/>
        <pt x="30" y="0" on="1"/>
        <pt x="30" y="6" on="0"/>
        <pt x="36" y="6" on="1"/>
        <pt x="36" y="54" on="1"/>
        <pt x="30" y="54" on="1"/>
        <pt x="30" y="48" on="0"/>
        <pt x="24" y="48" on="1"/>
        <pt x="18" y="48" on="1"/>
        <pt x="30" y="24" on="1"/>
        <pt x="30" y="12" on="0"/>
        <pt x="18" y="12" on="1"/>
        <pt x="12" y="12" on="1"/>
        <pt x="0" y="12" on="0"/>
        <pt x="0" y="24" on="1"/>
        <pt x="12" y="48" on="1"/>
        <pt x="6" y="48" on="1"/>
        <pt x="6" y="54" on="1"/>
        <pt x="24" y="54" on="1"/>
        <pt x="24" y="60" on="0"/>
        <pt x="30" y="60" on="1"/>
        <pt x="54" y="60" on="1"/>
        <pt x="60" y="60" on="0"/>
        <pt x="60" y="54" on="1"/>
        <pt x="78" y="54" on="1"/>
        <pt x="78" y="48" on="1"/>
        <pt x="72" y="48" on="1"/>
      </contour>
      <contour>
        <pt x="15" y="42" on="1"/>
        <pt x="6" y="24" on="1"/>
        <pt x="24" y="24" on="1"/>
      </contour>
      <contour>
        <pt x="78" y="24" on="1"/>
        <pt x="69" y="42" on="1"/>
        <pt x="60" y="24" on="1"/>
      </contour>
    </TTGlyph>
    <TTGlyph name="light-bulb" xMin="6" yMin="-12" xMax="72" yMax="84">
      <contour>
        <pt x="25" y="84" on="0"/>
        <pt x="53" y="84" on="0"/>
        <pt x="72" y="67" on="0"/>
        <pt x="72" y="54" on="1"/>
        <pt x="72" y="46" on="0"/>
        <pt x="66" y="36" on="1"/>
        <pt x="55" y="18" on="0"/>
        <pt x="54" y="12" on="1"/>
        <pt x="54" y="6" on="1"/>
        <pt x="24" y="6" on="1"/>
        <pt x="24" y="12" on="1"/>
        <pt x="23" y="18" on="0"/>
        <pt x="12" y="36" on="1"/>
        <pt x="6" y="46" on="0"/>
        <pt x="6" y="54" on="1"/>
        <pt x="6" y="67" on="0"/>
      </contour>
      <contour>
        <pt x="61" y="39" on="1"/>
        <pt x="66" y="48" on="0"/>
        <pt x="66" y="54" on="1"/>
        <pt x="66" y="64" on="0"/>
        <pt x="58" y="71" on="1"/>
        <pt x="50" y="78" on="0"/>
        <pt x="39" y="78" on="1"/>
        <pt x="28" y="78" on="0"/>
        <pt x="12" y="64" on="0"/>
        <pt x="12" y="54" on="1"/>
        <pt x="12" y="48" on="0"/>
        <pt x="17" y="39" on="1"/>
        <pt x="19" y="36" on="0"/>
        <pt x="21" y="32" on="1"/>
        <pt x="29" y="20" on="0"/>
        <pt x="30" y="13" on="1"/>
        <pt x="30" y="13" on="0"/>
        <pt x="30" y="12" on="1"/>
        <pt x="48" y="12" on="1"/>
        <pt x="48" y="13" on="0"/>
        <pt x="48" y="13" on="1"/>
        <pt x="49" y="20" on="0"/>
        <pt x="57" y="32" on="1"/>
        <pt x="59" y="36" on="0"/>
      </contour>
      <contour>
        <pt x="24" y="0" on="1"/>
        <pt x="54" y="0" on="1"/>
        <pt x="52" y="-12" on="0"/>
        <pt x="26" y="-12" on="0"/>
      </contour>
    </TTGlyph>
    <TTGlyph name="link" xMin="6" yMin="6" xMax="96" yMax="66">
      <contour>
        <pt x="24" y="30" on="1"/>
        <pt x="30" y="30" on="1"/>
        <pt x="30" y="24" on="1"/>
        <pt x="24" y="24" on="1"/>
        <pt x="17" y="24" on="0"/>
        <pt x="6" y="37" on="0"/>
        <pt x="6" y="53" on="0"/>
        <pt x="17" y="66" on="0"/>
        <pt x="24" y="66" on="1"/>
        <pt x="48" y="66" on="1"/>
        <pt x="55" y="66" on="0"/>
        <pt x="66" y="53" on="0"/>
        <pt x="66" y="45" on="1"/>
        <pt x="66" y="31" on="0"/>
        <pt x="54" y="26" on="1"/>
        <pt x="54" y="32" on="1"/>
        <pt x="60" y="37" on="0"/>
        <pt x="60" y="45" on="1"/>
        <pt x="60" y="51" on="0"/>
        <pt x="52" y="60" on="0"/>
        <pt x="48" y="60" on="1"/>
        <pt x="24" y="60" on="1"/>
        <pt x="20" y="60" on="0"/>
        <pt x="12" y="51" on="0"/>
        <pt x="12" y="39" on="0"/>
        <pt x="19" y="30" on="0"/>
      </contour>
      <contour>
        <pt x="78" y="48" on="1"/>
        <pt x="85" y="48" on="0"/>
        <pt x="96" y="35" on="0"/>
        <pt x="96" y="19" on="0"/>
        <pt x="85" y="6" on="0"/>
        <pt x="78" y="6" on="1"/>
        <pt x="54" y="6" on="1"/>
        <pt x="47" y="6" on="0"/>
        <pt x="36" y="19" on="0"/>
        <pt x="36" y="27" on="1"/>
        <pt x="36" y="41" on="0"/>
        <pt x="48" y="46" on="1"/>
        <pt x="48" y="40" on="1"/>
        <pt x="42" y="35" on="0"/>
        <pt x="42" y="27" on="1"/>
        <pt x="42" y="21" on="0"/>
        <pt x="50" y="12" on="0"/>
        <pt x="54" y="12" on="1"/>
        <pt x="78" y="12" on="1"/>
        <pt x="82" y="12" on="0"/>
        <pt x="90" y="21" on="0"/>
        <pt x="90" y="33" on="0"/>
        <pt x="83" y="42" on="0"/>
        <pt x="78" y="42" on="1"/>
        <pt x="72" y="42" on="1"/>
        <pt x="72" y="48" on="1"/>
      </contour>
    </TTGlyph>
    <TTGlyph name="link-external" xMin="0" yMin="0" xMax="72" yMax="72">
      <contour>
        <pt x="66" y="24" on="1"/>
        <pt x="72" y="24" on="1"/>
        <pt x="72" y="6" on="1"/>
        <pt x="72" y="0" on="0"/>
        <pt x="66" y="0" on="1"/>
        <pt x="6" y="0" on="1"/>
        <pt x="0" y="0" on="0"/>
        <pt x="0" y="6" on="1"/>
        <pt x="0" y="66" on="1"/>
        <pt x="0" y="72" on="0"/>
        <pt x="6" y="72" on="1"/>
        <pt x="24" y="72" on="1"/>
        <pt x="24" y="66" on="1"/>
        <pt x="6" y="66" on="1"/>
        <pt x="6" y="6" on="1"/>
        <pt x="66" y="6" on="1"/>
      </contour>
      <contour>
        <pt x="36" y="72" on="1"/>
        <pt x="72" y="72" on="1"/>
        <pt x="72" y="36" on="1"/>
        <pt x="58" y="50" on="1"/>
        <pt x="39" y="30" on="1"/>
        <pt x="30" y="39" on="1"/>
        <pt x="50" y="58" on="1"/>
      </contour>
    </TTGlyph>
    <TTGlyph name="list-ordered" xMin="-1" yMin="-6" xMax="72" yMax="78">
      <contour>
        <pt x="72" y="12" on="0"/>
        <pt x="72" y="0" on="0"/>
        <pt x="68" y="0" on="1"/>
        <pt x="28" y="0" on="1"/>
        <pt x="24" y="0" on="0"/>
        <pt x="24" y="12" on="0"/>
        <pt x="28" y="12" on="1"/>
        <pt x="68" y="12" on="1"/>
      </contour>
      <contour>
        <pt x="28" y="60" on="1"/>
        <pt x="24" y="60" on="0"/>
        <pt x="24" y="72" on="0"/>
        <pt x="28" y="72" on="1"/>
        <pt x="68" y="72" on="1"/>
        <pt x="72" y="72" on="0"/>
        <pt x="72" y="60" on="0"/>
        <pt x="68" y="60" on="1"/>
      </contour>
      <contour>
        <pt x="68" y="42" on="1"/>
        <pt x="72" y="42" on="0"/>
        <pt x="72" y="30" on="0"/>
        <pt x="68" y="30" on="1"/>
        <pt x="28" y="30" on="1"/>
        <pt x="24" y="30" on="0"/>
        <pt x="24" y="42" on="0"/>
        <pt x="28" y="42" on="1"/>
      </contour>
      <contour>
        <pt x="12" y="78" on="1"/>
        <pt x="12" y="59" on="1"/>
        <pt x="18" y="59" on="1"/>
        <pt x="18" y="54" on="1"/>
        <pt x="1" y="54" on="1"/>
        <pt x="1" y="59" on="1"/>
        <pt x="6" y="59" on="1"/>
        <pt x="6" y="72" on="1"/>
        <pt x="2" y="72" on="1"/>
        <pt x="2" y="76" on="1"/>
        <pt x="6" y="77" on="0"/>
        <pt x="8" y="78" on="1"/>
      </contour>
      <contour>
        <pt x="14" y="29" on="1"/>
        <pt x="13" y="29" on="1"/>
        <pt x="17" y="29" on="1"/>
        <pt x="18" y="24" on="1"/>
        <pt x="0" y="24" on="1"/>
        <pt x="0" y="27" on="1"/>
        <pt x="10" y="37" on="0"/>
        <pt x="10" y="43" on="0"/>
        <pt x="7" y="43" on="1"/>
        <pt x="6" y="43" on="0"/>
        <pt x="3" y="41" on="1"/>
        <pt x="0" y="44" on="1"/>
        <pt x="4" y="48" on="0"/>
        <pt x="8" y="48" on="1"/>
        <pt x="16" y="48" on="0"/>
        <pt x="16" y="40" on="1"/>
        <pt x="16" y="36" on="0"/>
        <pt x="10" y="29" on="1"/>
        <pt x="12" y="29" on="0"/>
      </contour>
      <contour>
        <pt x="13" y="7" on="1"/>
        <pt x="18" y="5" on="0"/>
        <pt x="18" y="1" on="1"/>
        <pt x="18" y="-6" on="0"/>
        <pt x="8" y="-6" on="1"/>
        <pt x="3" y="-6" on="0"/>
        <pt x="0" y="-3" on="1"/>
        <pt x="3" y="1" on="1"/>
        <pt x="5" y="-1" on="0"/>
        <pt x="8" y="-1" on="1"/>
        <pt x="11" y="-1" on="0"/>
        <pt x="11" y="1" on="1"/>
        <pt x="11" y="4" on="0"/>
        <pt x="5" y="4" on="1"/>
        <pt x="5" y="9" on="1"/>
        <pt x="10" y="9" on="0"/>
        <pt x="10" y="11" on="1"/>
        <pt x="10" y="13" on="0"/>
        <pt x="8" y="13" on="1"/>
        <pt x="6" y="13" on="0"/>
        <pt x="4" y="12" on="1"/>
        <pt x="1" y="15" on="1"/>
        <pt x="4" y="19" on="0"/>
        <pt x="8" y="19" on="1"/>
        <pt x="17" y="19" on="0"/>
        <pt x="17" y="12" on="1"/>
        <pt x="17" y="8" on="0"/>
      </contour>
    </TTGlyph>
    <TTGlyph name="list-unordered" xMin="0" yMin="0" xMax="72" yMax="72">
      <contour>
        <pt x="12" y="12" on="0"/>
        <pt x="12" y="0" on="0"/>
        <pt x="8" y="0" on="1"/>
        <pt x="4" y="0" on="1"/>
        <pt x="0" y="0" on="0"/>
        <pt x="0" y="12" on="0"/>
        <pt x="4" y="12" on="1"/>
        <pt x="8" y="12" on="1"/>
      </contour>
      <contour>
        <pt x="28" y="60" on="1"/>
        <pt x="24" y="60" on="0"/>
        <pt x="24" y="72" on="0"/>
        <pt x="28" y="72" on="1"/>
        <pt x="68" y="72" on="1"/>
        <pt x="72" y="72" on="0"/>
        <pt x="72" y="60" on="0"/>
        <pt x="68" y="60" on="1"/>
      </contour>
      <contour>
        <pt x="8" y="42" on="1"/>
        <pt x="12" y="42" on="0"/>
        <pt x="12" y="30" on="0"/>
        <pt x="8" y="30" on="1"/>
        <pt x="4" y="30" on="1"/>
        <pt x="0" y="30" on="0"/>
        <pt x="0" y="42" on="0"/>
        <pt x="4" y="42" on="1"/>
      </contour>
      <contour>
        <pt x="8" y="72" on="1"/>
        <pt x="12" y="72" on="0"/>
        <pt x="12" y="60" on="0"/>
        <pt x="8" y="60" on="1"/>
        <pt x="4" y="60" on="1"/>
        <pt x="0" y="60" on="0"/>
        <pt x="0" y="72" on="0"/>
        <pt x="4" y="72" on="1"/>
      </contour>
      <contour>
        <pt x="68" y="42" on="1"/>
        <pt x="72" y="42" on="0"/>
        <pt x="72" y="30" on="0"/>
        <pt x="68" y="30" on="1"/>
        <pt x="28" y="30" on="1"/>
        <pt x="24" y="30" on="0"/>
        <pt x="24" y="42" on="0"/>
        <pt x="28" y="42" on="1"/>
      </contour>
      <contour>
        <pt x="68" y="12" on="1"/>
        <pt x="72" y="12" on="0"/>
        <pt x="72" y="0" on="0"/>
        <pt x="68" y="0" on="1"/>
        <pt x="28" y="0" on="1"/>
        <pt x="24" y="0" on="0"/>
        <pt x="24" y="12" on="0"/>
        <pt x="28" y="12" on="1"/>
      </contour>
    </TTGlyph>
    <TTGlyph name="location" xMin="0" yMin="-12" xMax="72" yMax="84">
      <contour>
        <pt x="21" y="84" on="0"/>
        <pt x="51" y="84" on="0"/>
        <pt x="72" y="65" on="0"/>
        <pt x="72" y="51" on="1"/>
        <pt x="72" y="39" on="0"/>
        <pt x="54" y="7" on="0"/>
        <pt x="45" y="-2" on="1"/>
        <pt x="36" y="-12" on="1"/>
        <pt x="0" y="24" on="0"/>
        <pt x="0" y="51" on="1"/>
        <pt x="0" y="65" on="0"/>
      </contour>
      <contour>
        <pt x="36" y="-3" on="1"/>
        <pt x="66" y="29" on="0"/>
        <pt x="66" y="51" on="1"/>
        <pt x="66" y="62" on="0"/>
        <pt x="49" y="78" on="0"/>
        <pt x="36" y="78" on="1"/>
        <pt x="24" y="78" on="0"/>
        <pt x="6" y="62" on="0"/>
        <pt x="6" y="51" on="1"/>
        <pt x="6" y="29" on="0"/>
      </contour>
      <contour>
        <pt x="48" y="63" on="0"/>
        <pt x="48" y="39" on="0"/>
        <pt x="24" y="39" on="0"/>
        <pt x="24" y="63" on="0"/>
      </contour>
    </TTGlyph>
    <TTGlyph name="lock" xMin="0" yMin="-6" xMax="72" yMax="84">
      <contour>
        <pt x="24" y="6" on="1"/>
        <pt x="18" y="6" on="1"/>
        <pt x="18" y="12" on="1"/>
        <pt x="24" y="12" on="1"/>
      </contour>
      <contour>
        <pt x="72" y="42" on="1"/>
        <pt x="72" y="0" on="1"/>
        <pt x="72" y="-6" on="0"/>
        <pt x="66" y="-6" on="1"/>
        <pt x="6" y="-6" on="1"/>
        <pt x="0" y="-6" on="0"/>
        <pt x="0" y="0" on="1"/>
        <pt x="0" y="42" on="1"/>
        <pt x="0" y="48" on="0"/>
        <pt x="6" y="48" on="1"/>
        <pt x="12" y="48" on="1"/>
        <pt x="12" y="60" on="1"/>
        <pt x="12" y="70" on="0"/>
        <pt x="26" y="84" on="0"/>
        <pt x="46" y="84" on="0"/>
        <pt x="60" y="70" on="0"/>
        <pt x="60" y="60" on="1"/>
        <pt x="60" y="48" on="1"/>
        <pt x="66" y="48" on="1"/>
        <pt x="72" y="48" on="0"/>
      </contour>
      <contour>
        <pt x="23" y="48" on="1"/>
        <pt x="49" y="48" on="1"/>
        <pt x="49" y="60" on="1"/>
        <pt x="49" y="65" on="0"/>
        <pt x="42" y="73" on="0"/>
        <pt x="31" y="73" on="0"/>
        <pt x="23" y="65" on="0"/>
        <pt x="23" y="60" on="1"/>
      </contour>
      <contour>
        <pt x="66" y="42" on="1"/>
        <pt x="12" y="42" on="1"/>
        <pt x="12" y="0" on="1"/>
        <pt x="66" y="0" on="1"/>
      </contour>
      <contour>
        <pt x="24" y="36" on="1"/>
        <pt x="24" y="30" on="1"/>
        <pt x="18" y="30" on="1"/>
        <pt x="18" y="36" on="1"/>
      </contour>
      <contour>
        <pt x="24" y="24" on="1"/>
        <pt x="24" y="18" on="1"/>
        <pt x="18" y="18" on="1"/>
        <pt x="18" y="24" on="1"/>
      </contour>
    </TTGlyph>
    <TTGlyph name="logo-gist" xMin="0" yMin="30" xMax="94" yMax="77">
      <contour>
        <pt x="18" y="50" on="1"/>
        <pt x="18" y="54" on="1"/>
        <pt x="32" y="54" on="1"/>
        <pt x="32" y="32" on="1"/>
        <pt x="26" y="30" on="0"/>
        <pt x="18" y="30" on="1"/>
        <pt x="0" y="30" on="0"/>
        <pt x="0" y="76" on="0"/>
        <pt x="18" y="76" on="1"/>
        <pt x="25" y="76" on="0"/>
        <pt x="30" y="74" on="1"/>
        <pt x="30" y="70" on="1"/>
        <pt x="24" y="73" on="0"/>
        <pt x="18" y="73" on="1"/>
        <pt x="4" y="73" on="0"/>
        <pt x="4" y="34" on="0"/>
        <pt x="18" y="34" on="1"/>
        <pt x="25" y="34" on="0"/>
        <pt x="27" y="35" on="1"/>
        <pt x="27" y="50" on="1"/>
      </contour>
      <contour>
        <pt x="43" y="36" on="1"/>
        <pt x="43" y="36" on="1"/>
        <pt x="43" y="33" on="0"/>
        <pt x="45" y="33" on="1"/>
        <pt x="45" y="30" on="1"/>
        <pt x="39" y="30" on="0"/>
        <pt x="39" y="37" on="1"/>
        <pt x="39" y="61" on="1"/>
        <pt x="43" y="61" on="1"/>
      </contour>
      <contour>
        <pt x="44" y="73" on="0"/>
        <pt x="44" y="67" on="0"/>
        <pt x="38" y="67" on="0"/>
        <pt x="38" y="73" on="0"/>
      </contour>
      <contour>
        <pt x="60" y="48" on="1"/>
        <pt x="60" y="48" on="1"/>
        <pt x="71" y="47" on="0"/>
        <pt x="71" y="39" on="1"/>
        <pt x="71" y="30" on="0"/>
        <pt x="59" y="30" on="1"/>
        <pt x="54" y="30" on="0"/>
        <pt x="50" y="32" on="1"/>
        <pt x="50" y="35" on="1"/>
        <pt x="54" y="34" on="0"/>
        <pt x="59" y="34" on="1"/>
        <pt x="67" y="34" on="0"/>
        <pt x="67" y="39" on="1"/>
        <pt x="67" y="44" on="0"/>
        <pt x="60" y="44" on="1"/>
        <pt x="49" y="45" on="0"/>
        <pt x="49" y="52" on="1"/>
        <pt x="49" y="61" on="0"/>
        <pt x="61" y="61" on="1"/>
        <pt x="66" y="61" on="0"/>
        <pt x="69" y="60" on="1"/>
        <pt x="69" y="56" on="1"/>
        <pt x="65" y="57" on="0"/>
        <pt x="61" y="57" on="1"/>
        <pt x="53" y="57" on="0"/>
        <pt x="53" y="52" on="1"/>
        <pt x="53" y="48" on="0"/>
      </contour>
      <contour>
        <pt x="93" y="57" on="1"/>
        <pt x="93" y="57" on="1"/>
        <pt x="84" y="57" on="1"/>
        <pt x="84" y="39" on="1"/>
        <pt x="84" y="34" on="0"/>
        <pt x="90" y="34" on="1"/>
        <pt x="91" y="34" on="0"/>
        <pt x="92" y="34" on="1"/>
        <pt x="92" y="30" on="1"/>
        <pt x="91" y="30" on="0"/>
        <pt x="89" y="30" on="1"/>
        <pt x="80" y="30" on="0"/>
        <pt x="80" y="38" on="1"/>
        <pt x="80" y="57" on="1"/>
        <pt x="74" y="57" on="1"/>
        <pt x="74" y="59" on="1"/>
        <pt x="80" y="61" on="1"/>
        <pt x="80" y="69" on="1"/>
        <pt x="84" y="70" on="1"/>
        <pt x="84" y="61" on="1"/>
        <pt x="93" y="61" on="1"/>
      </contour>
    </TTGlyph>
    <TTGlyph name="logo-github" xMin="0" yMin="53" xMax="96" yMax="80">
      <contour>
        <pt x="40" y="58" on="1"/>
        <pt x="39" y="58" on="1"/>
        <pt x="40" y="58" on="1"/>
      </contour>
      <contour>
        <pt x="40" y="58" on="1"/>
        <pt x="40" y="58" on="1"/>
        <pt x="40" y="55" on="1"/>
        <pt x="40" y="54" on="1"/>
        <pt x="39" y="54" on="0"/>
        <pt x="37" y="54" on="1"/>
        <pt x="31" y="54" on="0"/>
        <pt x="31" y="60" on="1"/>
        <pt x="31" y="67" on="1"/>
        <pt x="28" y="67" on="1"/>
        <pt x="28" y="70" on="1"/>
        <pt x="31" y="71" on="1"/>
        <pt x="31" y="76" on="1"/>
        <pt x="36" y="76" on="1"/>
        <pt x="36" y="71" on="1"/>
        <pt x="39" y="71" on="1"/>
        <pt x="40" y="71" on="1"/>
        <pt x="40" y="67" on="1"/>
        <pt x="39" y="67" on="1"/>
        <pt x="36" y="67" on="1"/>
        <pt x="36" y="60" on="1"/>
        <pt x="36" y="58" on="0"/>
        <pt x="38" y="58" on="1"/>
        <pt x="39" y="58" on="0"/>
        <pt x="39" y="58" on="0"/>
      </contour>
      <contour>
        <pt x="90" y="63" on="1"/>
        <pt x="90" y="68" on="0"/>
        <pt x="87" y="67" on="1"/>
        <pt x="85" y="66" on="1"/>
        <pt x="85" y="59" on="1"/>
        <pt x="86" y="58" on="0"/>
        <pt x="87" y="58" on="1"/>
        <pt x="90" y="58" on="0"/>
      </contour>
      <contour>
        <pt x="95" y="63" on="1"/>
        <pt x="95" y="54" on="0"/>
        <pt x="89" y="54" on="1"/>
        <pt x="83" y="56" on="1"/>
        <pt x="83" y="55" on="0"/>
        <pt x="83" y="55" on="1"/>
        <pt x="83" y="54" on="1"/>
        <pt x="80" y="54" on="1"/>
        <pt x="79" y="55" on="1"/>
        <pt x="79" y="78" on="1"/>
        <pt x="80" y="79" on="1"/>
        <pt x="84" y="79" on="1"/>
        <pt x="85" y="78" on="1"/>
        <pt x="85" y="70" on="1"/>
        <pt x="86" y="72" on="0"/>
        <pt x="89" y="72" on="1"/>
        <pt x="95" y="72" on="0"/>
      </contour>
      <contour>
        <pt x="77" y="71" on="1"/>
        <pt x="77" y="71" on="1"/>
        <pt x="77" y="55" on="1"/>
        <pt x="77" y="54" on="1"/>
        <pt x="74" y="54" on="1"/>
        <pt x="73" y="55" on="1"/>
        <pt x="73" y="56" on="1"/>
        <pt x="71" y="54" on="0"/>
        <pt x="68" y="54" on="1"/>
        <pt x="62" y="54" on="0"/>
        <pt x="62" y="60" on="1"/>
        <pt x="62" y="71" on="1"/>
        <pt x="67" y="71" on="1"/>
        <pt x="67" y="61" on="1"/>
        <pt x="67" y="58" on="0"/>
        <pt x="69" y="58" on="1"/>
        <pt x="72" y="59" on="1"/>
        <pt x="72" y="71" on="1"/>
      </contour>
      <contour>
        <pt x="26" y="71" on="1"/>
        <pt x="26" y="71" on="1"/>
        <pt x="26" y="55" on="1"/>
        <pt x="26" y="54" on="0"/>
        <pt x="26" y="54" on="1"/>
        <pt x="22" y="54" on="1"/>
        <pt x="21" y="54" on="0"/>
        <pt x="21" y="55" on="1"/>
        <pt x="21" y="71" on="1"/>
        <pt x="21" y="71" on="0"/>
        <pt x="22" y="71" on="1"/>
      </contour>
      <contour>
        <pt x="21" y="78" on="0"/>
        <pt x="27" y="78" on="0"/>
        <pt x="27" y="72" on="0"/>
        <pt x="21" y="72" on="0"/>
      </contour>
      <contour>
        <pt x="59" y="79" on="1"/>
        <pt x="59" y="78" on="1"/>
        <pt x="59" y="55" on="1"/>
        <pt x="59" y="54" on="1"/>
        <pt x="55" y="54" on="1"/>
        <pt x="54" y="55" on="1"/>
        <pt x="54" y="65" on="1"/>
        <pt x="47" y="65" on="1"/>
        <pt x="47" y="55" on="1"/>
        <pt x="47" y="54" on="1"/>
        <pt x="42" y="54" on="1"/>
        <pt x="42" y="55" on="1"/>
        <pt x="42" y="78" on="1"/>
        <pt x="42" y="79" on="1"/>
        <pt x="47" y="79" on="1"/>
        <pt x="47" y="78" on="1"/>
        <pt x="47" y="70" on="1"/>
        <pt x="54" y="70" on="1"/>
        <pt x="54" y="78" on="1"/>
        <pt x="55" y="79" on="1"/>
      </contour>
      <contour>
        <pt x="19" y="68" on="1"/>
        <pt x="19" y="56" on="1"/>
        <pt x="16" y="54" on="0"/>
        <pt x="12" y="54" on="1"/>
        <pt x="0" y="54" on="0"/>
        <pt x="0" y="67" on="1"/>
        <pt x="0" y="80" on="0"/>
        <pt x="11" y="80" on="1"/>
        <pt x="16" y="80" on="0"/>
        <pt x="18" y="78" on="1"/>
        <pt x="17" y="74" on="1"/>
        <pt x="14" y="75" on="0"/>
        <pt x="12" y="75" on="1"/>
        <pt x="5" y="75" on="0"/>
        <pt x="5" y="59" on="0"/>
        <pt x="11" y="59" on="1"/>
        <pt x="14" y="59" on="1"/>
        <pt x="14" y="64" on="1"/>
        <pt x="10" y="64" on="1"/>
        <pt x="10" y="68" on="1"/>
        <pt x="10" y="69" on="1"/>
        <pt x="18" y="69" on="1"/>
      </contour>
    </TTGlyph>
    <TTGlyph name="mail" xMin="0" yMin="6" xMax="84" yMax="66">
      <contour>
        <pt x="0" y="60" on="1"/>
        <pt x="0" y="66" on="0"/>
        <pt x="6" y="66" on="1"/>
        <pt x="78" y="66" on="1"/>
        <pt x="84" y="66" on="0"/>
        <pt x="84" y="60" on="1"/>
        <pt x="84" y="12" on="1"/>
        <pt x="84" y="6" on="0"/>
        <pt x="78" y="6" on="1"/>
        <pt x="6" y="6" on="1"/>
        <pt x="0" y="6" on="0"/>
        <pt x="0" y="12" on="1"/>
      </contour>
      <contour>
        <pt x="78" y="60" on="1"/>
        <pt x="6" y="60" on="1"/>
        <pt x="42" y="30" on="1"/>
      </contour>
      <contour>
        <pt x="6" y="51" on="1"/>
        <pt x="6" y="15" on="1"/>
        <pt x="30" y="33" on="1"/>
      </contour>
      <contour>
        <pt x="12" y="12" on="1"/>
        <pt x="72" y="12" on="1"/>
        <pt x="51" y="30" on="1"/>
        <pt x="42" y="21" on="1"/>
        <pt x="33" y="30" on="1"/>
      </contour>
      <contour>
        <pt x="78" y="15" on="1"/>
        <pt x="78" y="51" on="1"/>
        <pt x="54" y="33" on="1"/>
      </contour>
    </TTGlyph>
    <TTGlyph name="mail-read" xMin="0" yMin="-6" xMax="84" yMax="84">
      <contour>
        <pt x="36" y="54" on="1"/>
        <pt x="24" y="54" on="1"/>
        <pt x="24" y="60" on="1"/>
        <pt x="36" y="60" on="1"/>
      </contour>
      <contour>
        <pt x="54" y="48" on="1"/>
        <pt x="54" y="42" on="1"/>
        <pt x="24" y="42" on="1"/>
        <pt x="24" y="48" on="1"/>
      </contour>
      <contour>
        <pt x="84" y="51" on="1"/>
        <pt x="84" y="0" on="1"/>
        <pt x="84" y="-6" on="0"/>
        <pt x="78" y="-6" on="1"/>
        <pt x="6" y="-6" on="1"/>
        <pt x="0" y="-6" on="0"/>
        <pt x="0" y="0" on="1"/>
        <pt x="0" y="51" on="1"/>
        <pt x="0" y="54" on="0"/>
        <pt x="3" y="56" on="1"/>
        <pt x="12" y="63" on="1"/>
        <pt x="12" y="66" on="1"/>
        <pt x="12" y="72" on="0"/>
        <pt x="18" y="72" on="1"/>
        <pt x="25" y="72" on="1"/>
        <pt x="42" y="84" on="1"/>
        <pt x="59" y="72" on="1"/>
        <pt x="66" y="72" on="1"/>
        <pt x="72" y="72" on="0"/>
        <pt x="72" y="66" on="1"/>
        <pt x="72" y="63" on="1"/>
        <pt x="81" y="56" on="1"/>
        <pt x="84" y="54" on="0"/>
      </contour>
      <contour>
        <pt x="18" y="39" on="1"/>
        <pt x="42" y="24" on="1"/>
        <pt x="66" y="39" on="1"/>
        <pt x="66" y="66" on="1"/>
        <pt x="18" y="66" on="1"/>
      </contour>
      <contour>
        <pt x="6" y="3" on="1"/>
        <pt x="33" y="21" on="1"/>
        <pt x="6" y="39" on="1"/>
      </contour>
      <contour>
        <pt x="72" y="0" on="1"/>
        <pt x="42" y="18" on="1"/>
        <pt x="12" y="0" on="1"/>
      </contour>
      <contour>
        <pt x="78" y="39" on="1"/>
        <pt x="51" y="21" on="1"/>
        <pt x="78" y="3" on="1"/>
      </contour>
    </TTGlyph>
    <TTGlyph name="mail-reply" xMin="0" yMin="6" xMax="72" yMax="69">
      <contour>
        <pt x="36" y="69" on="1"/>
        <pt x="36" y="51" on="1"/>
        <pt x="51" y="49" on="0"/>
        <pt x="72" y="26" on="0"/>
        <pt x="72" y="7" on="1"/>
        <pt x="69" y="20" on="0"/>
        <pt x="46" y="33" on="0"/>
        <pt x="36" y="33" on="1"/>
        <pt x="36" y="15" on="1"/>
        <pt x="0" y="42" on="1"/>
      </contour>
    </TTGlyph>
    <TTGlyph name="mark-github" xMin="0" yMin="-11" xMax="96" yMax="84">
      <contour>
        <pt x="28" y="84" on="0"/>
        <pt x="68" y="84" on="0"/>
        <pt x="96" y="56" on="0"/>
        <pt x="96" y="36" on="1"/>
        <pt x="96" y="26" on="0"/>
        <pt x="88" y="7" on="0"/>
        <pt x="73" y="-6" on="0"/>
        <pt x="63" y="-10" on="1"/>
        <pt x="60" y="-10" on="0"/>
        <pt x="60" y="-7" on="1"/>
        <pt x="60" y="-7" on="0"/>
        <pt x="60" y="2" on="0"/>
        <pt x="60" y="6" on="1"/>
        <pt x="60" y="12" on="0"/>
        <pt x="57" y="15" on="1"/>
        <pt x="79" y="17" on="0"/>
        <pt x="79" y="39" on="1"/>
        <pt x="79" y="46" on="0"/>
        <pt x="74" y="51" on="1"/>
        <pt x="76" y="57" on="0"/>
        <pt x="73" y="64" on="1"/>
        <pt x="69" y="65" on="0"/>
        <pt x="60" y="59" on="1"/>
        <pt x="54" y="61" on="0"/>
        <pt x="42" y="61" on="0"/>
        <pt x="36" y="59" on="1"/>
        <pt x="32" y="62" on="0"/>
        <pt x="25" y="64" on="0"/>
        <pt x="24" y="64" on="1"/>
        <pt x="23" y="64" on="1"/>
        <pt x="20" y="57" on="0"/>
        <pt x="22" y="51" on="1"/>
        <pt x="18" y="46" on="0"/>
        <pt x="18" y="39" on="1"/>
        <pt x="18" y="17" on="0"/>
        <pt x="39" y="15" on="1"/>
        <pt x="37" y="13" on="0"/>
        <pt x="36" y="8" on="1"/>
        <pt x="27" y="4" on="0"/>
        <pt x="22" y="12" on="1"/>
        <pt x="19" y="17" on="0"/>
        <pt x="15" y="17" on="1"/>
        <pt x="12" y="17" on="0"/>
        <pt x="13" y="15" on="0"/>
        <pt x="15" y="14" on="1"/>
        <pt x="18" y="12" on="0"/>
        <pt x="20" y="7" on="1"/>
        <pt x="23" y="-1" on="0"/>
        <pt x="36" y="2" on="1"/>
        <pt x="36" y="-1" on="0"/>
        <pt x="36" y="-7" on="0"/>
        <pt x="36" y="-7" on="1"/>
        <pt x="36" y="-10" on="0"/>
        <pt x="33" y="-10" on="1"/>
        <pt x="18" y="-5" on="0"/>
        <pt x="0" y="20" on="0"/>
        <pt x="0" y="36" on="1"/>
        <pt x="0" y="56" on="0"/>
      </contour>
    </TTGlyph>
    <TTGlyph name="markdown" xMin="0" yMin="6" xMax="97" yMax="66">
      <contour>
        <pt x="89" y="66" on="1"/>
        <pt x="96" y="66" on="0"/>
        <pt x="96" y="59" on="1"/>
        <pt x="96" y="13" on="1"/>
        <pt x="96" y="6" on="0"/>
        <pt x="89" y="6" on="1"/>
        <pt x="7" y="6" on="1"/>
        <pt x="0" y="6" on="0"/>
        <pt x="0" y="13" on="1"/>
        <pt x="0" y="59" on="1"/>
        <pt x="0" y="66" on="0"/>
        <pt x="7" y="66" on="1"/>
      </contour>
      <contour>
        <pt x="54" y="18" on="1"/>
        <pt x="54" y="54" on="1"/>
        <pt x="42" y="54" on="1"/>
        <pt x="33" y="42" on="1"/>
        <pt x="24" y="54" on="1"/>
        <pt x="12" y="54" on="1"/>
        <pt x="12" y="18" on="1"/>
        <pt x="24" y="18" on="1"/>
        <pt x="24" y="36" on="1"/>
        <pt x="33" y="24" on="1"/>
        <pt x="42" y="36" on="1"/>
        <pt x="42" y="18" on="1"/>
      </contour>
      <contour>
        <pt x="72" y="15" on="1"/>
        <pt x="87" y="36" on="1"/>
        <pt x="78" y="36" on="1"/>
        <pt x="78" y="54" on="1"/>
        <pt x="66" y="54" on="1"/>
        <pt x="66" y="36" on="1"/>
        <pt x="57" y="36" on="1"/>
      </contour>
    </TTGlyph>
    <TTGlyph name="megaphone" xMin="0" yMin="-6" xMax="96" yMax="78">
      <contour>
        <pt x="60" y="78" on="1"/>
        <pt x="66" y="78" on="0"/>
        <pt x="66" y="72" on="1"/>
        <pt x="66" y="6" on="1"/>
        <pt x="66" y="0" on="0"/>
        <pt x="60" y="0" on="1"/>
        <pt x="58" y="0" on="0"/>
        <pt x="57" y="1" on="1"/>
        <pt x="55" y="2" on="0"/>
        <pt x="48" y="7" on="0"/>
        <pt x="39" y="13" on="0"/>
        <pt x="36" y="15" on="1"/>
        <pt x="36" y="-6" on="1"/>
        <pt x="24" y="-6" on="1"/>
        <pt x="24" y="22" on="1"/>
        <pt x="20" y="23" on="0"/>
        <pt x="18" y="24" on="1"/>
        <pt x="0" y="24" on="0"/>
        <pt x="0" y="54" on="0"/>
        <pt x="18" y="54" on="1"/>
        <pt x="22" y="55" on="0"/>
        <pt x="37" y="64" on="0"/>
        <pt x="55" y="76" on="0"/>
        <pt x="57" y="77" on="1"/>
        <pt x="58" y="78" on="0"/>
      </contour>
      <contour>
        <pt x="60" y="6" on="1"/>
        <pt x="60" y="72" on="1"/>
        <pt x="57" y="70" on="0"/>
        <pt x="51" y="66" on="1"/>
        <pt x="50" y="66" on="0"/>
        <pt x="48" y="64" on="0"/>
        <pt x="48" y="64" on="1"/>
        <pt x="48" y="14" on="1"/>
        <pt x="49" y="14" on="0"/>
        <pt x="51" y="12" on="0"/>
        <pt x="51" y="12" on="1"/>
        <pt x="58" y="7" on="0"/>
      </contour>
      <contour>
        <pt x="72" y="42" on="1"/>
        <pt x="96" y="42" on="1"/>
        <pt x="96" y="36" on="1"/>
        <pt x="72" y="36" on="1"/>
      </contour>
      <contour>
        <pt x="72" y="30" on="1"/>
        <pt x="96" y="18" on="1"/>
        <pt x="96" y="12" on="1"/>
        <pt x="72" y="24" on="1"/>
      </contour>
      <contour>
        <pt x="96" y="66" on="1"/>
        <pt x="96" y="60" on="1"/>
        <pt x="72" y="48" on="1"/>
        <pt x="72" y="54" on="1"/>
      </contour>
    </TTGlyph>
    <TTGlyph name="mention" xMin="0" yMin="-6" xMax="84" yMax="84">
      <contour>
        <pt x="39" y="-6" on="1"/>
        <pt x="22" y="-6" on="0"/>
        <pt x="0" y="15" on="0"/>
        <pt x="0" y="34" on="1"/>
        <pt x="0" y="56" on="0"/>
        <pt x="28" y="84" on="0"/>
        <pt x="47" y="84" on="1"/>
        <pt x="64" y="84" on="0"/>
        <pt x="84" y="63" on="0"/>
        <pt x="84" y="46" on="1"/>
        <pt x="84" y="33" on="0"/>
        <pt x="70" y="16" on="0"/>
        <pt x="61" y="16" on="1"/>
        <pt x="51" y="16" on="0"/>
        <pt x="50" y="25" on="1"/>
        <pt x="43" y="18" on="0"/>
        <pt x="36" y="18" on="1"/>
        <pt x="22" y="18" on="0"/>
        <pt x="22" y="33" on="1"/>
        <pt x="22" y="43" on="0"/>
        <pt x="35" y="60" on="0"/>
        <pt x="44" y="60" on="1"/>
        <pt x="50" y="60" on="0"/>
        <pt x="53" y="55" on="1"/>
        <pt x="54" y="59" on="1"/>
        <pt x="60" y="59" on="1"/>
        <pt x="56" y="36" on="1"/>
        <pt x="53" y="23" on="0"/>
        <pt x="62" y="23" on="1"/>
        <pt x="68" y="23" on="0"/>
        <pt x="77" y="36" on="0"/>
        <pt x="77" y="46" on="1"/>
        <pt x="77" y="56" on="0"/>
        <pt x="70" y="70" on="0"/>
        <pt x="56" y="78" on="0"/>
        <pt x="46" y="78" on="1"/>
        <pt x="30" y="78" on="0"/>
        <pt x="6" y="54" on="0"/>
        <pt x="6" y="35" on="1"/>
        <pt x="6" y="19" on="0"/>
        <pt x="25" y="0" on="0"/>
        <pt x="40" y="0" on="1"/>
        <pt x="50" y="0" on="0"/>
        <pt x="58" y="5" on="1"/>
        <pt x="61" y="0" on="1"/>
        <pt x="52" y="-6" on="0"/>
      </contour>
      <contour>
        <pt x="38" y="24" on="1"/>
        <pt x="43" y="24" on="0"/>
        <pt x="48" y="30" on="1"/>
        <pt x="51" y="48" on="1"/>
        <pt x="48" y="53" on="0"/>
        <pt x="44" y="53" on="1"/>
        <pt x="38" y="53" on="0"/>
        <pt x="29" y="41" on="0"/>
        <pt x="29" y="34" on="1"/>
        <pt x="29" y="24" on="0"/>
      </contour>
    </TTGlyph>
    <TTGlyph name="milestone" xMin="6" yMin="-12" xMax="84" yMax="84">
      <contour>
        <pt x="48" y="72" on="1"/>
        <pt x="36" y="72" on="1"/>
        <pt x="36" y="84" on="1"/>
        <pt x="48" y="84" on="1"/>
      </contour>
      <contour>
        <pt x="72" y="42" on="1"/>
        <pt x="12" y="42" on="1"/>
        <pt x="6" y="42" on="0"/>
        <pt x="6" y="48" on="1"/>
        <pt x="6" y="60" on="1"/>
        <pt x="6" y="66" on="0"/>
        <pt x="12" y="66" on="1"/>
        <pt x="72" y="66" on="1"/>
        <pt x="84" y="54" on="1"/>
      </contour>
      <contour>
        <pt x="48" y="60" on="1"/>
        <pt x="36" y="60" on="1"/>
        <pt x="36" y="48" on="1"/>
        <pt x="48" y="48" on="1"/>
      </contour>
      <contour>
        <pt x="36" y="-12" on="1"/>
        <pt x="36" y="36" on="1"/>
        <pt x="48" y="36" on="1"/>
        <pt x="48" y="-12" on="1"/>
      </contour>
    </TTGlyph>
    <TTGlyph name="mirror" xMin="6" yMin="-12" xMax="96" yMax="84">
      <contour>
        <pt x="93" y="56" on="1"/>
        <pt x="96" y="54" on="0"/>
        <pt x="96" y="51" on="1"/>
        <pt x="96" y="-12" on="1"/>
        <pt x="51" y="12" on="1"/>
        <pt x="6" y="-12" on="1"/>
        <pt x="6" y="51" on="1"/>
        <pt x="6" y="54" on="0"/>
        <pt x="9" y="56" on="1"/>
        <pt x="51" y="84" on="1"/>
      </contour>
      <contour>
        <pt x="90" y="-3" on="1"/>
        <pt x="90" y="51" on="1"/>
        <pt x="54" y="75" on="1"/>
        <pt x="54" y="48" on="1"/>
        <pt x="48" y="48" on="1"/>
        <pt x="48" y="75" on="1"/>
        <pt x="12" y="51" on="1"/>
        <pt x="12" y="-3" on="1"/>
        <pt x="48" y="16" on="1"/>
        <pt x="48" y="24" on="1"/>
        <pt x="54" y="24" on="1"/>
        <pt x="54" y="16" on="1"/>
      </contour>
      <contour>
        <pt x="36" y="42" on="1"/>
        <pt x="66" y="42" on="1"/>
        <pt x="66" y="54" on="1"/>
        <pt x="84" y="36" on="1"/>
        <pt x="66" y="18" on="1"/>
        <pt x="66" y="30" on="1"/>
        <pt x="36" y="30" on="1"/>
        <pt x="36" y="18" on="1"/>
        <pt x="18" y="36" on="1"/>
        <pt x="36" y="54" on="1"/>
      </contour>
    </TTGlyph>
    <TTGlyph name="mortar-board" xMin="0" yMin="5" xMax="96" yMax="68">
      <contour>
        <pt x="47" y="29" on="1"/>
        <pt x="47" y="29" on="1"/>
        <pt x="48" y="29" on="0"/>
        <pt x="49" y="29" on="1"/>
        <pt x="72" y="36" on="1"/>
        <pt x="72" y="21" on="1"/>
        <pt x="72" y="12" on="0"/>
        <pt x="24" y="12" on="0"/>
        <pt x="24" y="21" on="1"/>
        <pt x="24" y="23" on="0"/>
        <pt x="18" y="40" on="1"/>
        <pt x="14" y="54" on="1"/>
        <pt x="17" y="51" on="0"/>
        <pt x="24" y="36" on="1"/>
      </contour>
      <contour>
        <pt x="49" y="67" on="1"/>
        <pt x="94" y="53" on="1"/>
        <pt x="96" y="52" on="0"/>
        <pt x="96" y="49" on="0"/>
        <pt x="94" y="49" on="1"/>
        <pt x="49" y="34" on="1"/>
        <pt x="48" y="34" on="0"/>
        <pt x="47" y="34" on="1"/>
        <pt x="18" y="44" on="1"/>
        <pt x="18" y="35" on="1"/>
        <pt x="21" y="33" on="0"/>
        <pt x="21" y="30" on="1"/>
        <pt x="21" y="28" on="0"/>
        <pt x="20" y="27" on="1"/>
        <pt x="21" y="26" on="0"/>
        <pt x="21" y="24" on="1"/>
        <pt x="21" y="8" on="1"/>
        <pt x="21" y="6" on="0"/>
        <pt x="9" y="6" on="0"/>
        <pt x="9" y="8" on="1"/>
        <pt x="9" y="24" on="1"/>
        <pt x="9" y="25" on="0"/>
        <pt x="10" y="27" on="1"/>
        <pt x="9" y="28" on="0"/>
        <pt x="9" y="30" on="1"/>
        <pt x="9" y="33" on="0"/>
        <pt x="12" y="35" on="1"/>
        <pt x="12" y="46" on="1"/>
        <pt x="2" y="49" on="1"/>
        <pt x="0" y="49" on="0"/>
        <pt x="0" y="52" on="0"/>
        <pt x="2" y="53" on="1"/>
        <pt x="47" y="67" on="1"/>
        <pt x="48" y="67" on="0"/>
      </contour>
      <contour>
        <pt x="42" y="48" on="0"/>
        <pt x="54" y="48" on="0"/>
        <pt x="54" y="54" on="0"/>
        <pt x="42" y="54" on="0"/>
      </contour>
    </TTGlyph>
    <TTGlyph name="mute" xMin="0" yMin="-1" xMax="94" yMax="73">
      <contour>
        <pt x="48" y="67" on="1"/>
        <pt x="48" y="5" on="1"/>
        <pt x="48" y="2" on="0"/>
        <pt x="42" y="0" on="0"/>
        <pt x="40" y="2" on="1"/>
        <pt x="18" y="24" on="1"/>
        <pt x="6" y="24" on="1"/>
        <pt x="0" y="24" on="0"/>
        <pt x="0" y="30" on="1"/>
        <pt x="0" y="42" on="1"/>
        <pt x="0" y="48" on="0"/>
        <pt x="6" y="48" on="1"/>
        <pt x="18" y="48" on="1"/>
        <pt x="40" y="70" on="1"/>
        <pt x="42" y="72" on="0"/>
        <pt x="48" y="70" on="0"/>
      </contour>
      <contour>
        <pt x="93" y="48" on="1"/>
        <pt x="81" y="36" on="1"/>
        <pt x="93" y="24" on="1"/>
        <pt x="87" y="18" on="1"/>
        <pt x="75" y="30" on="1"/>
        <pt x="63" y="18" on="1"/>
        <pt x="57" y="24" on="1"/>
        <pt x="69" y="36" on="1"/>
        <pt x="57" y="48" on="1"/>
        <pt x="63" y="54" on="1"/>
        <pt x="75" y="42" on="1"/>
        <pt x="87" y="54" on="1"/>
      </contour>
    </TTGlyph>
    <TTGlyph name="no-newline" xMin="0" yMin="12" xMax="96" yMax="60">
      <contour>
        <pt x="96" y="54" on="1"/>
        <pt x="96" y="36" on="1"/>
        <pt x="96" y="30" on="0"/>
        <pt x="90" y="30" on="1"/>
        <pt x="72" y="30" on="1"/>
        <pt x="72" y="18" on="1"/>
        <pt x="54" y="36" on="1"/>
        <pt x="72" y="54" on="1"/>
        <pt x="72" y="42" on="1"/>
        <pt x="84" y="42" on="1"/>
        <pt x="84" y="54" on="1"/>
      </contour>
      <contour>
        <pt x="48" y="46" on="0"/>
        <pt x="48" y="26" on="0"/>
        <pt x="34" y="12" on="0"/>
        <pt x="14" y="12" on="0"/>
        <pt x="0" y="26" on="0"/>
        <pt x="0" y="46" on="0"/>
        <pt x="14" y="60" on="0"/>
        <pt x="34" y="60" on="0"/>
      </contour>
      <contour>
        <pt x="9" y="26" on="1"/>
        <pt x="34" y="51" on="1"/>
        <pt x="29" y="54" on="0"/>
        <pt x="24" y="54" on="1"/>
        <pt x="17" y="54" on="0"/>
        <pt x="6" y="43" on="0"/>
        <pt x="6" y="36" on="1"/>
        <pt x="6" y="31" on="0"/>
      </contour>
      <contour>
        <pt x="42" y="36" on="1"/>
        <pt x="42" y="41" on="0"/>
        <pt x="39" y="46" on="1"/>
        <pt x="14" y="21" on="1"/>
        <pt x="19" y="18" on="0"/>
        <pt x="24" y="18" on="1"/>
        <pt x="31" y="18" on="0"/>
        <pt x="42" y="29" on="0"/>
      </contour>
    </TTGlyph>
    <TTGlyph name="octoface" xMin="0" yMin="-6" xMax="96" yMax="74">
      <contour>
        <pt x="88" y="52" on="1"/>
        <pt x="96" y="44" on="0"/>
        <pt x="96" y="32" on="1"/>
        <pt x="96" y="17" on="0"/>
        <pt x="83" y="0" on="0"/>
        <pt x="63" y="-6" on="0"/>
        <pt x="48" y="-6" on="1"/>
        <pt x="25" y="-6" on="0"/>
        <pt x="0" y="10" on="0"/>
        <pt x="0" y="32" on="1"/>
        <pt x="0" y="44" on="0"/>
        <pt x="8" y="52" on="1"/>
        <pt x="4" y="61" on="0"/>
        <pt x="9" y="72" on="1"/>
        <pt x="15" y="74" on="0"/>
        <pt x="29" y="64" on="1"/>
        <pt x="36" y="66" on="0"/>
        <pt x="60" y="66" on="0"/>
        <pt x="67" y="64" on="1"/>
        <pt x="71" y="67" on="0"/>
        <pt x="78" y="70" on="0"/>
        <pt x="83" y="72" on="0"/>
        <pt x="86" y="72" on="0"/>
        <pt x="87" y="72" on="1"/>
        <pt x="92" y="61" on="0"/>
      </contour>
      <contour>
        <pt x="48" y="0" on="1"/>
        <pt x="60" y="0" on="0"/>
        <pt x="73" y="2" on="0"/>
        <pt x="84" y="11" on="0"/>
        <pt x="84" y="20" on="1"/>
        <pt x="84" y="27" on="0"/>
        <pt x="78" y="32" on="1"/>
        <pt x="75" y="35" on="0"/>
        <pt x="67" y="36" on="0"/>
        <pt x="51" y="35" on="0"/>
        <pt x="48" y="35" on="1"/>
        <pt x="45" y="35" on="0"/>
        <pt x="34" y="36" on="0"/>
        <pt x="28" y="36" on="0"/>
        <pt x="20" y="34" on="0"/>
        <pt x="18" y="32" on="1"/>
        <pt x="12" y="27" on="0"/>
        <pt x="12" y="20" on="1"/>
        <pt x="12" y="7" on="0"/>
        <pt x="30" y="0" on="0"/>
      </contour>
      <contour>
        <pt x="26" y="30" on="0"/>
        <pt x="40" y="30" on="0"/>
        <pt x="40" y="9" on="0"/>
        <pt x="26" y="9" on="0"/>
      </contour>
      <contour>
        <pt x="56" y="30" on="0"/>
        <pt x="70" y="30" on="0"/>
        <pt x="70" y="9" on="0"/>
        <pt x="56" y="9" on="0"/>
      </contour>
    </TTGlyph>
    <TTGlyph name="organization" xMin="0" yMin="0" xMax="96" yMax="78">
      <contour>
        <pt x="96" y="6" on="1"/>
        <pt x="96" y="0" on="0"/>
        <pt x="90" y="0" on="1"/>
        <pt x="48" y="0" on="1"/>
        <pt x="42" y="0" on="0"/>
        <pt x="42" y="6" on="1"/>
        <pt x="6" y="6" on="1"/>
        <pt x="0" y="6" on="0"/>
        <pt x="0" y="12" on="1"/>
        <pt x="0" y="19" on="0"/>
        <pt x="9" y="31" on="0"/>
        <pt x="14" y="34" on="1"/>
        <pt x="18" y="36" on="1"/>
        <pt x="19" y="38" on="0"/>
        <pt x="18" y="42" on="1"/>
        <pt x="12" y="47" on="0"/>
        <pt x="12" y="60" on="1"/>
        <pt x="12" y="78" on="0"/>
        <pt x="42" y="78" on="0"/>
        <pt x="42" y="60" on="1"/>
        <pt x="42" y="47" on="0"/>
        <pt x="36" y="42" on="1"/>
        <pt x="36" y="36" on="1"/>
        <pt x="45" y="32" on="0"/>
        <pt x="51" y="23" on="1"/>
        <pt x="60" y="30" on="1"/>
        <pt x="61" y="32" on="0"/>
        <pt x="60" y="36" on="1"/>
        <pt x="60" y="36" on="0"/>
        <pt x="59" y="37" on="1"/>
        <pt x="54" y="41" on="0"/>
        <pt x="54" y="54" on="1"/>
        <pt x="54" y="72" on="0"/>
        <pt x="84" y="72" on="0"/>
        <pt x="84" y="54" on="1"/>
        <pt x="84" y="47" on="0"/>
        <pt x="83" y="40" on="0"/>
        <pt x="81" y="38" on="0"/>
        <pt x="78" y="36" on="1"/>
        <pt x="78" y="30" on="1"/>
        <pt x="96" y="22" on="0"/>
        <pt x="96" y="6" on="1"/>
      </contour>
    </TTGlyph>
    <TTGlyph name="package" xMin="6" yMin="-4" xMax="96" yMax="75">
      <contour>
        <pt x="6" y="58" on="1"/>
        <pt x="6" y="63" on="0"/>
        <pt x="10" y="64" on="1"/>
        <pt x="50" y="75" on="1"/>
        <pt x="51" y="75" on="0"/>
        <pt x="52" y="75" on="1"/>
        <pt x="92" y="64" on="1"/>
        <pt x="96" y="63" on="0"/>
        <pt x="96" y="58" on="1"/>
        <pt x="96" y="14" on="1"/>
        <pt x="96" y="9" on="0"/>
        <pt x="92" y="8" on="1"/>
        <pt x="52" y="-3" on="1"/>
        <pt x="51" y="-3" on="0"/>
        <pt x="50" y="-3" on="1"/>
        <pt x="10" y="8" on="1"/>
        <pt x="6" y="9" on="0"/>
        <pt x="6" y="14" on="1"/>
      </contour>
      <contour>
        <pt x="48" y="4" on="1"/>
        <pt x="48" y="44" on="1"/>
        <pt x="12" y="54" on="1"/>
        <pt x="12" y="13" on="1"/>
      </contour>
      <contour>
        <pt x="12" y="60" on="1"/>
        <pt x="51" y="50" on="1"/>
        <pt x="66" y="54" on="1"/>
        <pt x="27" y="64" on="1"/>
      </contour>
      <contour>
        <pt x="90" y="13" on="1"/>
        <pt x="90" y="54" on="1"/>
        <pt x="78" y="51" on="1"/>
        <pt x="78" y="36" on="1"/>
        <pt x="66" y="33" on="1"/>
        <pt x="66" y="48" on="1"/>
        <pt x="54" y="44" on="1"/>
        <pt x="54" y="4" on="1"/>
      </contour>
      <contour>
        <pt x="78" y="57" on="1"/>
        <pt x="90" y="60" on="1"/>
        <pt x="51" y="70" on="1"/>
        <pt x="39" y="67" on="1"/>
      </contour>
    </TTGlyph>
    <TTGlyph name="paintcan" xMin="0" yMin="-6" xMax="72" yMax="84">
      <contour>
        <pt x="21" y="84" on="0"/>
        <pt x="51" y="84" on="0"/>
        <pt x="72" y="63" on="0"/>
        <pt x="72" y="48" on="1"/>
        <pt x="72" y="42" on="1"/>
        <pt x="72" y="36" on="0"/>
        <pt x="66" y="36" on="1"/>
        <pt x="66" y="6" on="1"/>
        <pt x="66" y="-6" on="0"/>
        <pt x="6" y="-6" on="0"/>
        <pt x="6" y="6" on="1"/>
        <pt x="6" y="36" on="1"/>
        <pt x="0" y="36" on="0"/>
        <pt x="0" y="42" on="1"/>
        <pt x="0" y="48" on="1"/>
        <pt x="0" y="63" on="0"/>
      </contour>
      <contour>
        <pt x="54" y="24" on="1"/>
        <pt x="60" y="24" on="0"/>
        <pt x="60" y="30" on="1"/>
        <pt x="60" y="41" on="1"/>
        <pt x="51" y="36" on="0"/>
        <pt x="21" y="36" on="0"/>
        <pt x="12" y="41" on="1"/>
        <pt x="12" y="30" on="1"/>
        <pt x="12" y="24" on="0"/>
        <pt x="18" y="24" on="1"/>
        <pt x="18" y="18" on="1"/>
        <pt x="18" y="12" on="0"/>
        <pt x="30" y="12" on="0"/>
        <pt x="30" y="18" on="1"/>
        <pt x="30" y="21" on="1"/>
        <pt x="30" y="24" on="0"/>
        <pt x="36" y="24" on="0"/>
        <pt x="36" y="21" on="1"/>
        <pt x="36" y="9" on="1"/>
        <pt x="36" y="6" on="0"/>
        <pt x="42" y="6" on="0"/>
        <pt x="42" y="9" on="1"/>
        <pt x="42" y="24" on="1"/>
        <pt x="42" y="27" on="0"/>
        <pt x="48" y="27" on="0"/>
        <pt x="48" y="24" on="1"/>
        <pt x="48" y="21" on="1"/>
        <pt x="48" y="18" on="0"/>
        <pt x="54" y="18" on="0"/>
        <pt x="54" y="21" on="1"/>
      </contour>
      <contour>
        <pt x="20" y="42" on="0"/>
        <pt x="52" y="42" on="0"/>
        <pt x="58" y="48" on="1"/>
        <pt x="52" y="54" on="0"/>
        <pt x="20" y="54" on="0"/>
        <pt x="14" y="48" on="1"/>
      </contour>
      <contour>
        <pt x="6" y="60" on="0"/>
        <pt x="66" y="60" on="0"/>
        <pt x="66" y="48" on="1"/>
        <pt x="66" y="60" on="0"/>
        <pt x="48" y="78" on="0"/>
        <pt x="24" y="78" on="0"/>
        <pt x="6" y="60" on="0"/>
        <pt x="6" y="48" on="1"/>
      </contour>
    </TTGlyph>
    <TTGlyph name="pencil" xMin="0" yMin="-6" xMax="85" yMax="79">
      <contour>
        <pt x="0" y="12" on="1"/>
        <pt x="48" y="60" on="1"/>
        <pt x="66" y="42" on="1"/>
        <pt x="18" y="-6" on="1"/>
        <pt x="0" y="-6" on="1"/>
      </contour>
      <contour>
        <pt x="18" y="0" on="1"/>
        <pt x="18" y="6" on="1"/>
        <pt x="12" y="6" on="1"/>
        <pt x="12" y="12" on="1"/>
        <pt x="6" y="12" on="1"/>
        <pt x="6" y="0" on="1"/>
      </contour>
      <contour>
        <pt x="80" y="56" on="1"/>
        <pt x="72" y="48" on="1"/>
        <pt x="54" y="66" on="1"/>
        <pt x="62" y="74" on="1"/>
        <pt x="66" y="78" on="0"/>
        <pt x="70" y="74" on="1"/>
        <pt x="80" y="64" on="1"/>
        <pt x="84" y="60" on="0"/>
      </contour>
    </TTGlyph>
    <TTGlyph name="person" xMin="0" yMin="-6" xMax="72" yMax="78">
      <contour>
        <pt x="72" y="0" on="1"/>
        <pt x="72" y="-6" on="0"/>
        <pt x="66" y="-6" on="1"/>
        <pt x="6" y="-6" on="1"/>
        <pt x="0" y="-6" on="0"/>
        <pt x="0" y="0" on="1"/>
        <pt x="0" y="6" on="1"/>
        <pt x="0" y="13" on="0"/>
        <pt x="12" y="25" on="0"/>
        <pt x="18" y="28" on="1"/>
        <pt x="24" y="30" on="1"/>
        <pt x="25" y="32" on="0"/>
        <pt x="24" y="36" on="1"/>
        <pt x="18" y="40" on="0"/>
        <pt x="18" y="60" on="1"/>
        <pt x="19" y="78" on="0"/>
        <pt x="53" y="78" on="0"/>
        <pt x="54" y="60" on="1"/>
        <pt x="54" y="40" on="0"/>
        <pt x="48" y="36" on="1"/>
        <pt x="48" y="30" on="1"/>
        <pt x="72" y="22" on="0"/>
        <pt x="72" y="6" on="1"/>
      </contour>
    </TTGlyph>
    <TTGlyph name="pin" xMin="6" yMin="-6" xMax="93" yMax="81">
      <contour>
        <pt x="60" y="77" on="1"/>
        <pt x="60" y="79" on="0"/>
        <pt x="64" y="80" on="0"/>
        <pt x="65" y="79" on="1"/>
        <pt x="91" y="53" on="1"/>
        <pt x="92" y="52" on="0"/>
        <pt x="91" y="48" on="0"/>
        <pt x="89" y="48" on="1"/>
        <pt x="84" y="48" on="1"/>
        <pt x="78" y="51" on="1"/>
        <pt x="60" y="24" on="1"/>
        <pt x="60" y="1" on="1"/>
        <pt x="60" y="-1" on="0"/>
        <pt x="56" y="-2" on="0"/>
        <pt x="55" y="-1" on="1"/>
        <pt x="36" y="18" on="1"/>
        <pt x="6" y="-6" on="1"/>
        <pt x="30" y="24" on="1"/>
        <pt x="11" y="43" on="1"/>
        <pt x="10" y="44" on="0"/>
        <pt x="11" y="48" on="0"/>
        <pt x="13" y="48" on="1"/>
        <pt x="36" y="48" on="1"/>
        <pt x="63" y="66" on="1"/>
        <pt x="60" y="72" on="1"/>
      </contour>
    </TTGlyph>
    <TTGlyph name="plug" xMin="0" yMin="12" xMax="84" yMax="66">
      <contour>
        <pt x="84" y="48" on="1"/>
        <pt x="60" y="48" on="1"/>
        <pt x="60" y="30" on="1"/>
        <pt x="84" y="30" on="1"/>
        <pt x="84" y="24" on="1"/>
        <pt x="60" y="24" on="1"/>
        <pt x="60" y="12" on="1"/>
        <pt x="48" y="12" on="1"/>
        <pt x="48" y="18" on="1"/>
        <pt x="36" y="18" on="1"/>
        <pt x="27" y="18" on="0"/>
        <pt x="24" y="30" on="1"/>
        <pt x="18" y="36" on="1"/>
        <pt x="6" y="36" on="0"/>
        <pt x="6" y="24" on="1"/>
        <pt x="6" y="12" on="1"/>
        <pt x="0" y="12" on="1"/>
        <pt x="0" y="24" on="1"/>
        <pt x="0" y="31" on="0"/>
        <pt x="11" y="42" on="0"/>
        <pt x="18" y="42" on="1"/>
        <pt x="24" y="48" on="1"/>
        <pt x="26" y="60" on="0"/>
        <pt x="36" y="60" on="1"/>
        <pt x="48" y="60" on="1"/>
        <pt x="48" y="66" on="1"/>
        <pt x="60" y="66" on="1"/>
        <pt x="60" y="54" on="1"/>
        <pt x="84" y="54" on="1"/>
      </contour>
    </TTGlyph>
    <TTGlyph name="plus" xMin="0" yMin="0" xMax="72" yMax="72">
      <contour>
        <pt x="72" y="30" on="1"/>
        <pt x="42" y="30" on="1"/>
        <pt x="42" y="0" on="1"/>
        <pt x="30" y="0" on="1"/>
        <pt x="30" y="30" on="1"/>
        <pt x="0" y="30" on="1"/>
        <pt x="0" y="42" on="1"/>
        <pt x="30" y="42" on="1"/>
        <pt x="30" y="72" on="1"/>
        <pt x="42" y="72" on="1"/>
        <pt x="42" y="42" on="1"/>
        <pt x="72" y="42" on="1"/>
      </contour>
    </TTGlyph>
    <TTGlyph name="plus-small" xMin="0" yMin="18" xMax="42" yMax="60">
      <contour>
        <pt x="24" y="42" on="1"/>
        <pt x="42" y="42" on="1"/>
        <pt x="42" y="36" on="1"/>
        <pt x="24" y="36" on="1"/>
        <pt x="24" y="18" on="1"/>
        <pt x="18" y="18" on="1"/>
        <pt x="18" y="36" on="1"/>
        <pt x="0" y="36" on="1"/>
        <pt x="0" y="42" on="1"/>
        <pt x="18" y="42" on="1"/>
        <pt x="18" y="60" on="1"/>
        <pt x="24" y="60" on="1"/>
      </contour>
    </TTGlyph>
    <TTGlyph name="primitive-dot" xMin="0" yMin="12" xMax="48" yMax="60">
      <contour>
        <pt x="0" y="26" on="0"/>
        <pt x="0" y="46" on="0"/>
        <pt x="14" y="60" on="0"/>
        <pt x="34" y="60" on="0"/>
        <pt x="48" y="46" on="0"/>
        <pt x="48" y="26" on="0"/>
        <pt x="34" y="12" on="0"/>
        <pt x="14" y="12" on="0"/>
      </contour>
    </TTGlyph>
    <TTGlyph name="primitive-square" xMin="0" yMin="12" xMax="48" yMax="60">
      <contour>
        <pt x="48" y="12" on="1"/>
        <pt x="0" y="12" on="1"/>
        <pt x="0" y="60" on="1"/>
        <pt x="48" y="60" on="1"/>
      </contour>
    </TTGlyph>
    <TTGlyph name="pulse" xMin="0" yMin="2" xMax="84" yMax="75">
      <contour>
        <pt x="69" y="36" on="1"/>
        <pt x="84" y="36" on="1"/>
        <pt x="84" y="24" on="1"/>
        <pt x="64" y="24" on="1"/>
        <pt x="54" y="33" on="1"/>
        <pt x="32" y="2" on="1"/>
        <pt x="27" y="35" on="1"/>
        <pt x="22" y="24" on="1"/>
        <pt x="0" y="24" on="1"/>
        <pt x="0" y="36" on="1"/>
        <pt x="14" y="36" on="1"/>
        <pt x="33" y="74" on="1"/>
        <pt x="40" y="33" on="1"/>
        <pt x="53" y="52" on="1"/>
      </contour>
    </TTGlyph>
    <TTGlyph name="question" xMin="0" yMin="-6" xMax="84" yMax="78">
      <contour>
        <pt x="36" y="24" on="1"/>
        <pt x="48" y="24" on="1"/>
        <pt x="48" y="12" on="1"/>
        <pt x="36" y="12" on="1"/>
      </contour>
      <contour>
        <pt x="60" y="45" on="1"/>
        <pt x="60" y="39" on="0"/>
        <pt x="54" y="32" on="0"/>
        <pt x="51" y="31" on="1"/>
        <pt x="48" y="30" on="1"/>
        <pt x="36" y="30" on="1"/>
        <pt x="36" y="36" on="0"/>
        <pt x="42" y="36" on="1"/>
        <pt x="45" y="36" on="1"/>
        <pt x="48" y="36" on="0"/>
        <pt x="48" y="39" on="1"/>
        <pt x="48" y="45" on="1"/>
        <pt x="48" y="48" on="0"/>
        <pt x="45" y="48" on="1"/>
        <pt x="39" y="48" on="1"/>
        <pt x="36" y="48" on="0"/>
        <pt x="36" y="45" on="1"/>
        <pt x="36" y="42" on="1"/>
        <pt x="24" y="42" on="1"/>
        <pt x="24" y="49" on="0"/>
        <pt x="35" y="60" on="0"/>
        <pt x="42" y="60" on="1"/>
        <pt x="60" y="60" on="0"/>
      </contour>
      <contour>
        <pt x="56" y="70" on="0"/>
        <pt x="28" y="70" on="0"/>
        <pt x="8" y="50" on="0"/>
        <pt x="8" y="22" on="0"/>
        <pt x="28" y="2" on="0"/>
        <pt x="56" y="2" on="0"/>
        <pt x="76" y="22" on="0"/>
        <pt x="76" y="50" on="0"/>
      </contour>
      <contour>
        <pt x="25" y="78" on="0"/>
        <pt x="59" y="78" on="0"/>
        <pt x="84" y="53" on="0"/>
        <pt x="84" y="19" on="0"/>
        <pt x="59" y="-6" on="0"/>
        <pt x="25" y="-6" on="0"/>
        <pt x="0" y="19" on="0"/>
        <pt x="0" y="53" on="0"/>
      </contour>
    </TTGlyph>
    <TTGlyph name="quote" xMin="0" yMin="-2" xMax="79" yMax="75">
      <contour>
        <pt x="37" y="63" on="1"/>
        <pt x="15" y="49" on="0"/>
        <pt x="15" y="28" on="1"/>
        <pt x="16" y="28" on="0"/>
        <pt x="18" y="28" on="1"/>
        <pt x="24" y="28" on="0"/>
        <pt x="33" y="20" on="0"/>
        <pt x="33" y="14" on="1"/>
        <pt x="33" y="-2" on="0"/>
        <pt x="18" y="-2" on="1"/>
        <pt x="0" y="-2" on="0"/>
        <pt x="0" y="24" on="1"/>
        <pt x="0" y="57" on="0"/>
        <pt x="30" y="74" on="1"/>
      </contour>
      <contour>
        <pt x="79" y="63" on="1"/>
        <pt x="57" y="49" on="0"/>
        <pt x="57" y="28" on="1"/>
        <pt x="58" y="28" on="0"/>
        <pt x="60" y="28" on="1"/>
        <pt x="64" y="28" on="0"/>
        <pt x="71" y="25" on="0"/>
        <pt x="75" y="18" on="0"/>
        <pt x="75" y="14" on="1"/>
        <pt x="75" y="-2" on="0"/>
        <pt x="60" y="-2" on="1"/>
        <pt x="42" y="-2" on="0"/>
        <pt x="42" y="24" on="1"/>
        <pt x="42" y="57" on="0"/>
        <pt x="72" y="74" on="1"/>
      </contour>
    </TTGlyph>
    <TTGlyph name="radio-tower" xMin="0" yMin="-6" xMax="96" yMax="84">
      <contour>
        <pt x="32" y="50" on="0"/>
        <pt x="26" y="45" on="0"/>
        <pt x="23" y="47" on="1"/>
        <pt x="18" y="53" on="0"/>
        <pt x="18" y="67" on="0"/>
        <pt x="23" y="73" on="1"/>
        <pt x="24" y="74" on="0"/>
        <pt x="28" y="74" on="0"/>
        <pt x="29" y="73" on="1"/>
        <pt x="31" y="70" on="0"/>
        <pt x="26" y="64" on="0"/>
        <pt x="26" y="56" on="0"/>
        <pt x="29" y="53" on="1"/>
      </contour>
      <contour>
        <pt x="14" y="81" on="1"/>
        <pt x="17" y="78" on="0"/>
        <pt x="14" y="75" on="1"/>
        <pt x="8" y="69" on="0"/>
        <pt x="8" y="51" on="0"/>
        <pt x="14" y="45" on="1"/>
        <pt x="17" y="42" on="0"/>
        <pt x="11" y="36" on="0"/>
        <pt x="8" y="39" on="1"/>
        <pt x="0" y="48" on="0"/>
        <pt x="0" y="72" on="0"/>
        <pt x="8" y="81" on="1"/>
        <pt x="10" y="82" on="0"/>
        <pt x="13" y="82" on="0"/>
      </contour>
      <contour>
        <pt x="58" y="50" on="0"/>
        <pt x="38" y="50" on="0"/>
        <pt x="38" y="70" on="0"/>
        <pt x="58" y="70" on="0"/>
      </contour>
      <contour>
        <pt x="88" y="81" on="1"/>
        <pt x="96" y="72" on="0"/>
        <pt x="96" y="48" on="0"/>
        <pt x="88" y="39" on="1"/>
        <pt x="86" y="38" on="0"/>
        <pt x="83" y="38" on="0"/>
        <pt x="82" y="39" on="1"/>
        <pt x="79" y="42" on="0"/>
        <pt x="82" y="45" on="1"/>
        <pt x="88" y="51" on="0"/>
        <pt x="88" y="69" on="0"/>
        <pt x="82" y="75" on="1"/>
        <pt x="79" y="78" on="0"/>
        <pt x="85" y="84" on="0"/>
      </contour>
      <contour>
        <pt x="44" y="42" on="0"/>
        <pt x="52" y="42" on="0"/>
        <pt x="55" y="44" on="1"/>
        <pt x="74" y="-6" on="1"/>
        <pt x="65" y="-6" on="1"/>
        <pt x="60" y="0" on="1"/>
        <pt x="36" y="0" on="1"/>
        <pt x="31" y="-6" on="1"/>
        <pt x="22" y="-6" on="1"/>
        <pt x="41" y="44" on="1"/>
      </contour>
      <contour>
        <pt x="48" y="40" on="1"/>
        <pt x="42" y="18" on="1"/>
        <pt x="54" y="18" on="1"/>
      </contour>
      <contour>
        <pt x="36" y="6" on="1"/>
        <pt x="60" y="6" on="1"/>
        <pt x="54" y="12" on="1"/>
        <pt x="42" y="12" on="1"/>
      </contour>
      <contour>
        <pt x="64" y="70" on="0"/>
        <pt x="70" y="75" on="0"/>
        <pt x="73" y="73" on="1"/>
        <pt x="78" y="67" on="0"/>
        <pt x="78" y="53" on="0"/>
        <pt x="73" y="47" on="1"/>
        <pt x="72" y="46" on="0"/>
        <pt x="68" y="46" on="0"/>
        <pt x="67" y="47" on="1"/>
        <pt x="65" y="50" on="0"/>
        <pt x="70" y="56" on="0"/>
        <pt x="70" y="64" on="0"/>
        <pt x="67" y="67" on="1"/>
      </contour>
    </TTGlyph>
    <TTGlyph name="reply" xMin="3" yMin="3" xMax="84" yMax="84">
      <contour>
        <pt x="36" y="63" on="1"/>
        <pt x="56" y="61" on="0"/>
        <pt x="84" y="32" on="0"/>
        <pt x="84" y="3" on="1"/>
        <pt x="68" y="39" on="0"/>
        <pt x="36" y="39" on="1"/>
        <pt x="36" y="18" on="1"/>
        <pt x="3" y="51" on="1"/>
        <pt x="36" y="84" on="1"/>
      </contour>
    </TTGlyph>
    <TTGlyph name="repo" xMin="0" yMin="-12" xMax="72" yMax="84">
      <contour>
        <pt x="24" y="30" on="1"/>
        <pt x="18" y="30" on="1"/>
        <pt x="18" y="36" on="1"/>
        <pt x="24" y="36" on="1"/>
      </contour>
      <contour>
        <pt x="24" y="48" on="1"/>
        <pt x="24" y="42" on="1"/>
        <pt x="18" y="42" on="1"/>
        <pt x="18" y="48" on="1"/>
      </contour>
      <contour>
        <pt x="24" y="60" on="1"/>
        <pt x="24" y="54" on="1"/>
        <pt x="18" y="54" on="1"/>
        <pt x="18" y="60" on="1"/>
      </contour>
      <contour>
        <pt x="24" y="72" on="1"/>
        <pt x="24" y="66" on="1"/>
        <pt x="18" y="66" on="1"/>
        <pt x="18" y="72" on="1"/>
      </contour>
      <contour>
        <pt x="72" y="78" on="1"/>
        <pt x="72" y="6" on="1"/>
        <pt x="72" y="0" on="0"/>
        <pt x="66" y="0" on="1"/>
        <pt x="36" y="0" on="1"/>
        <pt x="36" y="-12" on="1"/>
        <pt x="27" y="-3" on="1"/>
        <pt x="18" y="-12" on="1"/>
        <pt x="18" y="0" on="1"/>
        <pt x="6" y="0" on="1"/>
        <pt x="0" y="0" on="0"/>
        <pt x="0" y="6" on="1"/>
        <pt x="0" y="78" on="1"/>
        <pt x="0" y="84" on="0"/>
        <pt x="6" y="84" on="1"/>
        <pt x="66" y="84" on="1"/>
        <pt x="72" y="84" on="0"/>
      </contour>
      <contour>
        <pt x="66" y="18" on="1"/>
        <pt x="6" y="18" on="1"/>
        <pt x="6" y="6" on="1"/>
        <pt x="18" y="6" on="1"/>
        <pt x="18" y="12" on="1"/>
        <pt x="36" y="12" on="1"/>
        <pt x="36" y="6" on="1"/>
        <pt x="66" y="6" on="1"/>
      </contour>
      <contour>
        <pt x="66" y="78" on="1"/>
        <pt x="12" y="78" on="1"/>
        <pt x="12" y="24" on="1"/>
        <pt x="66" y="24" on="1"/>
      </contour>
    </TTGlyph>
    <TTGlyph name="repo-clone" xMin="0" yMin="-12" xMax="96" yMax="84">
      <contour>
        <pt x="90" y="84" on="1"/>
        <pt x="96" y="84" on="0"/>
        <pt x="96" y="78" on="1"/>
        <pt x="96" y="42" on="1"/>
        <pt x="96" y="36" on="0"/>
        <pt x="90" y="36" on="1"/>
        <pt x="72" y="36" on="1"/>
        <pt x="72" y="30" on="1"/>
        <pt x="66" y="30" on="1"/>
        <pt x="66" y="36" on="1"/>
        <pt x="60" y="36" on="1"/>
        <pt x="54" y="36" on="0"/>
        <pt x="54" y="42" on="1"/>
        <pt x="54" y="84" on="1"/>
      </contour>
      <contour>
        <pt x="66" y="42" on="1"/>
        <pt x="66" y="48" on="1"/>
        <pt x="60" y="48" on="1"/>
        <pt x="60" y="42" on="1"/>
      </contour>
      <contour>
        <pt x="90" y="42" on="1"/>
        <pt x="90" y="48" on="1"/>
        <pt x="72" y="48" on="1"/>
        <pt x="72" y="42" on="1"/>
      </contour>
      <contour>
        <pt x="90" y="54" on="1"/>
        <pt x="90" y="78" on="1"/>
        <pt x="66" y="78" on="1"/>
        <pt x="66" y="54" on="1"/>
      </contour>
      <contour>
        <pt x="24" y="54" on="1"/>
        <pt x="18" y="54" on="1"/>
        <pt x="18" y="60" on="1"/>
        <pt x="24" y="60" on="1"/>
      </contour>
      <contour>
        <pt x="24" y="66" on="1"/>
        <pt x="18" y="66" on="1"/>
        <pt x="18" y="72" on="1"/>
        <pt x="24" y="72" on="1"/>
      </contour>
      <contour>
        <pt x="12" y="78" on="1"/>
        <pt x="12" y="24" on="1"/>
        <pt x="72" y="24" on="1"/>
        <pt x="72" y="6" on="1"/>
        <pt x="72" y="0" on="0"/>
        <pt x="66" y="0" on="1"/>
        <pt x="36" y="0" on="1"/>
        <pt x="36" y="-12" on="1"/>
        <pt x="27" y="-3" on="1"/>
        <pt x="18" y="-12" on="1"/>
        <pt x="18" y="0" on="1"/>
        <pt x="6" y="0" on="1"/>
        <pt x="0" y="0" on="0"/>
        <pt x="0" y="6" on="1"/>
        <pt x="0" y="78" on="1"/>
        <pt x="0" y="84" on="0"/>
        <pt x="6" y="84" on="1"/>
        <pt x="48" y="84" on="1"/>
        <pt x="48" y="78" on="1"/>
      </contour>
      <contour>
        <pt x="66" y="18" on="1"/>
        <pt x="6" y="18" on="1"/>
        <pt x="6" y="6" on="1"/>
        <pt x="18" y="6" on="1"/>
        <pt x="18" y="12" on="1"/>
        <pt x="36" y="12" on="1"/>
        <pt x="36" y="6" on="1"/>
        <pt x="66" y="6" on="1"/>
      </contour>
      <contour>
        <pt x="18" y="36" on="1"/>
        <pt x="24" y="36" on="1"/>
        <pt x="24" y="30" on="1"/>
        <pt x="18" y="30" on="1"/>
      </contour>
      <contour>
        <pt x="24" y="42" on="1"/>
        <pt x="18" y="42" on="1"/>
        <pt x="18" y="48" on="1"/>
        <pt x="24" y="48" on="1"/>
      </contour>
    </TTGlyph>
    <TTGlyph name="repo-force-push" xMin="0" yMin="-12" xMax="72" yMax="84">
      <contour>
        <pt x="60" y="30" on="1"/>
        <pt x="48" y="30" on="1"/>
        <pt x="48" y="-12" on="1"/>
        <pt x="36" y="-12" on="1"/>
        <pt x="36" y="30" on="1"/>
        <pt x="24" y="30" on="1"/>
        <pt x="38" y="48" on="1"/>
        <pt x="24" y="48" on="1"/>
        <pt x="42" y="72" on="1"/>
        <pt x="60" y="48" on="1"/>
        <pt x="46" y="48" on="1"/>
      </contour>
      <contour>
        <pt x="66" y="84" on="1"/>
        <pt x="72" y="84" on="0"/>
        <pt x="72" y="78" on="1"/>
        <pt x="72" y="6" on="1"/>
        <pt x="72" y="0" on="0"/>
        <pt x="66" y="0" on="1"/>
        <pt x="54" y="0" on="1"/>
        <pt x="54" y="6" on="1"/>
        <pt x="66" y="6" on="1"/>
        <pt x="66" y="18" on="1"/>
        <pt x="54" y="18" on="1"/>
        <pt x="54" y="24" on="1"/>
        <pt x="66" y="24" on="1"/>
        <pt x="66" y="78" on="1"/>
        <pt x="12" y="78" on="1"/>
        <pt x="12" y="24" on="1"/>
        <pt x="30" y="24" on="1"/>
        <pt x="30" y="18" on="1"/>
        <pt x="6" y="18" on="1"/>
        <pt x="6" y="6" on="1"/>
        <pt x="30" y="6" on="1"/>
        <pt x="30" y="0" on="1"/>
        <pt x="6" y="0" on="1"/>
        <pt x="0" y="0" on="0"/>
        <pt x="0" y="6" on="1"/>
        <pt x="0" y="78" on="1"/>
        <pt x="0" y="84" on="0"/>
        <pt x="6" y="84" on="1"/>
      </contour>
    </TTGlyph>
    <TTGlyph name="repo-forked" xMin="0" yMin="-6" xMax="60" yMax="78">
      <contour>
        <pt x="36" y="78" on="0"/>
        <pt x="60" y="78" on="0"/>
        <pt x="60" y="66" on="1"/>
        <pt x="60" y="59" on="0"/>
        <pt x="54" y="56" on="1"/>
        <pt x="54" y="45" on="1"/>
        <pt x="36" y="27" on="1"/>
        <pt x="36" y="16" on="1"/>
        <pt x="42" y="13" on="0"/>
        <pt x="42" y="6" on="1"/>
        <pt x="42" y="-6" on="0"/>
        <pt x="18" y="-6" on="0"/>
        <pt x="18" y="6" on="1"/>
        <pt x="18" y="13" on="0"/>
        <pt x="24" y="16" on="1"/>
        <pt x="24" y="27" on="1"/>
        <pt x="6" y="45" on="1"/>
        <pt x="6" y="56" on="1"/>
        <pt x="0" y="59" on="0"/>
        <pt x="0" y="66" on="1"/>
        <pt x="0" y="78" on="0"/>
        <pt x="24" y="78" on="0"/>
        <pt x="24" y="66" on="1"/>
        <pt x="24" y="59" on="0"/>
        <pt x="18" y="56" on="1"/>
        <pt x="18" y="48" on="1"/>
        <pt x="30" y="36" on="1"/>
        <pt x="42" y="48" on="1"/>
        <pt x="42" y="56" on="1"/>
        <pt x="36" y="59" on="0"/>
        <pt x="36" y="66" on="1"/>
      </contour>
      <contour>
        <pt x="5" y="59" on="0"/>
        <pt x="19" y="59" on="0"/>
        <pt x="19" y="73" on="0"/>
        <pt x="5" y="73" on="0"/>
      </contour>
      <contour>
        <pt x="23" y="-1" on="0"/>
        <pt x="37" y="-1" on="0"/>
        <pt x="37" y="13" on="0"/>
        <pt x="23" y="13" on="0"/>
      </contour>
      <contour>
        <pt x="41" y="59" on="0"/>
        <pt x="55" y="59" on="0"/>
        <pt x="55" y="73" on="0"/>
        <pt x="41" y="73" on="0"/>
      </contour>
    </TTGlyph>
</ttFont>
